<?xml version="1.0" encoding="UTF-8" standalone="no"?>
<!-- Created with Inkscape (http://www.inkscape.org/) -->

<svg
   id="svg4136"
   version="1.1"
   inkscape:version="1.2.2 (732a01da63, 2022-12-09)"
   xml:space="preserve"
   width="564.22668"
   height="564.23999"
   viewBox="0 0 528.96252 528.97498"
   sodipodi:docname="askksa_logo.svg"
   xmlns:inkscape="http://www.inkscape.org/namespaces/inkscape"
   xmlns:sodipodi="http://sodipodi.sourceforge.net/DTD/sodipodi-0.dtd"
   xmlns="http://www.w3.org/2000/svg"
   xmlns:svg="http://www.w3.org/2000/svg"
   xmlns:rdf="http://www.w3.org/1999/02/22-rdf-syntax-ns#"
   xmlns:cc="http://creativecommons.org/ns#"
   xmlns:dc="http://purl.org/dc/elements/1.1/"><metadata
     id="metadata4142"><rdf:RDF><cc:Work
         rdf:about=""><dc:format>image/svg+xml</dc:format><dc:type
           rdf:resource="http://purl.org/dc/dcmitype/StillImage" /></cc:Work></rdf:RDF></metadata><defs
     id="defs4140" /><sodipodi:namedview
     pagecolor="#ffffff"
     bordercolor="#666666"
     borderopacity="1"
     objecttolerance="10"
     gridtolerance="10"
     guidetolerance="10"
     inkscape:pageopacity="0"
     inkscape:pageshadow="2"
     inkscape:window-width="1920"
     inkscape:window-height="1017"
     id="namedview4138"
     showgrid="false"
     inkscape:zoom="1.1335632"
     inkscape:cx="220.9846"
     inkscape:cy="275.2383"
     inkscape:window-x="1912"
     inkscape:window-y="-8"
     inkscape:window-maximized="1"
     inkscape:current-layer="g4260"
     inkscape:showpageshadow="2"
     inkscape:pagecheckerboard="0"
     inkscape:deskcolor="#d1d1d1" /><g
     id="g4144"
     inkscape:groupmode="layer"
     inkscape:label="ink_ext_XXXXXX"
     transform="matrix(1.25,0,0,-1.25,0,528.975)"><g
       id="g4146"
       transform="scale(0.1)"><path
         d="m 0,2115.92 c 0,1168.6 947.273,2115.91 2115.85,2115.91 1168.55,0 2115.84,-947.31 2115.84,-2115.91 C 4231.69,947.32 3284.4,0 2115.85,0 947.273,0 0,947.32 0,2115.92 v 0"
         style="fill:#231f20;fill-opacity:1;fill-rule:nonzero;stroke:none"
         id="path4148"
         inkscape:connector-curvature="0" /><path
         d="m 1235.43,653.992 30.36,-18.242 -75.32,-90.961 -0.6,0.352 45.56,108.851 z m 91.98,57.34 -32.37,-39.711 -41.08,24.68 18.68,47.937 -52.99,31.852 -85.64,-252.442 63.11,-37.918 182.98,193.942 -52.69,31.66 v 0"
         style="fill:#ffffff;fill-opacity:1;fill-rule:evenodd;stroke:none"
         id="path4150"
         inkscape:connector-curvature="0" /><path
         d="m 1153.42,714.359 16.72,22.211 c 7.05,9.25 11.34,19.489 12.9,30.711 1.54,11.219 -0.54,22.778 -6.24,34.699 -5.72,11.911 -15.94,23.52 -30.69,34.852 -20.4,15.219 -39.94,21.547 -58.64,18.977 -18.69,-2.571 -35.64,-13.86 -50.84,-33.86 -9.34,-12.488 -15.39,-23.801 -18.12,-33.929 -2.74,-10.141 -3.17,-19.911 -1.29,-29.321 1.87,-9.429 5,-19.238 9.37,-29.469 4.37,-10.218 9.03,-21.628 13.96,-34.238 2.55,-6.922 3.73,-13.351 3.55,-19.254 -0.17,-5.918 -2.86,-11.707 -8.06,-17.367 -4.07,-4.211 -8.46,-6.473 -13.2,-6.801 -4.72,-0.34 -9.46,1.559 -14.21,5.7 -6.94,6.761 -8.857,13.859 -5.72,21.289 3.13,7.421 7.2,14.363 12.21,20.82 l -44.917,33.84 c -16.055,-19.129 -23.473,-38.821 -22.265,-59.047 1.21,-20.231 12.328,-38.543 33.332,-54.953 19.07,-14.34 37.74,-20.637 56,-18.879 18.26,1.742 34.86,12.332 49.8,31.75 6.82,9.109 11.52,17.969 14.14,26.551 2.61,8.578 3.63,17.16 3.09,25.738 -0.68,8.672 -2.49,17.531 -5.46,26.562 -2.96,9.039 -6.6,18.52 -10.93,28.418 -3.98,8.7 -7.02,17.43 -9.12,26.18 -2.09,8.75 -0.11,17.492 5.96,26.242 4.1,5.508 9.01,9.309 14.74,11.41 5.72,2.098 11.5,1.11 17.33,-2.941 7.46,-5.93 10.94,-12.09 10.45,-18.488 -0.5,-6.391 -3.16,-12.614 -7.96,-18.641 l -11.08,-14.711 45.19,-34.051 v 0"
         style="fill:#ffffff;fill-opacity:1;fill-rule:nonzero;stroke:none"
         id="path4152"
         inkscape:connector-curvature="0" /><path
         d="m 1000.47,832.18 19.31,19.992 c 8.11,8.34 13.63,17.976 16.54,28.93 2.9,10.937 2.24,22.668 -1.97,35.187 -4.22,12.52 -12.95,25.301 -26.21,38.332 -18.382,17.598 -37.019,26.258 -55.882,25.988 -18.879,-0.269 -37.07,-9.41 -54.59,-27.41 -10.805,-11.258 -18.176,-21.75 -22.133,-31.48 -3.941,-9.707 -5.555,-19.36 -4.844,-28.938 0.704,-9.582 2.61,-19.711 5.704,-30.39 3.097,-10.68 6.332,-22.571 9.691,-35.68 1.68,-7.18 2.066,-13.699 1.18,-19.551 -0.899,-5.851 -4.278,-11.269 -10.125,-16.25 -4.543,-3.68 -9.192,-5.398 -13.926,-5.14 -4.738,0.242 -9.199,2.699 -13.402,7.378 -6.083,7.563 -7.11,14.832 -3.094,21.821 4.011,7.011 8.894,13.39 14.648,19.179 l -40.449,39.071 c -18.273,-17.028 -28.035,-35.668 -29.297,-55.887 -1.262,-20.242 7.539,-39.773 26.399,-58.613 17.175,-16.559 34.941,-25.078 53.269,-25.571 18.34,-0.488 36.106,8.012 53.301,25.461 7.883,8.211 13.633,16.422 17.265,24.629 3.641,8.203 5.711,16.594 6.211,25.16 0.379,8.692 -0.339,17.711 -2.175,27.032 -1.848,9.34 -4.309,19.179 -7.395,29.539 -2.891,9.133 -4.844,18.16 -5.859,27.09 -1.016,8.953 2.019,17.39 9.101,25.332 4.746,4.961 10.086,8.14 16.028,9.531 5.945,1.379 11.55,-0.301 16.836,-5.043 6.687,-6.789 9.402,-13.328 8.125,-19.609 -1.282,-6.29 -4.668,-12.129 -10.168,-17.54 l -12.793,-13.238 40.704,-39.312 v 0"
         style="fill:#ffffff;fill-opacity:1;fill-rule:nonzero;stroke:none"
         id="path4154"
         inkscape:connector-curvature="0" /><path
         d="m 673.074,1037.64 c -19.461,-15.87 -29.969,-33.43 -31.519,-52.671 -1.543,-19.219 6.082,-39.309 22.879,-60.239 17.004,-20.808 35.168,-32.582 54.492,-35.3 19.336,-2.731 38.801,3.769 58.398,19.48 l 82.364,66.692 c 23.085,18.187 36.472,36.958 40.148,56.298 3.672,19.34 -4.082,40.89 -23.254,64.64 -19.219,23.65 -38.574,35.57 -58.059,35.77 -19.48,0.19 -40.515,-9.13 -63.085,-27.97 l -82.364,-66.7 z m 124.856,22.5 c 3.945,3.33 8.398,6.47 13.34,9.4 4.953,2.92 9.941,4.48 14.992,4.65 5.039,0.18 9.676,-2.19 13.914,-7.14 3.957,-5.17 5.383,-10.28 4.258,-15.31 -1.114,-5.02 -3.567,-9.71 -7.356,-14.08 -3.785,-4.36 -7.723,-8.12 -11.797,-11.3 l -83.164,-67.348 c -6.375,-5.563 -13.238,-9.551 -20.594,-11.973 -7.343,-2.437 -14.168,-0.129 -20.46,6.91 -5.758,7.852 -6.61,15.02 -2.567,21.52 4.055,6.511 9.473,12.281 16.27,17.32 l 83.164,67.351 v 0"
         style="fill:#ffffff;fill-opacity:1;fill-rule:evenodd;stroke:none"
         id="path4156"
         inkscape:connector-curvature="0" /><path
         d="m 566.816,1235.45 -18.562,-11.6 c -22.258,-14.17 -34.633,-30.59 -37.109,-49.3 -2.485,-18.69 3.308,-39.14 17.378,-61.31 14.707,-23.7 31.379,-37.63 50.024,-41.8 18.633,-4.18 39.898,1.24 63.789,16.27 l 90.75,56.71 c 22.793,13.93 36.98,29.86 42.566,47.79 5.598,17.92 1.067,38.74 -13.589,62.45 -16.758,26.13 -34.692,41.48 -53.793,46.05 -19.098,4.58 -38.25,0.73 -57.442,-11.53 l -27.105,-16.94 32.382,-51.82 20.028,12.53 c 7.07,4.84 14.68,8.23 22.844,10.17 8.152,1.94 15.144,-1.21 20.957,-9.45 4.148,-6.74 5.398,-12.63 3.757,-17.65 -1.64,-5.02 -5.605,-9.44 -11.882,-13.27 l -109.504,-68.02 c -7.188,-4.73 -13.684,-6.96 -19.485,-6.69 -5.808,0.28 -11.148,4.41 -16.035,12.38 -3.074,4.95 -3.152,10.43 -0.222,16.42 2.941,6 9.089,11.98 18.488,17.96 l 14.137,8.84 -32.372,51.81 v 0"
         style="fill:#ffffff;fill-opacity:1;fill-rule:nonzero;stroke:none"
         id="path4158"
         inkscape:connector-curvature="0" /><path
         d="m 665.957,1415.34 -234.121,-114.2 26.777,-54.92 234.121,114.19 -26.777,54.93 v 0"
         style="fill:#ffffff;fill-opacity:1;fill-rule:nonzero;stroke:none"
         id="path4160"
         inkscape:connector-curvature="0" /><path
         d="m 521.895,1504.24 13.273,-32.84 -114.895,-27.31 -0.261,0.64 101.883,59.51 z m 107.968,-9.56 -49.758,-12.23 -17.949,44.43 43.774,27.05 -23.157,57.31 -220.312,-150.06 27.578,-68.27 262.852,44.77 -23.028,57 v 0"
         style="fill:#ffffff;fill-opacity:1;fill-rule:evenodd;stroke:none"
         id="path4162"
         inkscape:connector-curvature="0" /><path
         d="m 592.852,1696.43 5.898,10.78 c -1.746,1.91 -3.23,4.01 -4.434,6.29 -1.211,2.28 -2.043,4.62 -2.48,7.04 -0.645,3.24 -0.344,6.47 0.906,9.69 1.242,3.21 3.762,5.47 7.551,6.77 4.219,0.98 7.812,-0.06 10.77,-3.15 2.96,-3.08 4.992,-6.85 6.093,-11.3 1.145,-5.05 1.574,-10.12 1.282,-15.21 -0.286,-5.1 -0.547,-10.25 -0.801,-15.46 l 17.258,-3.21 c 0.859,8.27 1.289,16.06 1.304,23.4 0.012,7.35 -0.984,15.17 -2.984,23.45 -1.613,6.47 -4.426,12.63 -8.43,18.5 -4.004,5.87 -8.945,10.38 -14.824,13.55 -5.879,3.18 -12.434,3.95 -19.668,2.33 -8.621,-2.52 -14.219,-7.46 -16.785,-14.83 -2.578,-7.35 -2.988,-15.12 -1.25,-23.28 0.574,-2.4 1.258,-4.67 2.051,-6.79 0.781,-2.13 1.687,-3.88 2.742,-5.28 l -0.508,-0.84 -18.066,6.25 c -8.641,25.55 -20.957,42.58 -36.934,51.08 -15.977,8.52 -34.188,10.12 -54.648,4.81 l -31.016,-7.73 14.773,-59.28 22.934,5.71 c 8.211,2.42 16.492,3.29 24.852,2.62 8.371,-0.69 14.035,-5.84 17.023,-15.47 1.852,-7.7 1.227,-13.67 -1.887,-17.94 -3.113,-4.28 -8.242,-7.26 -15.398,-8.95 l -125.168,-30.86 c -8.289,-2.28 -15.156,-2.39 -20.598,-0.33 -5.43,2.05 -9.234,7.63 -11.414,16.72 -1.394,5.67 0.227,10.9 4.863,15.69 4.637,4.79 12.344,8.58 23.118,11.36 l 16.179,4.04 -14.785,59.27 -21.23,-5.29 c -25.547,-6.59 -42.383,-18.39 -50.52,-35.41 -8.141,-17.01 -8.941,-38.24 -2.41,-63.69 6.672,-27.07 18.215,-45.48 34.648,-55.21 16.426,-9.73 38.329,-11.15 65.696,-4.23 l 103.804,25.87 c 24.621,5.9 42.454,15.84 53.508,29.85 11.055,14 14.219,33.27 9.492,57.79 l 29.493,-9.12 v 0"
         style="fill:#ffffff;fill-opacity:1;fill-rule:nonzero;stroke:none"
         id="path4164"
         inkscape:connector-curvature="0" /><path
         d="m 234.836,1905.27 c -2.043,13.49 -7.871,23.17 -17.5,29.03 -9.633,5.87 -20.832,8.68 -33.606,8.44 l 3.387,-27.58 c 3.442,0.09 6.574,-1.14 9.414,-3.7 2.844,-2.56 4.555,-5.64 5.11,-9.22 0.312,-3.11 0.007,-6.55 -0.911,-10.34 -0.925,-3.79 -2.019,-7.86 -3.308,-12.22 -1.121,-4.32 -2.063,-8.92 -2.805,-13.82 -0.75,-4.88 -0.828,-10.08 -0.23,-15.59 1.316,-9.33 4.734,-16.54 10.23,-21.65 5.512,-5.11 12.129,-8.74 19.875,-10.89 7.742,-2.16 15.637,-3.46 23.672,-3.9 l -3.34,27.23 c -4.023,0.23 -7.644,1.48 -10.859,3.74 -3.223,2.25 -5.164,5.46 -5.82,9.61 -0.274,2.79 -0.008,6.01 0.781,9.68 0.793,3.66 1.758,7.58 2.883,11.76 1.265,4.37 2.246,9.02 2.918,13.97 0.671,4.94 0.711,10.09 0.109,15.45 z m 184.352,15.29 4.328,-35.17 -118.055,3.36 -0.078,0.69 113.805,31.12 z m 101.82,-37.19 -51.223,1.07 -5.84,47.57 49.278,14.79 -7.532,61.36 -251.648,-87.94 8.977,-73.08 265.488,-24.78 -7.5,61.01 v 0"
         style="fill:#ffffff;fill-opacity:1;fill-rule:evenodd;stroke:none"
         id="path4166"
         inkscape:connector-curvature="0" /><path
         d="m 318.555,2203.85 c -25.117,0.35 -44.446,-6.34 -57.996,-20.09 -13.547,-13.74 -20.618,-34.02 -21.204,-60.85 -0.351,-26.87 6.004,-47.56 19.063,-62.08 13.047,-14.5 32.141,-22.04 57.246,-22.6 l 105.957,-1.86 c 29.395,-0.9 51.707,4.87 66.953,17.33 15.235,12.45 23.156,33.93 23.731,64.45 0.488,30.48 -6.68,52.05 -21.477,64.72 -14.805,12.68 -36.91,19.06 -66.316,19.14 l -105.957,1.84 z m 110.105,-63.03 c 5.168,0.02 10.586,-0.45 16.262,-1.37 5.676,-0.94 10.5,-2.96 14.473,-6.07 3.972,-3.1 5.996,-7.91 6.066,-14.41 -0.293,-6.51 -2.481,-11.33 -6.574,-14.46 -4.082,-3.14 -8.977,-5.16 -14.688,-6.06 -5.703,-0.91 -11.133,-1.27 -16.301,-1.08 l -107,1.86 c -8.457,-0.15 -16.281,1.2 -23.464,4.06 -7.192,2.87 -10.942,9.02 -11.235,18.46 0.637,9.71 4.59,15.75 11.867,18.14 7.286,2.38 15.149,3.31 23.594,2.8 l 107,-1.87 v 0"
         style="fill:#ffffff;fill-opacity:1;fill-rule:evenodd;stroke:none"
         id="path4168"
         inkscape:connector-curvature="0" /><path
         d="m 430.613,2329.18 27.453,-4.34 c 11.485,-1.88 22.539,-0.86 33.172,3.03 10.637,3.9 19.875,11.17 27.707,21.8 7.832,10.64 13.289,25.12 16.368,43.45 3.867,25.17 0.285,45.4 -10.77,60.69 -11.047,15.31 -28.977,24.97 -53.773,29 -15.411,2.39 -28.231,2.42 -38.465,0.07 -10.227,-2.34 -19.051,-6.55 -26.485,-12.62 -7.441,-6.09 -14.648,-13.45 -21.621,-22.11 -6.972,-8.66 -14.863,-18.13 -23.672,-28.4 -4.922,-5.5 -10.039,-9.56 -15.339,-12.18 -5.305,-2.62 -11.672,-2.97 -19.114,-1.02 -5.625,1.61 -9.687,4.42 -12.207,8.44 -2.512,4.03 -3.054,9.1 -1.633,15.23 2.707,9.31 8.071,14.32 16.106,15.05 8.027,0.72 16.062,0.39 24.109,-1.01 l 8.801,55.55 c -24.434,5.19 -45.293,2.51 -62.59,-8.07 -17.293,-10.56 -28.25,-28.97 -32.859,-55.22 -3.723,-23.59 -0.52,-43.02 9.609,-58.32 10.117,-15.3 27.254,-24.98 51.426,-29.06 11.238,-1.73 21.269,-1.74 30.066,-0.02 8.813,1.72 16.868,4.84 24.172,9.35 7.344,4.68 14.317,10.44 20.899,17.3 6.59,6.85 13.242,14.52 19.961,22.98 5.808,7.61 12.089,14.39 18.828,20.35 6.75,5.96 15.398,8.32 25.968,7.07 6.786,-1.04 12.442,-3.6 16.993,-7.67 4.539,-4.07 6.382,-9.63 5.535,-16.68 -1.731,-9.37 -5.528,-15.34 -11.414,-17.9 -5.879,-2.56 -12.61,-3.13 -20.188,-1.73 l -18.191,2.88 -8.852,-55.89 v 0"
         style="fill:#ffffff;fill-opacity:1;fill-rule:nonzero;stroke:none"
         id="path4170"
         inkscape:connector-curvature="0" /><path
         d="m 569.375,2562.96 -103.645,31.69 12.407,40.57 103.64,-31.69 17.864,58.43 -249.106,76.16 -17.859,-58.43 95.676,-29.25 -12.407,-40.57 -95.672,29.25 -17.863,-58.42 249.106,-76.16 17.859,58.42 v 0"
         style="fill:#ffffff;fill-opacity:1;fill-rule:nonzero;stroke:none"
         id="path4172"
         inkscape:connector-curvature="0" /><path
         d="m 507.141,2924.69 c -22.993,10.14 -43.403,11.52 -61.243,4.17 -17.839,-7.35 -32.277,-23.26 -43.293,-47.73 -10.828,-24.6 -13.062,-46.13 -6.714,-64.58 6.343,-18.46 20.972,-32.86 43.867,-43.2 l 96.812,-43.1 c 26.7,-12.32 49.493,-15.72 68.391,-10.22 18.894,5.51 34.57,22.2 47.031,50.06 12.356,27.86 14.192,50.52 5.52,67.97 -8.672,17.45 -26.535,31.96 -53.567,43.53 l -96.804,43.1 z m 76.714,-101.04 c 4.758,-2.01 9.575,-4.54 14.426,-7.62 4.864,-3.08 8.516,-6.83 10.957,-11.24 2.45,-4.42 2.434,-9.63 -0.05,-15.64 -2.809,-5.87 -6.708,-9.46 -11.7,-10.75 -4.976,-1.29 -10.281,-1.23 -15.886,0.17 -5.606,1.39 -10.743,3.19 -15.418,5.37 l -97.766,43.53 c -7.852,3.16 -14.523,7.47 -20.02,12.91 -5.5,5.44 -6.543,12.57 -3.132,21.37 4.382,8.7 10.386,12.72 18.015,12.06 7.637,-0.65 15.235,-2.86 22.813,-6.63 l 97.761,-43.53 v 0"
         style="fill:#ffffff;fill-opacity:1;fill-rule:evenodd;stroke:none"
         id="path4174"
         inkscape:connector-curvature="0" /><path
         d="m 515.281,2981.48 24.692,41.09 178.648,-107.35 31.469,52.37 -178.652,107.35 25.41,42.28 -44.629,26.82 -81.567,-135.75 44.629,-26.81 v 0"
         style="fill:#ffffff;fill-opacity:1;fill-rule:nonzero;stroke:none"
         id="path4176"
         inkscape:connector-curvature="0" /><path
         d="m 740.137,3280.15 c -20.117,15.05 -39.688,20.99 -58.731,17.84 -19.035,-3.15 -36.672,-15.41 -52.91,-36.76 -16.086,-21.54 -23.113,-42.02 -21.074,-61.43 2.031,-19.42 13.039,-36.73 33.027,-51.95 l 84.629,-63.78 c 23.242,-18 44.688,-26.45 64.348,-25.34 19.644,1.12 38.672,13.85 57.078,38.2 18.309,24.37 25.195,46.03 20.664,64.99 -4.523,18.95 -18.652,37.1 -42.402,54.45 l -84.629,63.78 z m 52.031,-115.71 c 4.18,-3.02 8.301,-6.58 12.344,-10.67 4.035,-4.09 6.758,-8.56 8.144,-13.41 1.387,-4.86 0.203,-9.94 -3.562,-15.24 -4.067,-5.09 -8.672,-7.7 -13.821,-7.84 -5.144,-0.13 -10.293,1.11 -15.437,3.74 -5.148,2.63 -9.758,5.53 -13.828,8.71 l -85.461,64.4 c -6.942,4.85 -12.473,10.54 -16.609,17.08 -4.133,6.55 -3.547,13.73 1.765,21.54 6.223,7.49 12.969,10.05 20.266,7.69 7.285,-2.35 14.199,-6.22 20.73,-11.6 l 85.469,-64.4 v 0"
         style="fill:#ffffff;fill-opacity:1;fill-rule:evenodd;stroke:none"
         id="path4178"
         inkscape:connector-curvature="0" /><path
         d="m 960.383,3236.92 -46.223,44.64 -9.57,28.08 88.613,-38.74 44.877,46.49 -145.697,58.61 -44.09,119.84 -43.438,-44.99 43.583,-104.86 -0.477,-0.5 -74.953,72.39 -42.442,-43.96 187.372,-180.95 42.445,43.95 v 0"
         style="fill:#ffffff;fill-opacity:1;fill-rule:nonzero;stroke:none"
         id="path4180"
         inkscape:connector-curvature="0" /><path
         d="m 1083.76,3473.11 -28.28,-21.32 -56.125,103.92 0.547,0.41 83.858,-83.01 z m 18.71,-106.77 -24.7,44.89 38.27,28.85 37.47,-35.28 49.36,37.21 -201.97,173.96 -58.798,-44.31 111.278,-242.31 49.09,36.99 v 0"
         style="fill:#ffffff;fill-opacity:1;fill-rule:evenodd;stroke:none"
         id="path4182"
         inkscape:connector-curvature="0" /><path
         d="m 1308.87,3509.54 53.63,32.22 -134.16,223.29 -49.78,-29.91 80.02,-121.7 -0.89,-0.54 -115.38,100.45 -53.84,-32.35 134.16,-223.29 49.68,29.85 -79.53,121.59 0.24,0.95 115.85,-100.56 v 0"
         style="fill:#ffffff;fill-opacity:1;fill-rule:nonzero;stroke:none"
         id="path4184"
         inkscape:connector-curvature="0" /><path
         d="m 1536.82,3617.97 -23.02,59.98 3.18,29.51 63.95,-72.57 60.31,23.16 -107.28,114.71 10.69,127.24 -58.37,-22.41 -4.82,-113.45 -0.65,-0.26 -37.33,97.28 -57.04,-21.9 93.35,-243.18 57.03,21.89 v 0"
         style="fill:#ffffff;fill-opacity:1;fill-rule:nonzero;stroke:none"
         id="path4186"
         inkscape:connector-curvature="0" /><path
         d="m 1783.44,3886.79 c -6.16,24.35 -17.64,41.3 -34.42,50.83 -16.77,9.53 -38.2,11.11 -64.25,4.73 -26.06,-6.62 -44.4,-18.11 -55.03,-34.47 -10.64,-16.37 -12.98,-36.75 -7.03,-61.16 l 25.63,-102.83 c 6.74,-28.62 18.1,-48.68 34.06,-60.18 15.98,-11.5 38.78,-13.58 68.4,-6.25 29.56,7.43 48.55,19.93 56.96,37.5 8.41,17.58 8.85,40.58 1.31,69.01 l -25.63,102.82 z m -32.39,-122.66 c 1.35,-4.99 2.32,-10.34 2.89,-16.06 0.56,-5.72 -0.14,-10.91 -2.11,-15.55 -1.98,-4.64 -6.1,-7.85 -12.36,-9.59 -6.36,-1.4 -11.59,-0.54 -15.67,2.6 -4.08,3.14 -7.31,7.33 -9.65,12.62 -2.35,5.28 -4.11,10.43 -5.26,15.47 L 1683,3857.46 c -2.35,8.12 -3.07,16.03 -2.16,23.72 0.91,7.68 5.88,12.9 14.92,15.62 9.54,1.91 16.41,-0.35 20.59,-6.76 4.19,-6.42 7.13,-13.77 8.82,-22.07 l 25.88,-103.84 v 0"
         style="fill:#ffffff;fill-opacity:1;fill-rule:evenodd;stroke:none"
         id="path4188"
         inkscape:connector-curvature="0" /><path
         d="m 1927.44,3714.57 -7.83,63.77 10.22,27.86 44.5,-85.87 64.13,7.88 -76.35,137.24 41.15,120.88 -62.06,-7.62 -32.12,-108.92 -0.69,-0.09 -12.7,103.42 -60.63,-7.44 31.74,-258.55 60.64,7.44 v 0"
         style="fill:#ffffff;fill-opacity:1;fill-rule:nonzero;stroke:none"
         id="path4190"
         inkscape:connector-curvature="0" /><path
         d="m 2069.42,3797.26 c -0.28,-26.65 6.57,-46.47 20.54,-59.47 13.98,-13.01 34,-19.7 60.05,-20.06 30.78,-0.04 52.44,7.09 64.98,21.38 12.52,14.3 18.75,32.73 18.67,55.29 l 3.28,188.59 -61.07,1.07 -3.4,-194.85 c 0.02,-5.91 -1.54,-11.44 -4.73,-16.6 -3.18,-5.15 -8.71,-7.83 -16.58,-8.05 -8.47,0.35 -14.14,2.76 -16.99,7.25 -2.84,4.49 -4.11,9.96 -3.8,16.4 l 3.44,196.59 -61.1,1.06 -3.29,-188.6 v 0"
         style="fill:#ffffff;fill-opacity:1;fill-rule:nonzero;stroke:none"
         id="path4192"
         inkscape:connector-curvature="0" /><path
         d="m 2272.98,3806.55 -3.89,-27.52 c -1.66,-11.51 -0.45,-22.56 3.63,-33.13 4.09,-10.56 11.51,-19.67 22.27,-27.31 10.78,-7.65 25.35,-12.86 43.73,-15.62 25.24,-3.42 45.39,0.52 60.49,11.84 15.12,11.31 24.45,29.4 28.05,54.27 2.12,15.44 1.93,28.27 -0.59,38.46 -2.52,10.18 -6.89,18.94 -13.09,26.26 -6.21,7.34 -13.71,14.42 -22.48,21.24 -8.79,6.81 -18.38,14.53 -28.81,23.17 -5.58,4.82 -9.72,9.87 -12.44,15.13 -2.71,5.25 -3.16,11.62 -1.36,19.09 1.52,5.65 4.25,9.76 8.24,12.35 3.96,2.58 9.04,3.21 15.17,1.9 9.38,-2.54 14.48,-7.83 15.34,-15.84 0.88,-8.01 0.68,-16.06 -0.57,-24.13 l 55.68,-7.83 c 4.77,24.52 1.72,45.33 -9.16,62.44 -10.86,17.11 -29.47,27.74 -55.8,31.9 -23.63,3.3 -43.01,-0.24 -58.12,-10.63 -15.12,-10.38 -24.51,-27.7 -28.17,-51.92 -1.54,-11.28 -1.36,-21.3 0.51,-30.07 1.88,-8.78 5.14,-16.78 9.77,-24.01 4.8,-7.26 10.7,-14.13 17.65,-20.6 6.98,-6.47 14.77,-12.98 23.34,-19.55 7.7,-5.67 14.59,-11.84 20.67,-18.47 6.07,-6.64 8.59,-15.25 7.52,-25.84 -0.92,-6.8 -3.38,-12.5 -7.37,-17.13 -3.98,-4.61 -9.51,-6.55 -16.58,-5.82 -9.39,1.57 -15.43,5.27 -18.1,11.1 -2.66,5.83 -3.34,12.56 -2.07,20.15 l 2.55,18.25 -56.01,7.87 v 0"
         style="fill:#ffffff;fill-opacity:1;fill-rule:nonzero;stroke:none"
         id="path4194"
         inkscape:connector-curvature="0" /><path
         d="m 2571.1,3759.93 -34.22,9.17 47.35,108.2 0.66,-0.17 -13.79,-117.2 z m -72.61,-80.47 20.17,47.1 46.29,-12.41 -4.73,-51.24 59.71,-15.99 12.74,266.27 -71.12,19.05 -122.44,-236.87 59.38,-15.91 v 0"
         style="fill:#ffffff;fill-opacity:1;fill-rule:evenodd;stroke:none"
         id="path4196"
         inkscape:connector-curvature="0" /><path
         d="m 2702.74,3613.94 93.34,243.19 -57.03,21.9 -93.36,-243.19 57.05,-21.9 v 0"
         style="fill:#ffffff;fill-opacity:1;fill-rule:nonzero;stroke:none"
         id="path4198"
         inkscape:connector-curvature="0" /><path
         d="m 2875.63,3534.63 31.16,56.21 24.65,16.51 -14.48,-95.63 56.51,-31.32 18.9,155.91 104.34,73.61 -54.69,30.31 -90,-69.24 -0.62,0.34 50.52,91.13 -53.43,29.63 -126.29,-227.84 53.43,-29.62 v 0"
         style="fill:#ffffff;fill-opacity:1;fill-rule:nonzero;stroke:none"
         id="path4200"
         inkscape:connector-curvature="0" /><path
         d="m 3133.92,3484.23 -28.66,20.82 82.95,84.06 0.57,-0.4 -54.86,-104.48 z m -96.63,-49.1 35.71,36.74 38.77,-28.16 -22.8,-46.15 50.02,-36.33 107.31,244.02 -59.55,43.28 -199.2,-177.26 49.74,-36.14 v 0"
         style="fill:#ffffff;fill-opacity:1;fill-rule:evenodd;stroke:none"
         id="path4202"
         inkscape:connector-curvature="0" /><path
         d="m 3272.94,3376.86 14.75,-13.75 c 4.7,-5.22 6.54,-10.63 5.5,-16.26 -1.01,-5.62 -4,-11.64 -8.98,-18.05 -4.96,-6.42 -11,-13.37 -18.15,-20.86 -7.12,-7.49 -14.49,-15.59 -22.07,-24.31 -1.64,-2.03 -3.06,-4.16 -4.29,-6.39 -1.23,-2.22 -2.33,-4.52 -3.32,-6.88 l 48.75,-45.45 2.32,2.5 c -0.16,1.83 -0.08,3.63 0.27,5.39 0.38,1.75 0.88,3.5 1.59,5.24 3.18,5.08 8.02,11.55 14.55,19.42 6.52,7.89 13.28,15.86 20.25,23.95 6.97,8.07 12.74,14.97 17.31,20.66 5.7,7.07 8.51,14.56 8.45,22.44 -0.08,7.88 -2.59,15.47 -7.58,22.79 l 0.47,0.51 c 13.23,-4.27 24.91,-4.35 35.02,-0.25 10.1,4.1 19.81,11.33 29.1,21.68 17.49,18.75 25.49,36.51 24.05,53.26 -1.47,16.76 -11.43,33.59 -29.89,50.46 l -65.27,60.88 -177.64,-190.52 44.67,-41.66 70.14,75.2 z m 75.57,81.04 c 11.48,-9.46 18.53,-17.84 21.13,-25.12 2.6,-7.28 -1.21,-16.34 -11.43,-27.18 -5.54,-6.23 -11.64,-10.65 -18.26,-13.27 -6.62,-2.62 -13.22,-1.1 -19.8,4.57 l -15.28,14.23 43.64,46.77 v 0"
         style="fill:#ffffff;fill-opacity:1;fill-rule:evenodd;stroke:none"
         id="path4204"
         inkscape:connector-curvature="0" /><path
         d="m 3440.83,3189.05 -22.77,27.13 100.82,61.49 0.45,-0.54 -78.5,-88.08 z m -105.64,-24.28 43.53,27.02 30.8,-36.72 -33.26,-39.25 39.73,-47.36 163.16,210.81 -47.34,56.41 -236.14,-123.82 39.52,-47.09 v 0"
         style="fill:#ffffff;fill-opacity:1;fill-rule:evenodd;stroke:none"
         id="path4206"
         inkscape:connector-curvature="0" /><path
         d="m 3591.92,3178.37 26.12,-40.2 -174.81,-113.52 33.28,-51.24 174.81,113.52 26.85,-41.37 43.66,28.35 -86.23,132.81 -43.68,-28.35 v 0"
         style="fill:#ffffff;fill-opacity:1;fill-rule:nonzero;stroke:none"
         id="path4208"
         inkscape:connector-curvature="0" /><path
         d="m 3583.58,2775.07 46.8,22.82 -36.39,74.63 50.61,24.69 33.5,-68.69 46.79,22.82 -33.49,68.69 43.12,21.04 34.57,-70.88 46.78,22.82 -61.35,125.79 -234.1,-114.19 63.16,-129.54 v 0"
         style="fill:#ffffff;fill-opacity:1;fill-rule:nonzero;stroke:none"
         id="path4210"
         inkscape:connector-curvature="0" /><path
         d="m 3713.7,2693.61 -26.58,-8.14 c -11.13,-3.35 -20.65,-9.1 -28.48,-17.26 -7.85,-8.18 -12.97,-18.75 -15.35,-31.74 -2.38,-13 -0.94,-28.4 4.34,-46.23 7.56,-24.31 19.65,-40.92 36.29,-49.83 16.64,-8.9 36.97,-9.73 61.03,-2.49 14.9,4.61 26.43,10.21 34.59,16.8 8.17,6.58 14.26,14.24 18.28,22.96 4.03,8.73 7.27,18.51 9.75,29.35 2.46,10.84 5.41,22.81 8.83,35.9 2.01,7.1 4.82,12.99 8.43,17.67 3.62,4.69 9.2,7.78 16.74,9.31 5.76,1.01 10.65,0.26 14.67,-2.25 4.02,-2.51 6.74,-6.84 8.14,-12.96 1.65,-9.56 -0.97,-16.42 -7.87,-20.59 -6.91,-4.17 -14.27,-7.4 -22.11,-9.67 l 16.43,-53.78 c 24.24,6.04 41.82,17.61 52.71,34.69 10.92,17.08 12.7,38.42 5.34,64.04 -7,22.82 -18.4,38.89 -34.2,48.2 -15.8,9.32 -35.45,10.51 -58.95,3.58 -10.88,-3.37 -19.88,-7.76 -27.05,-13.17 -7.15,-5.41 -13.03,-11.75 -17.62,-19 -4.55,-7.42 -8.3,-15.66 -11.21,-24.71 -2.91,-9.05 -5.52,-18.86 -7.85,-29.41 -1.89,-9.38 -4.57,-18.23 -8.01,-26.54 -3.45,-8.31 -10.19,-14.22 -20.23,-17.73 -6.56,-2.04 -12.77,-2.23 -18.63,-0.56 -5.88,1.66 -9.98,5.85 -12.29,12.56 -2.56,9.18 -1.76,16.21 2.4,21.09 4.16,4.89 9.97,8.35 17.39,10.42 l 17.61,5.38 -16.54,54.11 v 0"
         style="fill:#ffffff;fill-opacity:1;fill-rule:nonzero;stroke:none"
         id="path4212"
         inkscape:connector-curvature="0" /><path
         d="m 3797.02,2406.54 -6.76,34.77 117.99,4.89 0.14,-0.68 -111.37,-38.98 z m -104.16,29.99 51.17,2.52 9.14,-47.05 -48.12,-18.21 11.8,-60.68 244.9,105.28 -14.04,72.28 -266.57,6.2 11.72,-60.34 v 0"
         style="fill:#ffffff;fill-opacity:1;fill-rule:evenodd;stroke:none"
         id="path4214"
         inkscape:connector-curvature="0" /><path
         d="m 3724.23,2186.02 4.37,-62.43 259.85,18.17 -4.07,57.93 -144.74,-16.03 -0.08,1.03 141.88,57.2 -4.38,62.66 -259.84,-18.16 4.04,-57.83 144.43,15.67 0.75,-0.64 -142.21,-57.57 v 0"
         style="fill:#ffffff;fill-opacity:1;fill-rule:nonzero;stroke:none"
         id="path4216"
         inkscape:connector-curvature="0" /><path
         d="m 3934.29,2076.34 -3.36,-47.82 -207.91,14.54 -4.26,-60.95 207.91,-14.54 -3.44,-49.21 51.94,-3.63 11.05,157.98 -51.93,3.63 v 0"
         style="fill:#ffffff;fill-opacity:1;fill-rule:nonzero;stroke:none"
         id="path4218"
         inkscape:connector-curvature="0" /><path
         d="m 3867.41,1704.03 c 24.69,-4.71 44.88,-1.48 60.61,9.7 15.74,11.18 26.21,29.93 31.44,56.24 5.02,26.41 2.37,47.9 -7.97,64.45 -10.35,16.56 -27.83,27.3 -52.46,32.21 l -104.02,20.23 c -28.79,6 -51.78,4.18 -68.95,-5.43 -17.16,-9.62 -28.69,-29.4 -34.57,-59.36 -5.76,-29.93 -2.46,-52.42 9.93,-67.48 12.38,-15.05 33.02,-25.16 61.97,-30.35 l 104.02,-20.21 z m -97.48,81.19 c -5.08,0.88 -10.33,2.26 -15.76,4.18 -5.43,1.9 -9.82,4.72 -13.2,8.47 -3.38,3.75 -4.53,8.84 -3.48,15.26 1.43,6.36 4.41,10.73 8.98,13.1 4.57,2.39 9.75,3.52 15.51,3.42 5.78,-0.11 11.19,-0.69 16.25,-1.77 l 105.04,-20.42 c 8.36,-1.31 15.84,-4.01 22.42,-8.07 6.59,-4.07 9.2,-10.78 7.85,-20.13 -2.3,-9.45 -7.26,-14.72 -14.84,-15.8 -7.58,-1.08 -15.49,-0.63 -23.71,1.33 l -105.06,20.43 v 0"
         style="fill:#ffffff;fill-opacity:1;fill-rule:evenodd;stroke:none"
         id="path4220"
         inkscape:connector-curvature="0" /><path
         d="m 3702.86,1490.33 12.7,33.07 102.65,-58.39 -0.25,-0.64 -115.1,25.96 z m -72.44,80.63 44.73,-24.99 -17.17,-44.74 -50.47,10.07 -22.15,-57.71 263.46,-40.51 26.39,68.74 -222.76,146.52 -22.03,-57.38 v 0"
         style="fill:#ffffff;fill-opacity:1;fill-rule:evenodd;stroke:none"
         id="path4222"
         inkscape:connector-curvature="0" /><path
         d="m 3526.46,1341.02 -29.38,-55.25 229.98,-122.3 27.27,51.28 -131.25,63.11 0.48,0.91 150.63,-26.68 29.49,55.47 -230,122.3 -27.21,-51.18 130.79,-63.27 0.29,-0.93 -151.09,26.54 v 0"
         style="fill:#ffffff;fill-opacity:1;fill-rule:nonzero;stroke:none"
         id="path4224"
         inkscape:connector-curvature="0" /><path
         d="m 3651.12,1139.73 -27.5,-39.27 -170.72,119.55 -35.04,-50.05 170.72,-119.55 -28.28,-40.4 42.64,-29.862 90.84,129.722 -42.66,29.86 v 0"
         style="fill:#ffffff;fill-opacity:1;fill-rule:nonzero;stroke:none"
         id="path4226"
         inkscape:connector-curvature="0" /><path
         d="m 3567.39,819.07 -14.92,60.192 -31.85,-35.383 -1.57,-78.508 48.34,53.699 z m -166.7,37 c 18.73,-16.75 37.72,-24.379 56.96,-22.89 19.23,1.468 37.87,12.152 55.91,32.019 17.9,20.051 26.68,39.821 26.35,59.34 -0.33,19.531 -9.8,37.731 -28.38,54.641 l -78.75,70.91 c -21.58,19.96 -42.22,30.25 -61.89,30.85 -19.67,0.6 -39.73,-10.43 -60.2,-33.07 -20.35,-22.69 -29.1,-43.67 -26.25,-62.94 2.85,-19.282 15.35,-38.598 37.5,-57.942 l 78.75,-70.918 z m -41.73,119.801 c -3.91,3.379 -7.7,7.277 -11.37,11.711 -3.67,4.43 -6,9.117 -6.96,14.068 -0.95,4.96 0.67,9.92 4.89,14.87 4.49,4.71 9.29,6.92 14.43,6.6 5.16,-0.31 10.18,-2 15.06,-5.07 4.9,-3.06 9.24,-6.35 13.03,-9.87 l 79.51,-71.61 c 6.5,-5.429 11.5,-11.59 15.06,-18.468 3.55,-6.883 2.34,-13.981 -3.64,-21.301 -6.83,-6.91 -13.78,-8.879 -20.85,-5.903 -7.06,2.981 -13.6,7.434 -19.65,13.364 l -79.51,71.609 v 0"
         style="fill:#ffffff;fill-opacity:1;fill-rule:evenodd;stroke:none"
         id="path4228"
         inkscape:connector-curvature="0" /><path
         d="m 3160.32,889.551 -46.5,-41.871 174.3,-193.59 43.14,38.859 -101.76,104.199 0.78,0.704 132.43,-76.602 46.67,42.039 -174.29,193.59 -43.07,-38.789 101.25,-104.18 -0.04,-0.98 -132.91,76.621 v 0"
         style="fill:#ffffff;fill-opacity:1;fill-rule:nonzero;stroke:none"
         id="path4230"
         inkscape:connector-curvature="0" /><path
         d="m 3030.09,790.309 153.1,-210.75 49.42,35.91 -153.11,210.742 -49.41,-35.902 v 0"
         style="fill:#ffffff;fill-opacity:1;fill-rule:nonzero;stroke:none"
         id="path4232"
         inkscape:connector-curvature="0" /><path
         d="m 2954.97,520.539 c 13.01,-21.48 28.93,-34.34 47.77,-38.539 18.83,-4.211 39.77,0.539 62.84,14.262 22.96,13.949 37.14,30.308 42.54,49.07 5.39,18.758 1.66,38.93 -11.16,60.527 l -54.59,90.84 c -14.8,25.41 -31.52,41.27 -50.15,47.602 -18.66,6.328 -41.06,1.648 -67.25,-14.02 -26.09,-15.742 -40.6,-33.25 -43.5,-52.519 -2.91,-19.282 3.4,-41.403 18.91,-66.383 l 54.59,-90.84 z m -4.9,126.781 c -2.76,4.36 -5.24,9.211 -7.44,14.52 -2.23,5.301 -3.07,10.469 -2.54,15.492 0.53,5.02 3.53,9.277 9.02,12.777 5.67,3.192 10.92,3.903 15.74,2.09 4.83,-1.808 9.12,-4.879 12.91,-9.25 3.79,-4.347 6.98,-8.769 9.57,-13.238 l 55.12,-91.742 c 4.61,-7.09 7.6,-14.438 8.99,-22.059 1.38,-7.621 -1.86,-14.051 -9.69,-19.301 -8.58,-4.609 -15.8,-4.461 -21.68,0.45 -5.88,4.921 -10.84,11.089 -14.88,18.531 l -55.12,91.73 v 0"
         style="fill:#ffffff;fill-opacity:1;fill-rule:evenodd;stroke:none"
         id="path4234"
         inkscape:connector-curvature="0" /><path
         d="m 682.859,2115.92 c 0,791.45 641.561,1433.02 1432.991,1433.02 791.41,0 1432.97,-641.57 1432.97,-1433.02 0,-791.44 -641.56,-1433.029 -1432.97,-1433.029 -791.43,0 -1432.991,641.589 -1432.991,1433.029 v 0"
         style="fill:#a4262c;fill-opacity:1;fill-rule:nonzero;stroke:none"
         id="path4236"
         inkscape:connector-curvature="0" /><g
         id="g4260"><path
           style="fill:#ffffff;fill-opacity:1;fill-rule:nonzero;stroke:none;stroke-width:0.13333334"
           d="M 319.83594 122.95898 C 317.68128 123.0751 315.3975 123.93193 314.3125 125.24609 C 312.57517 127.34743 310.5761 128.51667 307.77344 128.75 C 304.9721 128.98333 301.13222 126.64792 296.46289 128.28125 C 291.79089 129.91725 293.65983 134.22276 291.92383 135.85742 C 290.18649 137.49209 288.18727 135.39076 286.08594 135.85742 C 283.98327 136.32542 280.84668 137.95805 278.27734 142.49805 C 275.70801 147.03671 279.44515 147.63581 280.14648 147.86914 C 280.14648 147.86914 291.45495 148.33779 294.12695 146.70312 C 296.79629 145.06712 292.85639 141.69639 295.76172 140.76172 C 298.66572 139.82839 303.00147 141.22826 306.60547 140.29492 C 310.20947 139.36026 308.94141 135.62305 308.94141 135.62305 C 308.94141 135.62305 311.04317 132.12093 314.3125 132.82227 C 317.58317 133.52227 321.65234 136.55859 321.65234 136.55859 C 321.65234 136.55859 328.05996 135.85722 328.5293 132.58789 C 328.99463 129.31856 325.7264 125.01133 323.28906 123.61133 C 322.37506 123.08583 321.12873 122.88931 319.83594 122.95898 z M 332.57031 124.58203 C 331.73609 124.52719 330.51273 124.83753 329.92773 126.88086 C 328.99307 130.15019 331.56403 133.52145 334.83203 134.68945 C 338.1027 135.85745 338.90495 132.82145 341.23828 134.68945 C 343.57428 136.55879 341.00658 137.49134 342.64258 140.52734 C 344.27458 143.56334 348.34776 140.06176 349.98242 142.73242 C 351.61576 145.40309 349.28226 147.40345 350.68359 150.43945 C 352.08493 153.47545 358.02539 152.64359 354.88672 154.04492 C 351.74939 155.44626 351.61677 157.78161 351.38477 160.34961 C 351.1501 162.91761 355.81914 164.18731 355.11914 166.05664 C 354.41914 167.92464 351.14912 166.29007 348.81445 167.69141 C 346.47845 169.09274 349.04938 173.86416 346.24805 174.79883 C 343.44538 175.73216 341.00709 172.83008 339.37109 172.83008 C 337.73643 172.83008 332.96543 175.7322 332.49609 178.76953 C 332.03076 181.8042 335.06774 184.94229 338.20508 185.87695 C 341.34374 186.81029 345.44538 186.11116 346.24805 183.67383 C 347.04938 181.23649 348.34759 179.70316 350.68359 178.53516 C 353.01693 177.36849 358.95713 179.4693 360.5918 176.66797 C 362.2278 173.86397 360.59271 171.42777 360.35938 170.25977 C 360.12737 169.09177 358.25785 168.62357 362.22852 166.99023 C 366.19785 165.35423 366.76683 162.44993 366.29883 158.94727 C 365.83216 155.4446 362.69518 156.61334 362.22852 154.27734 C 361.75918 151.94268 364.3308 151.13815 365.9668 149.27148 C 367.5988 147.40215 367.2348 145.06696 365.9668 142.26562 C 364.69613 139.46296 359.19206 139.82829 358.02539 139.12695 C 356.85606 138.42695 359.42597 136.32522 357.55664 132.58789 C 355.68997 128.85056 351.15029 130.38477 349.51562 130.38477 C 347.87962 130.38477 345.77764 133.98916 344.04297 131.78516 C 342.30697 129.58116 336.10364 125.0113 333.43164 124.7793 C 333.43164 124.7793 333.07084 124.61494 332.57031 124.58203 z M 316.5625 146.13086 C 316.32651 146.14285 316.07712 146.17596 315.81445 146.23438 C 311.61045 147.16904 312.91188 148.10479 310.81055 150.43945 C 308.70788 152.77545 305.67122 158.01345 306.83789 161.05078 C 308.00722 164.08545 308.94242 162.21817 310.34375 164.1875 C 311.74508 166.15817 310.10814 170.95925 311.74414 175.03125 C 313.37614 179.10325 314.88151 177.13353 317.21484 178.76953 C 319.55084 180.40286 316.98307 181.57006 319.31641 183.77539 C 321.65241 185.97806 324.2223 186.11123 328.29297 184.47656 C 332.3663 182.84056 330.39505 178.3013 328.76172 176.66797 C 327.12705 175.03197 324.45485 174.79912 322.35352 174.56445 C 320.25218 174.33245 319.08594 170.25986 319.08594 166.75586 C 319.08594 163.25319 323.75502 165.35517 324.79102 162.45117 C 325.82702 159.54717 323.52386 160.58186 323.75586 156.14453 C 323.98919 151.7072 320.71875 150.67383 320.71875 150.67383 C 320.71875 150.67383 320.10229 145.95105 316.5625 146.13086 z M 277.93945 150.85156 C 276.05862 150.89723 275.1241 151.77391 274.77344 152.64258 C 273.1761 156.60124 274.53861 160.11566 275.47461 163.48633 C 276.40794 166.85833 273.83958 168.62403 272.90625 171.19336 C 271.97158 173.76269 275.70632 178.53486 279.20898 178.76953 C 282.71298 179.00286 287.95218 176.20026 289.35352 173.29492 C 290.75485 170.39226 283.75195 166.75586 283.75195 166.75586 C 283.75195 166.75586 281.78005 165.82246 282.24805 163.95312 C 282.71471 162.08512 295.06116 158.94892 286.78516 154.04492 C 282.64716 151.59226 279.82029 150.8059 277.93945 150.85156 z M 382.56445 161.19922 C 382.24289 161.20053 381.97845 161.22461 381.81445 161.22461 C 381.15712 161.22461 381.81451 166.68081 380.33984 167.99414 C 378.86384 169.30481 372.09235 168.1582 370.29102 168.1582 C 368.48568 168.1582 368.48524 167.17287 369.14258 169.79688 C 369.79858 172.41954 378.53711 175.0918 378.53711 175.0918 C 378.53711 175.0918 379.68548 176.89377 379.52148 180.00977 C 379.35748 183.12443 377.38815 185.96156 376.52148 187.60156 C 376.47144 187.69514 376.40422 187.78263 376.33789 187.87109 L 376.16797 187.87109 C 374.84264 189.07509 372.18038 189.83331 371.48438 190.94531 C 370.66704 192.25598 373.94733 194.43707 375.75 194.92773 C 377.554 195.41973 377.92798 193.61756 378.58398 191.60156 C 378.89637 190.64342 379.39674 189.28577 379.95508 188.29492 L 379.98242 188.29492 C 380.53576 187.46692 381.12772 187.10702 381.65039 187.92969 C 381.72639 188.04969 381.79423 188.17287 381.85156 188.29688 L 382.20898 188.29688 C 382.70947 189.9552 381.84347 191.9092 380.71484 193.78125 C 379.40551 195.96125 376.94653 198.69922 378.25586 198.69922 C 379.56919 198.69922 381.37039 199.02582 383.01172 198.53516 C 384.64905 198.04316 386.1276 197.55204 387.32227 194.10938 C 388.03293 192.06537 388.07451 189.83047 387.83984 187.86914 L 387.55664 187.86914 C 387.39356 186.70795 387.15275 185.64127 386.89844 184.81445 C 386.1931 182.51845 384.60041 182.63293 383.45508 181.32227 C 382.30708 180.01027 383.29114 176.24029 383.61914 174.76562 C 383.94447 173.28829 385.42244 172.91186 386.89844 172.25586 C 390.04377 170.85853 392.51979 172.42004 394.81445 171.10938 C 397.11045 169.79737 399.6187 167.01001 398.4707 166.02734 C 397.32137 165.04334 389.40625 168.1582 389.40625 168.1582 C 389.40625 168.1582 386.94479 170.28747 386.07812 167.99414 C 385.20746 165.69814 387.10873 165.20734 385.91406 163.02734 C 385.01706 161.39234 383.52914 161.19528 382.56445 161.19922 z M 205.25977 163.26367 C 191.53686 163.34661 163.90466 173.59242 151.71289 187.86719 L 151.54883 187.86719 C 148.05283 192.09252 145.92163 196.66454 145.9043 201.42188 C 145.89496 204.00188 148.09791 208.55193 149.89258 206.69727 L 155.00586 201.41406 L 151.17773 209.87891 C 154.66973 213.99224 159.70209 217.69514 164.74609 219.61914 C 166.49676 215.25514 169.0909 209.18406 179.74023 206.02539 C 183.55757 204.89472 169.50209 202.00194 164.10742 198.22461 C 171.35542 192.96994 181.5034 198.56341 187.41406 203.33008 L 188.05078 199.50195 C 184.19878 194.62329 180.05918 190.27181 174.72852 187.86914 L 173.44531 187.86914 C 171.31311 187.03808 169.00489 186.4949 166.44531 186.36133 L 167.72266 183.63867 C 174.16399 181.84801 182.20221 183.55109 187.79688 187.73242 C 187.99554 187.88176 188.11702 188.07687 188.17969 188.29688 L 188.44141 188.29688 C 188.44732 189.47676 187.41797 191.0332 187.41797 191.0332 C 193.7273 199.10254 219.2152 198.43118 227.64453 193.58984 C 228.4672 191.83918 229.09544 189.87847 229.52344 187.86914 L 229.38867 187.86914 C 229.79752 185.80453 230.00558 183.69922 229.98438 181.72461 L 237.17188 180.44922 L 234.62109 183.63867 C 234.85709 185.01201 234.82637 186.59421 234.5957 188.29688 L 234.73828 188.29688 C 233.51661 196.30724 228.0539 206.86074 224.45703 211.8125 C 224.45703 211.8125 222.25289 210.24105 220.71289 211.01172 C 219.92622 211.40505 221.97432 216.22054 219.84766 216.42188 C 215.20499 216.86321 215.01031 224.14336 213.43164 223.94336 C 212.05697 223.77003 212.25453 218.24294 210.89453 217.71094 C 209.9132 217.32827 206.48457 214.22442 205.61523 215.09375 C 204.82857 215.88175 205.94081 219.26987 204.63281 219.42188 C 203.75281 219.52454 199.70312 213.06836 199.70312 213.06836 C 195.23912 214.07103 189.38738 211.77357 185.49805 209.87891 C 188.85805 212.60291 191.79017 217.29125 192.6875 221.53125 C 192.6875 221.53125 190.24801 222.2086 190.13867 223.44727 C 190.10052 223.86806 190.03167 224.37763 189.96094 224.88281 L 189.92188 224.88281 C 189.69121 226.47748 189.38477 228.10352 189.38477 228.10352 C 188.30877 226.86085 186.72486 225.77215 184.88086 224.88281 L 184.14453 224.88281 C 179.59601 222.87534 173.76893 221.99494 170.01953 222.80859 L 167.66016 224.88281 L 167.29492 224.88281 L 164.74609 227.12305 C 173.45543 232.06971 182.69139 244.40376 186.13672 253.62109 C 188.02739 249.11176 188.29184 238.20596 203.70117 238.14062 L 198.42773 228.40039 C 210.91481 233.20765 228.74861 231.8305 241.64844 225.20312 L 242.29492 225.20312 C 249.99092 221.09246 255.81733 215.06627 257.5 207.32227 C 258.82133 201.23827 253.27997 192.9724 249.66797 191.67773 C 248.24664 191.16707 246.02775 190.81898 245.84375 192.32031 C 245.15708 197.88031 241.17132 212.23853 235.47266 220.25586 L 230.19727 215.79297 C 246.06927 206.33964 240.87695 190.45312 240.87695 190.45312 C 243.78516 190.16017 247.14531 190.52062 249.42188 188.29883 L 249.60938 188.29883 C 249.78004 188.09616 249.94299 187.87672 250.09766 187.63672 C 253.94432 181.68339 252.0876 174.67626 253.46094 168.79492 C 241.78227 168.79492 229.53603 169.57942 218.33203 165.60742 C 218.33203 165.60742 221.88742 168.24632 222.96875 170.70898 C 224.81942 174.92632 223.35335 178.37261 221.05469 182.36328 C 219.85735 184.44328 217.05469 187.04102 217.05469 187.04102 C 220.53069 172.07035 217.09864 167.36555 211.30664 164.32422 C 209.90622 163.5888 207.82666 163.24816 205.25977 163.26367 z M 197.66211 169.02148 C 200.23737 169.00793 203.16654 169.92612 204.9707 171.18945 C 207.85737 173.20945 209.73289 176.65893 207.71289 182.43359 C 206.66748 185.41869 203.42835 187.11329 200.40234 187.86719 L 198.17969 187.86719 C 197.37435 187.94052 196.64979 187.93714 196.06445 187.86914 L 194.56836 187.86914 C 194.52611 187.8328 194.47752 187.79795 194.44922 187.75781 C 191.19189 183.10315 181.32812 178.39258 181.32812 178.39258 C 181.32812 178.39258 189.5119 173.67107 193.72656 170.17773 C 194.69806 169.37223 196.11695 169.02962 197.66211 169.02148 z M 398.63477 172.0918 C 396.8241 171.96246 395.14372 176.40309 394.65039 178.37109 C 394.15839 180.33776 394.81464 180.33789 393.66797 180.33789 C 392.51997 180.33789 388.74981 180.33802 388.25781 180.66602 C 387.76448 180.99402 387.27254 183.01008 388.42188 183.83008 C 389.56988 184.65008 396.82918 183.83033 397.97852 184.48633 C 399.12652 185.14099 400.92847 186.78296 399.61914 187.76562 C 399.56081 187.80903 399.50175 187.82935 399.44336 187.86719 L 398.62109 187.86719 C 398.29843 187.92052 397.97501 187.91447 397.65234 187.86914 L 395.92578 187.86914 C 395.82887 187.83356 395.73115 187.8018 395.63477 187.76562 C 394.32143 187.27362 392.02843 186.61744 391.37109 187.27344 C 391.10043 187.54544 390.94259 187.90087 390.91992 188.29688 L 391.1582 188.29688 C 391.1582 188.29688 391.1582 188.29883 391.1582 188.29883 C 391.23808 188.73877 391.48206 189.20177 391.91406 189.63477 C 392.89806 190.61743 395.02734 190.94562 395.02734 191.76562 C 395.02734 192.58429 394.20703 192.91406 394.20703 192.91406 C 394.20703 192.91406 390.5998 197.22347 391.0918 199.35547 C 391.5838 201.48614 392.4048 201.32195 393.7168 200.50195 C 395.02746 199.68329 395.40595 192.63465 397.86328 193.94531 C 400.32195 195.25598 401.30549 198.04492 401.79883 198.04492 C 402.29083 198.04492 410.04201 198.53673 409.38867 197.55273 C 408.73267 196.56873 401.30463 193.24169 401.14062 191.92969 C 401.06523 191.3229 401.49014 189.77552 402.25781 188.29688 C 403.15248 186.74487 404.44905 185.38875 406.01172 185.46875 C 409.12372 185.63008 410.44537 185.79287 413.60938 188.29688 L 414.39258 188.29688 C 416.20489 189.60175 416.59566 188.86607 416.50391 187.86914 L 416.21094 187.86914 C 416.13168 187.46482 416.01918 187.06396 415.89844 186.7832 C 415.40644 185.63387 408.02917 180.17408 403.0625 180.83008 C 398.09317 181.48608 401.25701 177.22405 400.76367 175.74805 C 400.27167 174.27338 400.9281 172.2558 398.63477 172.0918 z M 197.97852 173 C 196.42268 172.96433 194.97375 173.15241 194.09375 173.56641 C 192.33375 174.39441 190.47266 177.70703 190.47266 177.70703 C 190.47266 177.70703 193.57716 179.64717 194.92383 181.95117 C 196.26783 184.25517 195.4391 184.0481 197.50977 184.77344 C 199.58043 185.49744 204.47046 182.98656 205.0918 180.08789 C 205.7118 177.18922 205.11857 174.73272 202.50391 173.77539 C 201.19657 173.29606 199.53435 173.03567 197.97852 173 z M 195.54492 175.93555 C 196.55026 175.93555 197.36719 176.74857 197.36719 177.75391 C 197.36719 178.75924 196.55026 179.57617 195.54492 179.57617 C 194.53826 179.57617 193.72461 178.75924 193.72461 177.75391 C 193.72461 176.74857 194.53826 175.93555 195.54492 175.93555 z M 288.31055 179.14844 C 286.50071 179.1191 284.39826 179.46872 281.54492 180.63672 C 276.39692 182.74339 279.77895 187.40621 280.48828 188.29688 L 281.62305 188.29688 C 283.42988 188.92375 289.11134 190.99266 291.66797 193.1582 C 294.70397 195.72754 294.10463 201.89948 302.2793 202.13281 C 310.4513 202.36615 311.25586 197.92969 311.25586 197.92969 C 311.25586 197.92969 313.59004 192.22259 308.2207 189.41992 C 302.8487 186.61859 296.67578 189.41992 296.67578 189.41992 C 296.67578 189.41992 295.5622 189.23447 294.6582 187.86914 L 294.19727 187.86914 C 294.17419 187.82593 294.14953 187.79124 294.12695 187.74609 C 293.19229 185.87809 296.69489 180.6375 293.32422 179.9375 C 291.63822 179.58683 290.12038 179.17777 288.31055 179.14844 z M 318.70898 196.19531 C 316.33105 196.18411 315.09375 197.46289 315.09375 197.46289 C 315.09375 197.46289 310.32155 200.03041 313.82422 206.20508 C 317.32689 212.37841 325.00378 211.10915 329.67578 209.00781 C 338.31578 205.11848 332.00977 201.43164 332.00977 201.43164 C 332.00977 201.43164 330.14117 202.13278 324.20117 198.16211 C 321.97367 196.67311 320.13574 196.20203 318.70898 196.19531 z M 217.76172 200.24219 C 209.69372 200.55285 200.86895 202.87668 192.87695 201.02734 C 192.87695 216.66868 218.55141 203.58317 225.19141 201.8125 C 227.90874 201.0885 218.66839 200.20619 217.76172 200.24219 z M 347.18555 206.74219 C 341.4059 206.64105 331.62507 208.81883 330.99023 211.28125 C 327.90223 223.27458 340.87099 210.87727 344.59766 223.69727 C 344.73447 224.16719 344.79189 224.61438 344.80469 225.04492 C 344.6825 229.28771 339.56856 231.93827 344.76758 236.31445 C 348.86224 239.75979 357.67034 238.77167 360.76367 234.26367 C 362.19167 232.18101 362.37368 227.91348 361.65234 224.88281 L 361.55859 224.88281 C 361.38874 224.24707 361.18486 223.66047 360.93359 223.1875 C 359.28826 220.08483 352.14492 220.95973 351.40625 218.42773 C 350.47558 215.23707 357.04005 209.79317 350.38672 207.20117 C 349.64072 206.91067 348.51931 206.76553 347.18555 206.74219 z M 382.98633 215.875 C 380.67072 215.89243 378.66279 216.21383 377.4082 216.86133 C 375.01754 218.09466 373.84018 219.45667 373.35352 221.88867 C 373.15582 222.87111 373.00535 223.87338 372.88281 224.88281 L 372.83984 224.88281 C 371.33718 238.20415 375.86523 253.02539 375.86523 253.02539 C 374.38657 251.22672 369.79949 248.65931 366.04883 250.05664 C 361.53283 251.74064 358.76187 257.3516 361.2832 261.46094 C 363.02587 264.3076 366.36274 264.27566 369.08008 264.98633 C 366.93943 268.8813 363.55454 273.6082 359.49023 278.11133 L 359.39648 278.11133 C 346.35782 292.51799 326.4142 304.58623 318.1582 279.85156 C 318.28567 279.34671 318.42525 278.79256 318.56641 278.21875 L 318.59375 278.21875 C 319.56842 274.26008 320.50594 269.1051 316.58594 267.39844 C 314.87527 266.65177 313.58255 266.4182 311.81055 267.01953 C 309.49588 267.80753 307.7793 271.83008 307.7793 271.83008 C 307.7793 271.83008 304.3896 269.95964 302.57227 270.93164 C 300.9416 271.80631 300.31641 275.10352 300.31641 275.10352 C 300.40841 276.15018 300.53131 277.19013 300.69531 278.2168 L 300.71484 278.2168 C 302.35195 288.347 307.57442 297.29709 317.83789 302.53711 C 326.41389 306.91311 334.30193 303.4396 342.44727 304.46094 C 325.92593 315.18494 320.69649 311.10929 306.17383 301.89062 C 306.17383 301.89062 305.33823 305.33598 305.85156 307.44531 C 307.13556 312.71731 309.91804 317.21006 313.2207 320.77539 L 313.32031 320.77539 C 315.75366 323.38123 318.45778 325.49063 321.05078 327.03906 C 328.78811 328.9044 345.81513 327.51852 345.3418 325.11719 C 344.9098 322.93585 341.0172 322.46192 337.39453 320.66992 L 337.19922 320.66992 C 335.79475 319.95423 334.43947 319.03933 333.35547 317.73242 C 361.27147 322.46976 370.98619 303.47149 380.74219 290.54883 C 383.81152 286.48483 390.1343 289.40141 390.1543 293.44141 C 390.28299 318.98664 366.17618 318.32686 349.46094 320.67188 L 348.68359 320.67188 C 348.12626 320.75454 347.5764 320.83964 347.03906 320.93164 C 350.68573 324.25031 359.30837 324.02648 363.8457 324.14648 C 370.55229 324.32259 377.8356 323.34052 383.81445 320.77539 L 384.08008 320.77539 C 387.99608 319.05139 391.3284 316.63639 393.53906 313.40039 C 400.40173 303.34972 401.94151 288.83338 401.21484 278.10938 L 401.20508 278.10938 C 400.67095 270.38681 398.96232 264.65125 397.22266 264.01562 C 392.46246 262.27004 385.21125 269.73391 378.04492 278.10742 L 377.94922 278.10742 C 371.30389 285.87809 364.74069 294.40417 360.30469 297.07617 C 359.12069 297.78951 356.77539 297.39062 356.77539 297.39062 C 357.35872 291.06547 362.96396 284.39775 369.99805 278.2168 L 370.11523 278.2168 C 379.44323 270.05146 391.24328 262.75161 397.22461 258.23828 C 400.96461 253.16895 394.36728 247.69558 392.72461 243.26758 C 398.17794 243.38091 408.58331 243.81897 412.19531 248.18164 C 409.08065 247.91764 404.03703 248.48622 401.81836 251.07422 C 410.94636 255.94222 419.76202 268.2008 426.16602 278.2168 L 426.23438 278.2168 C 427.62931 280.40057 428.91567 282.48424 430.05664 284.34961 C 429.30197 282.38428 428.50346 280.28938 427.7168 278.10938 L 427.67969 278.10938 C 424.39922 268.98897 421.32689 258.3831 422.25 249.4668 L 424.17773 249.4668 C 425.20573 258.7348 428.92593 269.42613 432.94727 278.2168 L 432.99609 278.2168 C 436.54713 285.96845 440.32385 292.23543 442.68359 294.72656 C 443.37826 295.46123 444.36324 295.52749 445.25391 295.04883 C 448.83257 293.13283 451.77539 287.33398 451.77539 287.33398 C 451.95539 284.88198 452.19538 281.50538 451.99805 278.10938 L 451.99023 278.10938 C 451.57736 271.30278 449.38431 264.47573 441.39648 264.98633 C 440.65648 260.37966 438.86855 243.50653 435.19922 246.25586 L 431.3418 249.14648 C 431.3418 249.14648 432.1381 244.913 431.02344 242.625 C 430.38477 241.31967 429.7764 240.68176 428.67773 239.73242 C 426.2524 237.63909 417.91091 239.23558 412.51758 238.76758 C 414.35891 236.75024 416.77804 234.5692 419.35938 233.5332 C 417.84604 228.46654 412.98183 226.02281 408.3125 224.88281 L 406.82422 224.88281 C 405.47304 224.62503 404.17013 224.46494 403.00977 224.375 C 399.42023 224.09791 396.23241 224.28745 393.65039 224.88086 L 392.42188 224.88086 C 388.72454 226.01286 386.59432 228.10822 386.84766 230.96289 C 387.14366 234.31089 390.19514 235.78727 391.11914 238.44727 L 389.19141 239.08984 C 386.09141 235.78184 382.08317 231.95787 383.3125 226.7832 C 383.4573 226.17027 383.61448 225.67547 383.79688 225.20508 L 383.91797 225.20508 C 384.16597 224.64374 384.47726 224.11194 384.91992 223.47461 C 387.92526 219.14661 393.77756 219.85945 397.96289 219.93945 C 394.66106 217.2692 388.08067 215.83665 382.98633 215.875 z M 256.66602 217.17578 C 254.67533 217.21009 252.95898 219.29297 252.95898 219.29297 C 251.08077 221.37932 249.11771 223.21583 247.10547 224.88086 L 246.72461 224.88086 C 235.21394 234.24086 222.03992 237.85661 212.41992 246.86328 C 211.85859 247.38861 211.36476 249.01783 212.10742 248.8125 C 222.93942 245.8085 236.62265 246.18971 242.58398 248.48438 C 249.29172 247.73013 259.97764 234.73558 261.04102 225.20312 L 261.08008 225.20312 C 261.34008 222.30046 260.67665 219.73923 258.69531 217.97656 C 258.02431 217.38023 257.32958 217.16434 256.66602 217.17578 z M 343.54688 239.4707 C 341.04464 239.45249 339.05276 239.89513 338.30859 240.9043 C 336.78859 242.96963 337.12109 247.37109 337.12109 247.37109 C 333.68109 252.93376 325.89163 255.36042 322.6543 258.59375 C 321.64096 259.60175 321.46872 274.8728 322.27539 278.2168 L 322.30078 278.2168 C 322.30188 278.22115 322.30362 278.22621 322.30469 278.23047 C 322.81535 280.09847 327.08203 279.58789 327.08203 279.58789 C 327.08203 279.58789 331.80778 279.69545 335.2832 278.2168 L 335.56445 278.2168 C 336.52312 277.77546 337.36804 277.20422 337.9707 276.46289 C 347.49604 264.71756 363.8216 250.77101 359.57227 245.15234 C 357.02118 241.78084 349.05178 239.51076 343.54688 239.4707 z M 258.14844 243.13477 C 252.87777 250.6281 236.66009 264.15958 226.85742 262.26758 C 226.85742 262.26758 226.51162 260.72565 227.51562 260.32031 C 234.46629 257.51231 245.81573 252.46178 241.92773 250.92578 C 240.67707 250.42978 201.17915 248.15021 195.39648 262.43555 C 195.10182 263.16088 217.63987 262.70927 214.5332 265.83594 C 211.38491 269.00551 188.41803 263.15949 180.37891 278.11133 L 180.31641 278.11133 C 180.09241 278.53533 179.88093 278.97369 179.68359 279.42969 C 179.68359 279.42969 178.60037 282.58843 179.3457 284.37109 C 180.49104 287.11509 186.32031 287.45508 186.32031 287.45508 C 187.83231 288.84708 186.88881 289.93151 185.49414 291.32617 C 180.42347 286.52751 174.45005 292.69587 171.99805 299.67188 C 170.13306 304.98278 168.8305 312.59878 168.38477 320.66797 L 168.37695 320.66797 C 167.70095 333.0893 169.05439 346.55836 173.51172 354.31836 C 175.07572 357.04103 177.86179 360.67727 182.20312 363.33594 L 182.39258 363.33594 C 186.19346 365.61854 191.15514 367.1487 197.50977 366.68945 C 197.89777 366.66012 196.33289 364.96852 194.71289 363.22852 L 194.61328 363.22852 C 193.58794 362.12722 192.55477 361.02025 191.99609 360.31836 C 188.46143 355.87703 185.24346 350.80855 183.07812 345.56055 C 179.98559 338.07155 178.69228 329.2525 179.54688 320.77539 L 179.55664 320.77539 C 180.88597 307.86472 187.20996 295.763 199.7793 290.375 C 205.98863 287.71367 188.5631 307.77516 187.64844 309.67383 C 186.10072 312.89086 184.69634 316.73733 183.93164 320.67188 L 183.91016 320.67188 C 183.09282 324.93854 183.03633 329.30284 184.375 333.07617 C 184.755 334.14684 189.28288 341.38027 191.18555 340.21094 L 191.24023 339.61523 C 191.96736 331.61553 192.49945 325.95638 194.29688 320.77539 L 194.33008 320.77539 C 196.15674 315.57272 199.27559 310.84189 205.18359 304.69922 L 217.88477 291.02344 C 218.24877 290.64344 221.44865 287.16115 220.69531 286.64648 C 219.41665 285.76648 209.04176 291.10324 208.37109 288.75391 C 207.58976 286.02191 219.67 282.59679 224.75 283.07812 C 227.61397 281.47103 228.26766 280.70239 230.00586 278.2168 L 230.06641 278.2168 C 230.06782 278.20235 230.04198 278.19118 230.03516 278.17773 C 230.03984 278.17103 230.04218 278.16688 230.04688 278.16016 C 230.05888 278.14416 230.06507 278.12671 230.06641 278.10938 L 229.98047 278.10938 C 229.21292 277.67055 223.2676 277.88488 218.83203 278.10742 L 216.66406 278.10742 C 215.0694 278.19809 213.99414 278.26758 213.99414 278.26758 C 209.24614 278.61291 204.07254 279.02679 199.42188 280.18945 C 196.93121 280.81212 195.14335 281.68246 192.80469 282.5918 C 186.34585 285.10415 191.26872 281.19142 196.79492 278.21484 L 196.98242 278.21484 C 199.35042 276.95351 201.80515 275.87779 203.50781 275.56445 C 210.60115 274.25912 222.43966 273.84747 235.98633 274.35547 C 247.75699 270.42614 260.41644 262.83743 258.14844 243.13477 z M 115.49805 248.87109 C 114.91365 249.26043 120.37405 252.73307 121.82031 257.06641 C 122.07658 257.83574 121.92188 259.14453 121.92188 259.14453 C 121.97294 260.14986 107.2188 250.55283 107.53906 257.6875 C 113.4792 262.39683 117.20008 269.45739 120.72461 276.02539 C 122.85221 272.92672 123.53516 270.32138 123.53516 266.60938 C 123.53516 266.27471 123.42093 264.15784 124.4668 264.08984 C 125.3256 264.03384 126.03125 265.64844 126.03125 265.64844 C 126.42166 268.34688 125.18353 273.46422 123.375 278.11133 L 123.33594 278.11133 C 121.02234 284.01666 117.79081 289.12218 115.81055 287.46484 C 116.00948 284.40618 115.41931 281.14938 114.44531 278.10938 L 114.40625 278.10938 C 112.32411 271.68668 108.5592 266.26215 107.00195 265.80078 C 106.75915 265.72745 106.8748 270.77546 107.35547 278.2168 L 107.36328 278.2168 C 108.07789 289.25917 109.58887 305.50879 111.91016 318.12891 C 112.38309 320.69824 118.38186 314.86033 120.25586 308.375 C 123.1171 305.01157 121.76815 315.37315 120.98828 320.66992 L 120.97461 320.66992 C 120.73661 322.28726 120.55209 323.41033 120.56836 323.48633 C 130.38023 334.69833 140.50462 346.15879 148.50195 359.68945 L 152.63672 361.56055 C 164.01939 361.19788 170.49695 331.43659 157.87695 320.66992 L 157.73828 320.66992 C 154.79699 318.21975 150.84367 316.78037 145.69531 316.95898 C 147.11398 318.20965 148.4494 319.47672 149.66406 320.77539 L 149.75781 320.77539 C 155.07633 326.50772 158.0462 332.91058 155.60352 341.58789 C 154.74485 345.36122 149.88871 331.04652 149.35938 330.11719 C 145.55137 323.43452 143.70895 322.55792 142.23828 320.66992 L 142.16211 320.66992 C 140.84624 318.93441 139.81175 316.28349 137.89062 307.69922 C 137.11862 304.24455 134.87466 300.23538 132.03906 297.99805 C 130.29173 296.62071 123.0179 294.63144 124.1543 294.02344 C 128.05075 291.94034 132.68968 285.56971 135.0625 278.2168 L 135.09961 278.2168 C 138.91961 266.25146 136.70231 251.73776 115.49805 248.87109 z M 262.40039 262.40625 C 260.77122 262.44558 259.13989 262.67642 257.69922 262.98242 C 252.77298 268.08474 247.8608 273.20069 242.71289 278.11133 L 242.60352 278.11133 C 235.36352 285.00999 227.6531 291.49994 218.75977 296.97461 C 218.75977 296.97461 218.94626 297.81919 220.54492 297.86719 C 228.83159 298.10585 261.45828 282.81293 262.09961 279.32227 C 262.169 278.94244 262.21097 278.57485 262.24219 278.21484 L 262.25586 278.21484 C 262.51586 274.90151 261.35773 272.29584 262.03906 269.20117 C 262.5804 266.75184 264.95869 265.93372 266.69336 264.76172 L 267.08789 262.98242 C 265.65589 262.51909 264.02956 262.36692 262.40039 262.40625 z M 357.58398 262.60156 C 356.69468 262.63905 355.70185 263.11287 354.80469 264.37695 C 353.34065 266.43853 347.40083 272.44999 342.41992 278.10938 L 342.32227 278.10938 C 337.69693 283.37338 333.93326 288.30974 335.41992 289.45508 C 339.92703 291.44925 349.47824 285.38861 355.52734 278.21484 L 355.61914 278.21484 C 359.84581 273.16551 362.31865 267.58185 360.08398 263.86719 C 359.70073 263.22594 358.72737 262.55336 357.58398 262.60156 z M 275.01953 266.81445 L 273.88477 267.46484 C 271.5523 271.17066 269.72969 274.71497 268.40625 278.10742 L 268.35938 278.10742 C 261.60604 295.52076 268.2027 308.86203 288.4707 319.08203 C 288.55337 311.85936 281.49905 305.61642 277.12305 300.59375 C 278.46971 292.49908 278.8614 285.41071 277.80273 278.10938 L 277.78516 278.10938 C 277.24724 274.45185 276.34661 270.73628 275.01953 266.81445 z M 287.2207 268.67773 C 286.79368 268.70209 286.34603 268.77826 285.88086 268.91992 C 283.78353 269.55859 282.30329 270.86184 282.14062 273.45117 C 281.88996 274.88984 281.90966 276.5128 282.09766 278.2168 L 282.11328 278.2168 C 282.81179 284.3148 285.63089 291.45784 285.88672 295.23828 C 286.48539 304.15561 291.03422 314.13006 298.07422 320.77539 L 298.19141 320.77539 C 303.14275 325.40447 309.3113 328.39075 316.20312 328.21875 C 313.47912 325.52408 311.24997 323.01926 309.41797 320.66992 L 309.33789 320.66992 C 295.64289 303.02006 304.53418 294.14222 296.69141 278.10938 L 296.63672 278.10938 C 295.52345 275.85025 294.08237 273.45027 292.19531 270.86328 C 292.19531 270.86328 290.20983 268.50726 287.2207 268.67773 z M 259.57422 285.22656 C 251.28222 291.2199 246.13418 307.51806 247.46484 320.77539 L 247.47852 320.77539 C 248.21235 327.88683 250.8124 334.11388 255.80469 337.38281 L 255.24023 338.52734 C 251.58823 337.67401 247.80678 335.34133 245.05078 332.86133 C 244.02678 340.69466 252.08062 346.6424 257.50195 350.78906 L 255.42773 352.29688 L 250.70508 351.54297 C 252.89041 364.61764 276.40507 363.73559 285.42773 361.54492 C 286.05573 362.19692 286.70495 362.7946 287.37695 363.33594 L 287.51953 363.33594 C 292.79379 367.50583 299.39636 368.135 307.07812 363.33594 L 307.25781 363.33594 C 309.74981 361.75594 312.35521 359.60112 315.06055 356.81445 C 317.84455 353.94645 330.25778 351.24831 334.28711 346.82031 C 293.62044 344.81898 290.25368 355.92235 262.79102 321.54102 C 274.66968 329.70768 304.01917 357.33305 324.95117 334.37305 C 327.52851 331.54638 303.38588 337.77877 295.92188 331.77344 C 291.15121 327.9361 286.60467 324.16992 282.25 320.66992 L 282.11523 320.66992 C 273.94577 314.10777 266.44193 308.47584 259.38672 305.03906 C 258.60405 298.62973 258.80615 291.30123 261.27148 285.22656 L 259.57422 285.22656 z M 431.49219 293.79102 C 430.28402 293.79348 428.85536 294.28693 428.20703 294.87109 C 427.17103 295.80576 427.97214 304.54682 426.10547 310.02148 C 424.36596 315.11709 423.61854 315.80669 419.37891 320.66992 L 419.28711 320.66992 C 419.00578 320.99126 418.70972 321.33069 418.40039 321.69336 C 413.26172 327.63336 418.06445 330.66797 418.06445 330.66797 L 436.01562 350.49023 L 443.12305 334.40625 C 443.12305 334.40625 430.8791 328.33382 429.00977 325.89648 C 427.14177 323.45915 429.70898 324.26172 429.70898 324.26172 L 444.52539 330.20117 L 447.13086 320.77539 L 447.16016 320.77539 L 448.26172 316.79297 C 448.26172 316.79297 438.5831 315.85931 437.64844 313.05664 C 436.71377 310.25531 439.15234 310.7207 439.15234 310.7207 L 449.19531 314.45703 L 451.40039 300.34375 C 451.40039 300.34375 447.79368 297.54193 444.29102 297.30859 C 440.78835 297.07393 434.38086 297.54102 434.38086 297.54102 C 434.38086 297.54102 434.14756 295.57034 433.21289 294.40234 C 432.86339 293.96434 432.21709 293.78954 431.49219 293.79102 z M 242.92383 296.50195 C 238.25691 296.66226 219.45954 302.17227 217.04688 311.88477 C 217.10154 314.49677 219.69969 317.68739 223.17969 320.77539 L 223.30273 320.77539 C 230.49321 327.11779 241.31829 333.00336 241.32227 332.52734 C 241.34474 329.18365 241.56963 325.04245 241.87891 320.77539 L 241.88477 320.77539 C 242.66477 310.04739 243.97542 298.53834 243.96875 296.76367 C 243.96775 296.56484 243.59053 296.47905 242.92383 296.50195 z M 382.89062 299.5293 C 382.50056 299.51388 382.04688 299.61014 381.53125 299.83789 C 378.04192 301.37789 358.30847 314.2832 371.98047 314.2832 C 373.5538 314.2832 374.43534 313.95449 375.88867 313.42383 C 384.53309 310.26404 386.66126 299.67835 382.89062 299.5293 z M 164.32422 301.19727 C 162.41447 301.26795 158.28886 302.37666 156.88086 308.09766 C 155.42353 314.01366 158.9271 320.7873 164.50977 320.2793 C 165.18043 320.21796 161.62583 308.49851 165.3125 301.33984 C 165.35117 301.26518 164.9608 301.1737 164.32422 301.19727 z M 209.2207 309.26953 C 205.41345 309.14335 201.76385 314.28849 199.08008 320.66797 L 199.03125 320.66797 C 194.52592 331.44664 192.78303 345.67534 197.70703 344.02734 C 203.3457 345.56068 201.24948 359.17694 203.02148 362.09961 C 203.24415 362.46628 203.61666 362.8826 204.11133 363.33594 L 204.23828 363.33594 C 208.90721 367.52083 223.32001 374.57679 222.66016 372.37109 C 221.64016 368.96309 221.03475 365.92452 220.71875 363.22852 L 220.70898 363.22852 C 219.34691 351.38057 223.55689 346.19511 222.45898 345.4707 C 218.61898 342.9387 210.76698 335.43206 209.45898 328.66406 C 208.93965 325.97928 208.97202 323.27602 209.23633 320.77734 L 209.24609 320.77734 C 209.89276 314.83868 211.85181 310.10344 210.86914 309.66211 C 210.31814 309.41444 209.76774 309.28766 209.2207 309.26953 z M 214.54688 320.57617 C 214.5131 320.55899 214.46403 320.61271 214.41211 320.67188 L 214.32227 320.67188 C 214.15693 320.92254 213.97852 321.31055 213.97852 321.31055 C 213.56785 340.35721 221.73512 338.29431 232.56445 350.43164 C 231.54179 354.17431 229.36256 357.55536 230.08789 361.58203 C 230.08789 361.58203 230.34215 362.58701 231.63281 362.51367 C 232.31815 362.47501 240.46545 357.71202 244.18945 352.91602 C 245.55745 351.15602 245.41992 347.33398 245.41992 347.33398 C 244.50259 332.39665 216.60767 327.30592 214.625 320.66992 L 214.5957 320.66992 C 214.59375 320.66219 214.59172 320.65422 214.58984 320.64648 C 214.58018 320.60748 214.56465 320.58521 214.54688 320.57617 z M 408.29688 320.91602 C 397.43687 328.99868 375.23543 330.10232 362.24609 329.34766 C 363.56076 334.30099 375.48736 338.01356 380.08203 338.10156 C 382.89936 336.48023 386.03411 335.1136 389.16211 334.21094 C 389.16211 334.21094 391.46554 333.98061 392.4082 334.86328 C 393.7962 336.15928 392.08008 339.72461 392.08008 339.72461 C 386.36541 352.27261 376.26351 353.78703 366.46484 357.56836 C 365.35018 357.99769 365.55823 359.27666 365.49023 360.47266 C 365.37557 362.52466 373.91361 362.44317 377.48828 361.45117 C 376.47242 362.05968 375.52259 362.64578 374.61719 363.22852 L 374.44336 363.22852 C 366.51669 368.34852 362.59373 372.88293 358.67773 383.07227 C 369.32709 383.32478 384.99959 374.29775 394.42188 363.33398 L 394.51758 363.33398 C 399.15491 357.90732 402.2557 352.01249 402.45703 346.53516 C 399.2717 349.44849 395.52054 353.93464 390.7832 353.66797 C 398.85654 343.55464 409.86621 335.23468 408.29688 320.91602 z M 343.43555 339.07422 C 343.43555 339.07422 343.49372 340.68273 343.76172 341.66406 C 345.64439 348.6174 371.04031 355.57986 382.68164 345.89453 C 385.68431 343.39453 383.97266 341.02148 383.97266 341.02148 C 371.29399 338.25748 353.16488 340.37289 343.43555 339.07422 z M 267.20312 342.53711 C 268.68713 342.40111 298.86797 354.9371 304.66797 354.39844 C 310.4653 353.85844 306.29077 356.28516 304.13477 356.28516 C 301.97477 356.28516 289.57795 354.9373 288.36328 354.66797 C 287.14995 354.39864 293.48746 358.97755 293.2168 360.32422 C 292.94613 361.67355 293.48761 362.07773 291.59961 361.53906 C 289.71161 360.99906 278.99826 355.10113 261.68359 353.45312 C 256.01959 352.91446 275.28407 352.24068 273.94141 351.02734 C 272.59874 349.81401 266.79977 346.31193 266.25977 344.55859 C 265.7211 342.80659 267.20312 342.53711 267.20312 342.53711 z M 244.4707 362.23438 C 243.8197 362.25727 243.31223 362.33899 242.97656 362.48633 C 243.11256 362.77699 243.25434 363.05994 243.40234 363.33594 L 243.46289 363.33594 C 250.58183 376.54228 270.99683 375.13015 282.7793 370.11719 C 278.39263 369.10519 263.848 365.17385 253.5 363.22852 L 252.87695 363.22852 C 249.3367 362.58091 246.31126 362.16964 244.4707 362.23438 z M 235.22656 365.25391 C 234.05548 365.23791 232.80027 365.42431 231.69727 365.94531 C 227.12793 368.10398 223.40734 373.81691 225.52734 377.76758 C 227.30868 381.08358 232.65025 380.55778 235.90625 377.28711 C 239.10492 374.06978 240.40863 368.07759 239.2793 366.43359 C 238.89513 365.87359 237.17837 365.28057 235.22656 365.25391 z M 393.05273 369.45117 C 382.10207 379.79784 373.91939 381.93792 366.13672 384.53125 C 356.09672 387.87792 349.18705 401.42359 349.76172 402.04492 C 351.86839 404.31426 361.15804 396.85103 363.2207 396.20703 C 364.39537 395.83903 366.63895 398.68233 365.48828 399.125 C 360.46295 403.341 347.4907 406.42182 347.9707 408.53516 C 348.36537 410.27516 358.52597 411.93823 363.05664 409.99023 C 364.71797 408.13157 366.88997 406.50178 369.05664 405.28711 L 368.73242 407.39453 C 364.45109 414.44386 353.19559 417.12205 345.54492 416.63672 C 334.84492 407.39405 309.38598 414.85311 316.19531 439.17578 C 317.20865 438.85711 322.52261 423.44629 337.11328 421.01562 C 337.72261 422.39296 334.43028 424.05634 331.59961 427.01367 C 327.51694 431.27927 326.69398 437.70198 328.19531 443.22852 C 332.08598 442.58052 335.02305 441.84295 337.76172 439.98828 C 337.71772 438.38148 338.60602 426.72772 342.30469 428.15039 L 341.97656 430.58203 L 341.49023 439.66016 C 349.3609 437.72269 357.9164 431.8544 364.67773 427.5 C 364.14573 426.67333 362.54599 424.62094 367.11133 422.96094 C 369.06199 422.2516 376.19541 412.94742 376.19141 404.96875 C 376.19141 403.01675 384.21789 395.63883 382.83789 393.9375 C 379.81122 395.65883 368.97749 399.44982 372.29883 395.39648 C 382.52949 391.77382 392.36473 380.41517 393.05273 369.45117 z M 206.03125 372.35156 C 200.01658 379.08756 206.34375 383.24924 206.34375 385.64258 C 206.34375 389.48924 198.70216 382.60652 198.04883 383.97852 C 197.22616 385.70652 198.07929 392.74841 201.14062 396.95508 C 206.36863 404.14041 223.35352 402.02734 223.35352 402.02734 C 224.02952 401.85668 225.50328 401.73046 225.22461 401.0918 L 222.41797 399.87109 C 221.64197 399.58176 207.57082 393.57529 215.16016 393.00195 C 219.97082 392.63929 228.83062 394.05869 231.75195 388.55469 C 223.14529 385.28802 212.24992 379.3689 206.03125 372.35156 z M 167.38086 395.86523 C 164.78068 395.92675 162.19711 396.61521 159.69336 398.09375 L 158.01953 400.17383 L 162.14453 404.42578 L 162.51562 404.30273 C 165.17029 403.29473 168.78068 402.04589 171.66602 403.19922 C 172.46335 403.51789 174.82886 405.25834 173.38086 406.26367 L 164.47461 406.87695 L 172.64453 412.71875 C 180.5472 411.86542 192.49435 416.06301 177.17969 416.15234 L 196.0957 428.85742 C 196.0957 428.85742 198.95643 428.33039 200.00977 427.01172 C 200.82577 425.99039 201.08203 423.83203 201.08203 423.83203 C 195.95203 413.46853 181.42183 395.53303 167.38086 395.86523 z M 197.95117 400.60547 C 196.6626 400.57107 195.2248 401.22437 193.67773 402.85938 C 193.67773 402.85938 191.51134 404.82347 191.38867 406.49414 C 191.18867 409.23681 196.48633 411.36523 196.48633 411.36523 C 208.17612 426.72055 205.82579 400.8157 197.95117 400.60547 z M 226.48633 405.33398 C 224.10452 405.3948 219.86623 406.98503 218.99023 407.83203 C 215.7009 411.0147 215.92044 417.20344 215.14844 418.02344 C 214.76844 418.42744 195.7489 420.03685 205.99023 430.74219 C 210.56223 431.28232 215.66415 430.43689 220.38281 430.67969 C 220.38281 430.67969 223.3688 431.32369 224.2168 430.17969 C 225.53546 428.40235 223.33093 418.28172 224.93359 412.26172 C 225.25493 411.05639 228.47397 406.76852 228.05664 405.86719 C 227.86897 405.46319 227.28027 405.31371 226.48633 405.33398 z "
           transform="matrix(7.4999999,0,0,-7.4999999,0,4231.8)"
           id="path4238" /></g><path
         d="m 2023.91,522.699 h 186.3 c 0,-200.027 -0.02,-321.5 0,-370.09 h -186.32 c 0.01,53.153 0.02,178.563 0.02,370.09 v 0"
         style="fill:#fff533;fill-opacity:1;fill-rule:nonzero;stroke:none"
         id="path4250"
         inkscape:connector-curvature="0" /><path
         d="m 1838.32,522.699 h 185.11 c 0,-196.758 0.01,-318.347 0.03,-370.09 h -185.14 v 370.09"
         style="fill:#264a90;fill-opacity:1;fill-rule:nonzero;stroke:none"
         id="path4252"
         inkscape:connector-curvature="0" /><path
         d="M 2043.91,401.211 V 273.719 l 25.16,43.75 h 27.79 v -26.278 l -44.87,-26.671 h 129.37 l -44.51,25.91 v 27.039 h 28.92 l 24.42,-43.75 v 127.492 l -23.68,-42.609 h -29.66 v 27.777 l 44.51,24.41 h -129.37 l 44.87,-24.41 v -27.777 h -28.54 l -24.41,42.609 v 0"
         style="fill:#ed1c24;fill-opacity:1;fill-rule:nonzero;stroke:none"
         id="path4254"
         inkscape:connector-curvature="0" /><path
         d="m 2107.94,386.379 h 15.21 v -40.738 h 40.75 V 330.43 h -40.75 v -40.75 h -15.21 v 40.75 h -40.74 v 15.211 h 40.74 v 40.738"
         style="fill:#ffffff;fill-opacity:1;fill-rule:nonzero;stroke:none"
         id="path4256"
         inkscape:connector-curvature="0" /><path
         d="m 2210.21,522.699 h 185.01 c 0,-196.758 0.02,-318.347 0.02,-370.09 h -185.03 v 370.09"
         style="fill:#264a90;fill-opacity:1;fill-rule:nonzero;stroke:none"
         id="path4258"
         inkscape:connector-curvature="0" /></g></g></svg>
