<?xml version="1.0" encoding="UTF-8" standalone="no"?>
<!-- Created with Inkscape (http://www.inkscape.org/) -->

<svg
   id="svg4136"
   version="1.1"
   xml:space="preserve"
   width="564.22668"
   height="564.23999"
   viewBox="0 0 528.96252 528.97498"
   xmlns="http://www.w3.org/2000/svg"
   xmlns:svg="http://www.w3.org/2000/svg"
   xmlns:rdf="http://www.w3.org/1999/02/22-rdf-syntax-ns#"
   xmlns:cc="http://creativecommons.org/ns#"
   xmlns:dc="http://purl.org/dc/elements/1.1/"><metadata
     id="metadata4142"><rdf:RDF><cc:Work
         rdf:about=""><dc:format>image/svg+xml</dc:format><dc:type
           rdf:resource="http://purl.org/dc/dcmitype/StillImage" /></cc:Work></rdf:RDF></metadata><defs
     id="defs4140" /><g
     id="g4144"
     transform="matrix(1.25,0,0,-1.25,0,528.975)"><g
       id="g4146"
       transform="scale(0.1)"><path
         d="m 0,2115.92 c 0,1168.6 947.273,2115.91 2115.85,2115.91 1168.55,0 2115.84,-947.31 2115.84,-2115.91 C 4231.69,947.32 3284.4,0 2115.85,0 947.273,0 0,947.32 0,2115.92 v 0"
         style="fill:#231f20;fill-opacity:1;fill-rule:nonzero;stroke:none"
         id="path4148" /><path
         d="m 1235.43,653.992 30.36,-18.242 -75.32,-90.961 -0.6,0.352 z m 91.98,57.34 -32.37,-39.711 -41.08,24.68 18.68,47.937 -52.99,31.852 -85.64,-252.442 63.11,-37.918 182.98,193.942 -52.69,31.66 v 0"
         style="fill:#ffffff;fill-opacity:1;fill-rule:evenodd;stroke:none"
         id="path4150" /><path
         d="m 1153.42,714.359 16.72,22.211 c 7.05,9.25 11.34,19.489 12.9,30.711 1.54,11.219 -0.54,22.778 -6.24,34.699 -5.72,11.911 -15.94,23.52 -30.69,34.852 -20.4,15.219 -39.94,21.547 -58.64,18.977 -18.69,-2.571 -35.64,-13.86 -50.84,-33.86 -9.34,-12.488 -15.39,-23.801 -18.12,-33.929 -2.74,-10.141 -3.17,-19.911 -1.29,-29.321 1.87,-9.429 5,-19.238 9.37,-29.469 4.37,-10.218 9.03,-21.628 13.96,-34.238 2.55,-6.922 3.73,-13.351 3.55,-19.254 -0.17,-5.918 -2.86,-11.707 -8.06,-17.367 -4.07,-4.211 -8.46,-6.473 -13.2,-6.801 -4.72,-0.34 -9.46,1.559 -14.21,5.7 -6.94,6.761 -8.857,13.859 -5.72,21.289 3.13,7.421 7.2,14.363 12.21,20.82 l -44.917,33.84 c -16.055,-19.129 -23.473,-38.821 -22.265,-59.047 1.21,-20.231 12.328,-38.543 33.332,-54.953 19.07,-14.34 37.74,-20.637 56,-18.879 18.26,1.742 34.86,12.332 49.8,31.75 6.82,9.109 11.52,17.969 14.14,26.551 2.61,8.578 3.63,17.16 3.09,25.738 -0.68,8.672 -2.49,17.531 -5.46,26.562 -2.96,9.039 -6.6,18.52 -10.93,28.418 -3.98,8.7 -7.02,17.43 -9.12,26.18 -2.09,8.75 -0.11,17.492 5.96,26.242 4.1,5.508 9.01,9.309 14.74,11.41 5.72,2.098 11.5,1.11 17.33,-2.941 7.46,-5.93 10.94,-12.09 10.45,-18.488 -0.5,-6.391 -3.16,-12.614 -7.96,-18.641 l -11.08,-14.711 45.19,-34.051 v 0"
         style="fill:#ffffff;fill-opacity:1;fill-rule:nonzero;stroke:none"
         id="path4152" /><path
         d="m 1000.47,832.18 19.31,19.992 c 8.11,8.34 13.63,17.976 16.54,28.93 2.9,10.937 2.24,22.668 -1.97,35.187 -4.22,12.52 -12.95,25.301 -26.21,38.332 -18.382,17.598 -37.019,26.258 -55.882,25.988 -18.879,-0.269 -37.07,-9.41 -54.59,-27.41 -10.805,-11.258 -18.176,-21.75 -22.133,-31.48 -3.941,-9.707 -5.555,-19.36 -4.844,-28.938 0.704,-9.582 2.61,-19.711 5.704,-30.39 3.097,-10.68 6.332,-22.571 9.691,-35.68 1.68,-7.18 2.066,-13.699 1.18,-19.551 -0.899,-5.851 -4.278,-11.269 -10.125,-16.25 -4.543,-3.68 -9.192,-5.398 -13.926,-5.14 -4.738,0.242 -9.199,2.699 -13.402,7.378 -6.083,7.563 -7.11,14.832 -3.094,21.821 4.011,7.011 8.894,13.39 14.648,19.179 l -40.449,39.071 c -18.273,-17.028 -28.035,-35.668 -29.297,-55.887 -1.262,-20.242 7.539,-39.773 26.399,-58.613 17.175,-16.559 34.941,-25.078 53.269,-25.571 18.34,-0.488 36.106,8.012 53.301,25.461 7.883,8.211 13.633,16.422 17.265,24.629 3.641,8.203 5.711,16.594 6.211,25.16 0.379,8.692 -0.339,17.711 -2.175,27.032 -1.848,9.34 -4.309,19.179 -7.395,29.539 -2.891,9.133 -4.844,18.16 -5.859,27.09 -1.016,8.953 2.019,17.39 9.101,25.332 4.746,4.961 10.086,8.14 16.028,9.531 5.945,1.379 11.55,-0.301 16.836,-5.043 6.687,-6.789 9.402,-13.328 8.125,-19.609 -1.282,-6.29 -4.668,-12.129 -10.168,-17.54 l -12.793,-13.238 40.704,-39.312 v 0"
         style="fill:#ffffff;fill-opacity:1;fill-rule:nonzero;stroke:none"
         id="path4154" /><path
         d="m 673.074,1037.64 c -19.461,-15.87 -29.969,-33.43 -31.519,-52.671 -1.543,-19.219 6.082,-39.309 22.879,-60.239 17.004,-20.808 35.168,-32.582 54.492,-35.3 19.336,-2.731 38.801,3.769 58.398,19.48 l 82.364,66.692 c 23.085,18.187 36.472,36.958 40.148,56.298 3.672,19.34 -4.082,40.89 -23.254,64.64 -19.219,23.65 -38.574,35.57 -58.059,35.77 -19.48,0.19 -40.515,-9.13 -63.085,-27.97 z m 124.856,22.5 c 3.945,3.33 8.398,6.47 13.34,9.4 4.953,2.92 9.941,4.48 14.992,4.65 5.039,0.18 9.676,-2.19 13.914,-7.14 3.957,-5.17 5.383,-10.28 4.258,-15.31 -1.114,-5.02 -3.567,-9.71 -7.356,-14.08 -3.785,-4.36 -7.723,-8.12 -11.797,-11.3 l -83.164,-67.348 c -6.375,-5.563 -13.238,-9.551 -20.594,-11.973 -7.343,-2.437 -14.168,-0.129 -20.46,6.91 -5.758,7.852 -6.61,15.02 -2.567,21.52 4.055,6.511 9.473,12.281 16.27,17.32 l 83.164,67.351 v 0"
         style="fill:#ffffff;fill-opacity:1;fill-rule:evenodd;stroke:none"
         id="path4156" /><path
         d="m 566.816,1235.45 -18.562,-11.6 c -22.258,-14.17 -34.633,-30.59 -37.109,-49.3 -2.485,-18.69 3.308,-39.14 17.378,-61.31 14.707,-23.7 31.379,-37.63 50.024,-41.8 18.633,-4.18 39.898,1.24 63.789,16.27 l 90.75,56.71 c 22.793,13.93 36.98,29.86 42.566,47.79 5.598,17.92 1.067,38.74 -13.589,62.45 -16.758,26.13 -34.692,41.48 -53.793,46.05 -19.098,4.58 -38.25,0.73 -57.442,-11.53 l -27.105,-16.94 32.382,-51.82 20.028,12.53 c 7.07,4.84 14.68,8.23 22.844,10.17 8.152,1.94 15.144,-1.21 20.957,-9.45 4.148,-6.74 5.398,-12.63 3.757,-17.65 -1.64,-5.02 -5.605,-9.44 -11.882,-13.27 l -109.504,-68.02 c -7.188,-4.73 -13.684,-6.96 -19.485,-6.69 -5.808,0.28 -11.148,4.41 -16.035,12.38 -3.074,4.95 -3.152,10.43 -0.222,16.42 2.941,6 9.089,11.98 18.488,17.96 l 14.137,8.84 -32.372,51.81 v 0"
         style="fill:#ffffff;fill-opacity:1;fill-rule:nonzero;stroke:none"
         id="path4158" /><path
         d="m 665.957,1415.34 -234.121,-114.2 26.777,-54.92 234.121,114.19 -26.777,54.93 v 0"
         style="fill:#ffffff;fill-opacity:1;fill-rule:nonzero;stroke:none"
         id="path4160" /><path
         d="m 521.895,1504.24 13.273,-32.84 -114.895,-27.31 -0.261,0.64 z m 107.968,-9.56 -49.758,-12.23 -17.949,44.43 43.774,27.05 -23.157,57.31 -220.312,-150.06 27.578,-68.27 262.852,44.77 -23.028,57 v 0"
         style="fill:#ffffff;fill-opacity:1;fill-rule:evenodd;stroke:none"
         id="path4162" /><path
         d="m 592.852,1696.43 5.898,10.78 c -1.746,1.91 -3.23,4.01 -4.434,6.29 -1.211,2.28 -2.043,4.62 -2.48,7.04 -0.645,3.24 -0.344,6.47 0.906,9.69 1.242,3.21 3.762,5.47 7.551,6.77 4.219,0.98 7.812,-0.06 10.77,-3.15 2.96,-3.08 4.992,-6.85 6.093,-11.3 1.145,-5.05 1.574,-10.12 1.282,-15.21 -0.286,-5.1 -0.547,-10.25 -0.801,-15.46 l 17.258,-3.21 c 0.859,8.27 1.289,16.06 1.304,23.4 0.012,7.35 -0.984,15.17 -2.984,23.45 -1.613,6.47 -4.426,12.63 -8.43,18.5 -4.004,5.87 -8.945,10.38 -14.824,13.55 -5.879,3.18 -12.434,3.95 -19.668,2.33 -8.621,-2.52 -14.219,-7.46 -16.785,-14.83 -2.578,-7.35 -2.988,-15.12 -1.25,-23.28 0.574,-2.4 1.258,-4.67 2.051,-6.79 0.781,-2.13 1.687,-3.88 2.742,-5.28 l -0.508,-0.84 -18.066,6.25 c -8.641,25.55 -20.957,42.58 -36.934,51.08 -15.977,8.52 -34.188,10.12 -54.648,4.81 l -31.016,-7.73 14.773,-59.28 22.934,5.71 c 8.211,2.42 16.492,3.29 24.852,2.62 8.371,-0.69 14.035,-5.84 17.023,-15.47 1.852,-7.7 1.227,-13.67 -1.887,-17.94 -3.113,-4.28 -8.242,-7.26 -15.398,-8.95 l -125.168,-30.86 c -8.289,-2.28 -15.156,-2.39 -20.598,-0.33 -5.43,2.05 -9.234,7.63 -11.414,16.72 -1.394,5.67 0.227,10.9 4.863,15.69 4.637,4.79 12.344,8.58 23.118,11.36 l 16.179,4.04 -14.785,59.27 -21.23,-5.29 c -25.547,-6.59 -42.383,-18.39 -50.52,-35.41 -8.141,-17.01 -8.941,-38.24 -2.41,-63.69 6.672,-27.07 18.215,-45.48 34.648,-55.21 16.426,-9.73 38.329,-11.15 65.696,-4.23 l 103.804,25.87 c 24.621,5.9 42.454,15.84 53.508,29.85 11.055,14 14.219,33.27 9.492,57.79 l 29.493,-9.12 v 0"
         style="fill:#ffffff;fill-opacity:1;fill-rule:nonzero;stroke:none"
         id="path4164" /><path
         d="m 234.836,1905.27 c -2.043,13.49 -7.871,23.17 -17.5,29.03 -9.633,5.87 -20.832,8.68 -33.606,8.44 l 3.387,-27.58 c 3.442,0.09 6.574,-1.14 9.414,-3.7 2.844,-2.56 4.555,-5.64 5.11,-9.22 0.312,-3.11 0.007,-6.55 -0.911,-10.34 -0.925,-3.79 -2.019,-7.86 -3.308,-12.22 -1.121,-4.32 -2.063,-8.92 -2.805,-13.82 -0.75,-4.88 -0.828,-10.08 -0.23,-15.59 1.316,-9.33 4.734,-16.54 10.23,-21.65 5.512,-5.11 12.129,-8.74 19.875,-10.89 7.742,-2.16 15.637,-3.46 23.672,-3.9 l -3.34,27.23 c -4.023,0.23 -7.644,1.48 -10.859,3.74 -3.223,2.25 -5.164,5.46 -5.82,9.61 -0.274,2.79 -0.008,6.01 0.781,9.68 0.793,3.66 1.758,7.58 2.883,11.76 1.265,4.37 2.246,9.02 2.918,13.97 0.671,4.94 0.711,10.09 0.109,15.45 z m 184.352,15.29 4.328,-35.17 -118.055,3.36 -0.078,0.69 z m 101.82,-37.19 -51.223,1.07 -5.84,47.57 49.278,14.79 -7.532,61.36 -251.648,-87.94 8.977,-73.08 265.488,-24.78 -7.5,61.01 v 0"
         style="fill:#ffffff;fill-opacity:1;fill-rule:evenodd;stroke:none"
         id="path4166" /><path
         d="m 318.555,2203.85 c -25.117,0.35 -44.446,-6.34 -57.996,-20.09 -13.547,-13.74 -20.618,-34.02 -21.204,-60.85 -0.351,-26.87 6.004,-47.56 19.063,-62.08 13.047,-14.5 32.141,-22.04 57.246,-22.6 l 105.957,-1.86 c 29.395,-0.9 51.707,4.87 66.953,17.33 15.235,12.45 23.156,33.93 23.731,64.45 0.488,30.48 -6.68,52.05 -21.477,64.72 -14.805,12.68 -36.91,19.06 -66.316,19.14 z m 110.105,-63.03 c 5.168,0.02 10.586,-0.45 16.262,-1.37 5.676,-0.94 10.5,-2.96 14.473,-6.07 3.972,-3.1 5.996,-7.91 6.066,-14.41 -0.293,-6.51 -2.481,-11.33 -6.574,-14.46 -4.082,-3.14 -8.977,-5.16 -14.688,-6.06 -5.703,-0.91 -11.133,-1.27 -16.301,-1.08 l -107,1.86 c -8.457,-0.15 -16.281,1.2 -23.464,4.06 -7.192,2.87 -10.942,9.02 -11.235,18.46 0.637,9.71 4.59,15.75 11.867,18.14 7.286,2.38 15.149,3.31 23.594,2.8 l 107,-1.87 v 0"
         style="fill:#ffffff;fill-opacity:1;fill-rule:evenodd;stroke:none"
         id="path4168" /><path
         d="m 430.613,2329.18 27.453,-4.34 c 11.485,-1.88 22.539,-0.86 33.172,3.03 10.637,3.9 19.875,11.17 27.707,21.8 7.832,10.64 13.289,25.12 16.368,43.45 3.867,25.17 0.285,45.4 -10.77,60.69 -11.047,15.31 -28.977,24.97 -53.773,29 -15.411,2.39 -28.231,2.42 -38.465,0.07 -10.227,-2.34 -19.051,-6.55 -26.485,-12.62 -7.441,-6.09 -14.648,-13.45 -21.621,-22.11 -6.972,-8.66 -14.863,-18.13 -23.672,-28.4 -4.922,-5.5 -10.039,-9.56 -15.339,-12.18 -5.305,-2.62 -11.672,-2.97 -19.114,-1.02 -5.625,1.61 -9.687,4.42 -12.207,8.44 -2.512,4.03 -3.054,9.1 -1.633,15.23 2.707,9.31 8.071,14.32 16.106,15.05 8.027,0.72 16.062,0.39 24.109,-1.01 l 8.801,55.55 c -24.434,5.19 -45.293,2.51 -62.59,-8.07 -17.293,-10.56 -28.25,-28.97 -32.859,-55.22 -3.723,-23.59 -0.52,-43.02 9.609,-58.32 10.117,-15.3 27.254,-24.98 51.426,-29.06 11.238,-1.73 21.269,-1.74 30.066,-0.02 8.813,1.72 16.868,4.84 24.172,9.35 7.344,4.68 14.317,10.44 20.899,17.3 6.59,6.85 13.242,14.52 19.961,22.98 5.808,7.61 12.089,14.39 18.828,20.35 6.75,5.96 15.398,8.32 25.968,7.07 6.786,-1.04 12.442,-3.6 16.993,-7.67 4.539,-4.07 6.382,-9.63 5.535,-16.68 -1.731,-9.37 -5.528,-15.34 -11.414,-17.9 -5.879,-2.56 -12.61,-3.13 -20.188,-1.73 l -18.191,2.88 -8.852,-55.89 v 0"
         style="fill:#ffffff;fill-opacity:1;fill-rule:nonzero;stroke:none"
         id="path4170" /><path
         d="m 569.375,2562.96 -103.645,31.69 12.407,40.57 103.64,-31.69 17.864,58.43 -249.106,76.16 -17.859,-58.43 95.676,-29.25 -12.407,-40.57 -95.672,29.25 -17.863,-58.42 249.106,-76.16 17.859,58.42 v 0"
         style="fill:#ffffff;fill-opacity:1;fill-rule:nonzero;stroke:none"
         id="path4172" /><path
         d="m 507.141,2924.69 c -22.993,10.14 -43.403,11.52 -61.243,4.17 -17.839,-7.35 -32.277,-23.26 -43.293,-47.73 -10.828,-24.6 -13.062,-46.13 -6.714,-64.58 6.343,-18.46 20.972,-32.86 43.867,-43.2 l 96.812,-43.1 c 26.7,-12.32 49.493,-15.72 68.391,-10.22 18.894,5.51 34.57,22.2 47.031,50.06 12.356,27.86 14.192,50.52 5.52,67.97 -8.672,17.45 -26.535,31.96 -53.567,43.53 z m 76.714,-101.04 c 4.758,-2.01 9.575,-4.54 14.426,-7.62 4.864,-3.08 8.516,-6.83 10.957,-11.24 2.45,-4.42 2.434,-9.63 -0.05,-15.64 -2.809,-5.87 -6.708,-9.46 -11.7,-10.75 -4.976,-1.29 -10.281,-1.23 -15.886,0.17 -5.606,1.39 -10.743,3.19 -15.418,5.37 l -97.766,43.53 c -7.852,3.16 -14.523,7.47 -20.02,12.91 -5.5,5.44 -6.543,12.57 -3.132,21.37 4.382,8.7 10.386,12.72 18.015,12.06 7.637,-0.65 15.235,-2.86 22.813,-6.63 l 97.761,-43.53 v 0"
         style="fill:#ffffff;fill-opacity:1;fill-rule:evenodd;stroke:none"
         id="path4174" /><path
         d="m 515.281,2981.48 24.692,41.09 178.648,-107.35 31.469,52.37 -178.652,107.35 25.41,42.28 -44.629,26.82 -81.567,-135.75 44.629,-26.81 v 0"
         style="fill:#ffffff;fill-opacity:1;fill-rule:nonzero;stroke:none"
         id="path4176" /><path
         d="m 740.137,3280.15 c -20.117,15.05 -39.688,20.99 -58.731,17.84 -19.035,-3.15 -36.672,-15.41 -52.91,-36.76 -16.086,-21.54 -23.113,-42.02 -21.074,-61.43 2.031,-19.42 13.039,-36.73 33.027,-51.95 l 84.629,-63.78 c 23.242,-18 44.688,-26.45 64.348,-25.34 19.644,1.12 38.672,13.85 57.078,38.2 18.309,24.37 25.195,46.03 20.664,64.99 -4.523,18.95 -18.652,37.1 -42.402,54.45 z m 52.031,-115.71 c 4.18,-3.02 8.301,-6.58 12.344,-10.67 4.035,-4.09 6.758,-8.56 8.144,-13.41 1.387,-4.86 0.203,-9.94 -3.562,-15.24 -4.067,-5.09 -8.672,-7.7 -13.821,-7.84 -5.144,-0.13 -10.293,1.11 -15.437,3.74 -5.148,2.63 -9.758,5.53 -13.828,8.71 l -85.461,64.4 c -6.942,4.85 -12.473,10.54 -16.609,17.08 -4.133,6.55 -3.547,13.73 1.765,21.54 6.223,7.49 12.969,10.05 20.266,7.69 7.285,-2.35 14.199,-6.22 20.73,-11.6 l 85.469,-64.4 v 0"
         style="fill:#ffffff;fill-opacity:1;fill-rule:evenodd;stroke:none"
         id="path4178" /><path
         d="m 960.383,3236.92 -46.223,44.64 -9.57,28.08 88.613,-38.74 44.877,46.49 -145.697,58.61 -44.09,119.84 -43.438,-44.99 43.583,-104.86 -0.477,-0.5 -74.953,72.39 -42.442,-43.96 187.372,-180.95 42.445,43.95 v 0"
         style="fill:#ffffff;fill-opacity:1;fill-rule:nonzero;stroke:none"
         id="path4180" /><path
         d="m 1083.76,3473.11 -28.28,-21.32 -56.125,103.92 0.547,0.41 z m 18.71,-106.77 -24.7,44.89 38.27,28.85 37.47,-35.28 49.36,37.21 -201.97,173.96 -58.798,-44.31 111.278,-242.31 49.09,36.99 v 0"
         style="fill:#ffffff;fill-opacity:1;fill-rule:evenodd;stroke:none"
         id="path4182" /><path
         d="m 1308.87,3509.54 53.63,32.22 -134.16,223.29 -49.78,-29.91 80.02,-121.7 -0.89,-0.54 -115.38,100.45 -53.84,-32.35 134.16,-223.29 49.68,29.85 -79.53,121.59 0.24,0.95 115.85,-100.56 v 0"
         style="fill:#ffffff;fill-opacity:1;fill-rule:nonzero;stroke:none"
         id="path4184" /><path
         d="m 1536.82,3617.97 -23.02,59.98 3.18,29.51 63.95,-72.57 60.31,23.16 -107.28,114.71 10.69,127.24 -58.37,-22.41 -4.82,-113.45 -0.65,-0.26 -37.33,97.28 -57.04,-21.9 93.35,-243.18 57.03,21.89 v 0"
         style="fill:#ffffff;fill-opacity:1;fill-rule:nonzero;stroke:none"
         id="path4186" /><path
         d="m 1783.44,3886.79 c -6.16,24.35 -17.64,41.3 -34.42,50.83 -16.77,9.53 -38.2,11.11 -64.25,4.73 -26.06,-6.62 -44.4,-18.11 -55.03,-34.47 -10.64,-16.37 -12.98,-36.75 -7.03,-61.16 l 25.63,-102.83 c 6.74,-28.62 18.1,-48.68 34.06,-60.18 15.98,-11.5 38.78,-13.58 68.4,-6.25 29.56,7.43 48.55,19.93 56.96,37.5 8.41,17.58 8.85,40.58 1.31,69.01 z m -32.39,-122.66 c 1.35,-4.99 2.32,-10.34 2.89,-16.06 0.56,-5.72 -0.14,-10.91 -2.11,-15.55 -1.98,-4.64 -6.1,-7.85 -12.36,-9.59 -6.36,-1.4 -11.59,-0.54 -15.67,2.6 -4.08,3.14 -7.31,7.33 -9.65,12.62 -2.35,5.28 -4.11,10.43 -5.26,15.47 L 1683,3857.46 c -2.35,8.12 -3.07,16.03 -2.16,23.72 0.91,7.68 5.88,12.9 14.92,15.62 9.54,1.91 16.41,-0.35 20.59,-6.76 4.19,-6.42 7.13,-13.77 8.82,-22.07 l 25.88,-103.84 v 0"
         style="fill:#ffffff;fill-opacity:1;fill-rule:evenodd;stroke:none"
         id="path4188" /><path
         d="m 1927.44,3714.57 -7.83,63.77 10.22,27.86 44.5,-85.87 64.13,7.88 -76.35,137.24 41.15,120.88 -62.06,-7.62 -32.12,-108.92 -0.69,-0.09 -12.7,103.42 -60.63,-7.44 31.74,-258.55 60.64,7.44 v 0"
         style="fill:#ffffff;fill-opacity:1;fill-rule:nonzero;stroke:none"
         id="path4190" /><path
         d="m 2069.42,3797.26 c -0.28,-26.65 6.57,-46.47 20.54,-59.47 13.98,-13.01 34,-19.7 60.05,-20.06 30.78,-0.04 52.44,7.09 64.98,21.38 12.52,14.3 18.75,32.73 18.67,55.29 l 3.28,188.59 -61.07,1.07 -3.4,-194.85 c 0.02,-5.91 -1.54,-11.44 -4.73,-16.6 -3.18,-5.15 -8.71,-7.83 -16.58,-8.05 -8.47,0.35 -14.14,2.76 -16.99,7.25 -2.84,4.49 -4.11,9.96 -3.8,16.4 l 3.44,196.59 -61.1,1.06 -3.29,-188.6 v 0"
         style="fill:#ffffff;fill-opacity:1;fill-rule:nonzero;stroke:none"
         id="path4192" /><path
         d="m 2272.98,3806.55 -3.89,-27.52 c -1.66,-11.51 -0.45,-22.56 3.63,-33.13 4.09,-10.56 11.51,-19.67 22.27,-27.31 10.78,-7.65 25.35,-12.86 43.73,-15.62 25.24,-3.42 45.39,0.52 60.49,11.84 15.12,11.31 24.45,29.4 28.05,54.27 2.12,15.44 1.93,28.27 -0.59,38.46 -2.52,10.18 -6.89,18.94 -13.09,26.26 -6.21,7.34 -13.71,14.42 -22.48,21.24 -8.79,6.81 -18.38,14.53 -28.81,23.17 -5.58,4.82 -9.72,9.87 -12.44,15.13 -2.71,5.25 -3.16,11.62 -1.36,19.09 1.52,5.65 4.25,9.76 8.24,12.35 3.96,2.58 9.04,3.21 15.17,1.9 9.38,-2.54 14.48,-7.83 15.34,-15.84 0.88,-8.01 0.68,-16.06 -0.57,-24.13 l 55.68,-7.83 c 4.77,24.52 1.72,45.33 -9.16,62.44 -10.86,17.11 -29.47,27.74 -55.8,31.9 -23.63,3.3 -43.01,-0.24 -58.12,-10.63 -15.12,-10.38 -24.51,-27.7 -28.17,-51.92 -1.54,-11.28 -1.36,-21.3 0.51,-30.07 1.88,-8.78 5.14,-16.78 9.77,-24.01 4.8,-7.26 10.7,-14.13 17.65,-20.6 6.98,-6.47 14.77,-12.98 23.34,-19.55 7.7,-5.67 14.59,-11.84 20.67,-18.47 6.07,-6.64 8.59,-15.25 7.52,-25.84 -0.92,-6.8 -3.38,-12.5 -7.37,-17.13 -3.98,-4.61 -9.51,-6.55 -16.58,-5.82 -9.39,1.57 -15.43,5.27 -18.1,11.1 -2.66,5.83 -3.34,12.56 -2.07,20.15 l 2.55,18.25 -56.01,7.87 v 0"
         style="fill:#ffffff;fill-opacity:1;fill-rule:nonzero;stroke:none"
         id="path4194" /><path
         d="m 2571.1,3759.93 -34.22,9.17 47.35,108.2 0.66,-0.17 z m -72.61,-80.47 20.17,47.1 46.29,-12.41 -4.73,-51.24 59.71,-15.99 12.74,266.27 -71.12,19.05 -122.44,-236.87 59.38,-15.91 v 0"
         style="fill:#ffffff;fill-opacity:1;fill-rule:evenodd;stroke:none"
         id="path4196" /><path
         d="m 2702.74,3613.94 93.34,243.19 -57.03,21.9 -93.36,-243.19 57.05,-21.9 v 0"
         style="fill:#ffffff;fill-opacity:1;fill-rule:nonzero;stroke:none"
         id="path4198" /><path
         d="m 2875.63,3534.63 31.16,56.21 24.65,16.51 -14.48,-95.63 56.51,-31.32 18.9,155.91 104.34,73.61 -54.69,30.31 -90,-69.24 -0.62,0.34 50.52,91.13 -53.43,29.63 -126.29,-227.84 53.43,-29.62 v 0"
         style="fill:#ffffff;fill-opacity:1;fill-rule:nonzero;stroke:none"
         id="path4200" /><path
         d="m 3133.92,3484.23 -28.66,20.82 82.95,84.06 0.57,-0.4 z m -96.63,-49.1 35.71,36.74 38.77,-28.16 -22.8,-46.15 50.02,-36.33 107.31,244.02 -59.55,43.28 -199.2,-177.26 49.74,-36.14 v 0"
         style="fill:#ffffff;fill-opacity:1;fill-rule:evenodd;stroke:none"
         id="path4202" /><path
         d="m 3272.94,3376.86 14.75,-13.75 c 4.7,-5.22 6.54,-10.63 5.5,-16.26 -1.01,-5.62 -4,-11.64 -8.98,-18.05 -4.96,-6.42 -11,-13.37 -18.15,-20.86 -7.12,-7.49 -14.49,-15.59 -22.07,-24.31 -1.64,-2.03 -3.06,-4.16 -4.29,-6.39 -1.23,-2.22 -2.33,-4.52 -3.32,-6.88 l 48.75,-45.45 2.32,2.5 c -0.16,1.83 -0.08,3.63 0.27,5.39 0.38,1.75 0.88,3.5 1.59,5.24 3.18,5.08 8.02,11.55 14.55,19.42 6.52,7.89 13.28,15.86 20.25,23.95 6.97,8.07 12.74,14.97 17.31,20.66 5.7,7.07 8.51,14.56 8.45,22.44 -0.08,7.88 -2.59,15.47 -7.58,22.79 l 0.47,0.51 c 13.23,-4.27 24.91,-4.35 35.02,-0.25 10.1,4.1 19.81,11.33 29.1,21.68 17.49,18.75 25.49,36.51 24.05,53.26 -1.47,16.76 -11.43,33.59 -29.89,50.46 l -65.27,60.88 -177.64,-190.52 44.67,-41.66 z m 75.57,81.04 c 11.48,-9.46 18.53,-17.84 21.13,-25.12 2.6,-7.28 -1.21,-16.34 -11.43,-27.18 -5.54,-6.23 -11.64,-10.65 -18.26,-13.27 -6.62,-2.62 -13.22,-1.1 -19.8,4.57 l -15.28,14.23 43.64,46.77 v 0"
         style="fill:#ffffff;fill-opacity:1;fill-rule:evenodd;stroke:none"
         id="path4204" /><path
         d="m 3440.83,3189.05 -22.77,27.13 100.82,61.49 0.45,-0.54 z m -105.64,-24.28 43.53,27.02 30.8,-36.72 -33.26,-39.25 39.73,-47.36 163.16,210.81 -47.34,56.41 -236.14,-123.82 39.52,-47.09 v 0"
         style="fill:#ffffff;fill-opacity:1;fill-rule:evenodd;stroke:none"
         id="path4206" /><path
         d="m 3591.92,3178.37 26.12,-40.2 -174.81,-113.52 33.28,-51.24 174.81,113.52 26.85,-41.37 43.66,28.35 -86.23,132.81 -43.68,-28.35 v 0"
         style="fill:#ffffff;fill-opacity:1;fill-rule:nonzero;stroke:none"
         id="path4208" /><path
         d="m 3583.58,2775.07 46.8,22.82 -36.39,74.63 50.61,24.69 33.5,-68.69 46.79,22.82 -33.49,68.69 43.12,21.04 34.57,-70.88 46.78,22.82 -61.35,125.79 -234.1,-114.19 63.16,-129.54 v 0"
         style="fill:#ffffff;fill-opacity:1;fill-rule:nonzero;stroke:none"
         id="path4210" /><path
         d="m 3713.7,2693.61 -26.58,-8.14 c -11.13,-3.35 -20.65,-9.1 -28.48,-17.26 -7.85,-8.18 -12.97,-18.75 -15.35,-31.74 -2.38,-13 -0.94,-28.4 4.34,-46.23 7.56,-24.31 19.65,-40.92 36.29,-49.83 16.64,-8.9 36.97,-9.73 61.03,-2.49 14.9,4.61 26.43,10.21 34.59,16.8 8.17,6.58 14.26,14.24 18.28,22.96 4.03,8.73 7.27,18.51 9.75,29.35 2.46,10.84 5.41,22.81 8.83,35.9 2.01,7.1 4.82,12.99 8.43,17.67 3.62,4.69 9.2,7.78 16.74,9.31 5.76,1.01 10.65,0.26 14.67,-2.25 4.02,-2.51 6.74,-6.84 8.14,-12.96 1.65,-9.56 -0.97,-16.42 -7.87,-20.59 -6.91,-4.17 -14.27,-7.4 -22.11,-9.67 l 16.43,-53.78 c 24.24,6.04 41.82,17.61 52.71,34.69 10.92,17.08 12.7,38.42 5.34,64.04 -7,22.82 -18.4,38.89 -34.2,48.2 -15.8,9.32 -35.45,10.51 -58.95,3.58 -10.88,-3.37 -19.88,-7.76 -27.05,-13.17 -7.15,-5.41 -13.03,-11.75 -17.62,-19 -4.55,-7.42 -8.3,-15.66 -11.21,-24.71 -2.91,-9.05 -5.52,-18.86 -7.85,-29.41 -1.89,-9.38 -4.57,-18.23 -8.01,-26.54 -3.45,-8.31 -10.19,-14.22 -20.23,-17.73 -6.56,-2.04 -12.77,-2.23 -18.63,-0.56 -5.88,1.66 -9.98,5.85 -12.29,12.56 -2.56,9.18 -1.76,16.21 2.4,21.09 4.16,4.89 9.97,8.35 17.39,10.42 l 17.61,5.38 -16.54,54.11 v 0"
         style="fill:#ffffff;fill-opacity:1;fill-rule:nonzero;stroke:none"
         id="path4212" /><path
         d="m 3797.02,2406.54 -6.76,34.77 117.99,4.89 0.14,-0.68 z m -104.16,29.99 51.17,2.52 9.14,-47.05 -48.12,-18.21 11.8,-60.68 244.9,105.28 -14.04,72.28 -266.57,6.2 11.72,-60.34 v 0"
         style="fill:#ffffff;fill-opacity:1;fill-rule:evenodd;stroke:none"
         id="path4214" /><path
         d="m 3724.23,2186.02 4.37,-62.43 259.85,18.17 -4.07,57.93 -144.74,-16.03 -0.08,1.03 141.88,57.2 -4.38,62.66 -259.84,-18.16 4.04,-57.83 144.43,15.67 0.75,-0.64 -142.21,-57.57 v 0"
         style="fill:#ffffff;fill-opacity:1;fill-rule:nonzero;stroke:none"
         id="path4216" /><path
         d="m 3934.29,2076.34 -3.36,-47.82 -207.91,14.54 -4.26,-60.95 207.91,-14.54 -3.44,-49.21 51.94,-3.63 11.05,157.98 -51.93,3.63 v 0"
         style="fill:#ffffff;fill-opacity:1;fill-rule:nonzero;stroke:none"
         id="path4218" /><path
         d="m 3867.41,1704.03 c 24.69,-4.71 44.88,-1.48 60.61,9.7 15.74,11.18 26.21,29.93 31.44,56.24 5.02,26.41 2.37,47.9 -7.97,64.45 -10.35,16.56 -27.83,27.3 -52.46,32.21 l -104.02,20.23 c -28.79,6 -51.78,4.18 -68.95,-5.43 -17.16,-9.62 -28.69,-29.4 -34.57,-59.36 -5.76,-29.93 -2.46,-52.42 9.93,-67.48 12.38,-15.05 33.02,-25.16 61.97,-30.35 z m -97.48,81.19 c -5.08,0.88 -10.33,2.26 -15.76,4.18 -5.43,1.9 -9.82,4.72 -13.2,8.47 -3.38,3.75 -4.53,8.84 -3.48,15.26 1.43,6.36 4.41,10.73 8.98,13.1 4.57,2.39 9.75,3.52 15.51,3.42 5.78,-0.11 11.19,-0.69 16.25,-1.77 l 105.04,-20.42 c 8.36,-1.31 15.84,-4.01 22.42,-8.07 6.59,-4.07 9.2,-10.78 7.85,-20.13 -2.3,-9.45 -7.26,-14.72 -14.84,-15.8 -7.58,-1.08 -15.49,-0.63 -23.71,1.33 l -105.06,20.43 v 0"
         style="fill:#ffffff;fill-opacity:1;fill-rule:evenodd;stroke:none"
         id="path4220" /><path
         d="m 3702.86,1490.33 12.7,33.07 102.65,-58.39 -0.25,-0.64 z m -72.44,80.63 44.73,-24.99 -17.17,-44.74 -50.47,10.07 -22.15,-57.71 263.46,-40.51 26.39,68.74 -222.76,146.52 -22.03,-57.38 v 0"
         style="fill:#ffffff;fill-opacity:1;fill-rule:evenodd;stroke:none"
         id="path4222" /><path
         d="m 3526.46,1341.02 -29.38,-55.25 229.98,-122.3 27.27,51.28 -131.25,63.11 0.48,0.91 150.63,-26.68 29.49,55.47 -230,122.3 -27.21,-51.18 130.79,-63.27 0.29,-0.93 -151.09,26.54 v 0"
         style="fill:#ffffff;fill-opacity:1;fill-rule:nonzero;stroke:none"
         id="path4224" /><path
         d="m 3651.12,1139.73 -27.5,-39.27 -170.72,119.55 -35.04,-50.05 170.72,-119.55 -28.28,-40.4 42.64,-29.862 90.84,129.722 -42.66,29.86 v 0"
         style="fill:#ffffff;fill-opacity:1;fill-rule:nonzero;stroke:none"
         id="path4226" /><path
         d="m 3567.39,819.07 -14.92,60.192 -31.85,-35.383 -1.57,-78.508 z m -166.7,37 c 18.73,-16.75 37.72,-24.379 56.96,-22.89 19.23,1.468 37.87,12.152 55.91,32.019 17.9,20.051 26.68,39.821 26.35,59.34 -0.33,19.531 -9.8,37.731 -28.38,54.641 l -78.75,70.91 c -21.58,19.96 -42.22,30.25 -61.89,30.85 -19.67,0.6 -39.73,-10.43 -60.2,-33.07 -20.35,-22.69 -29.1,-43.67 -26.25,-62.94 2.85,-19.282 15.35,-38.598 37.5,-57.942 z m -41.73,119.801 c -3.91,3.379 -7.7,7.277 -11.37,11.711 -3.67,4.43 -6,9.117 -6.96,14.068 -0.95,4.96 0.67,9.92 4.89,14.87 4.49,4.71 9.29,6.92 14.43,6.6 5.16,-0.31 10.18,-2 15.06,-5.07 4.9,-3.06 9.24,-6.35 13.03,-9.87 l 79.51,-71.61 c 6.5,-5.429 11.5,-11.59 15.06,-18.468 3.55,-6.883 2.34,-13.981 -3.64,-21.301 -6.83,-6.91 -13.78,-8.879 -20.85,-5.903 -7.06,2.981 -13.6,7.434 -19.65,13.364 l -79.51,71.609 v 0"
         style="fill:#ffffff;fill-opacity:1;fill-rule:evenodd;stroke:none"
         id="path4228" /><path
         d="m 3160.32,889.551 -46.5,-41.871 174.3,-193.59 43.14,38.859 -101.76,104.199 0.78,0.704 132.43,-76.602 46.67,42.039 -174.29,193.59 -43.07,-38.789 101.25,-104.18 -0.04,-0.98 -132.91,76.621 v 0"
         style="fill:#ffffff;fill-opacity:1;fill-rule:nonzero;stroke:none"
         id="path4230" /><path
         d="m 3030.09,790.309 153.1,-210.75 49.42,35.91 -153.11,210.742 -49.41,-35.902 v 0"
         style="fill:#ffffff;fill-opacity:1;fill-rule:nonzero;stroke:none"
         id="path4232" /><path
         d="m 2954.97,520.539 c 13.01,-21.48 28.93,-34.34 47.77,-38.539 18.83,-4.211 39.77,0.539 62.84,14.262 22.96,13.949 37.14,30.308 42.54,49.07 5.39,18.758 1.66,38.93 -11.16,60.527 l -54.59,90.84 c -14.8,25.41 -31.52,41.27 -50.15,47.602 -18.66,6.328 -41.06,1.648 -67.25,-14.02 -26.09,-15.742 -40.6,-33.25 -43.5,-52.519 -2.91,-19.282 3.4,-41.403 18.91,-66.383 z m -4.9,126.781 c -2.76,4.36 -5.24,9.211 -7.44,14.52 -2.23,5.301 -3.07,10.469 -2.54,15.492 0.53,5.02 3.53,9.277 9.02,12.777 5.67,3.192 10.92,3.903 15.74,2.09 4.83,-1.808 9.12,-4.879 12.91,-9.25 3.79,-4.347 6.98,-8.769 9.57,-13.238 l 55.12,-91.742 c 4.61,-7.09 7.6,-14.438 8.99,-22.059 1.38,-7.621 -1.86,-14.051 -9.69,-19.301 -8.58,-4.609 -15.8,-4.461 -21.68,0.45 -5.88,4.921 -10.84,11.089 -14.88,18.531 l -55.12,91.73 v 0"
         style="fill:#ffffff;fill-opacity:1;fill-rule:evenodd;stroke:none"
         id="path4234" /><path
         d="m 682.859,2115.92 c 0,791.45 641.561,1433.02 1432.991,1433.02 791.41,0 1432.97,-641.57 1432.97,-1433.02 0,-791.44 -641.56,-1433.029 -1432.97,-1433.029 -791.43,0 -1432.991,641.589 -1432.991,1433.029 v 0"
         style="fill:#a4262c;fill-opacity:1;fill-rule:nonzero;stroke:none"
         id="path4236" /><g
         id="g4260"><path
           style="fill:#ffffff;fill-opacity:1;fill-rule:nonzero;stroke:none;stroke-width:0.133333"
           d="m 319.83594,122.95898 c -2.15466,0.11612 -4.43844,0.97295 -5.52344,2.28711 -1.73733,2.10134 -3.7364,3.27058 -6.53906,3.50391 -2.80134,0.23333 -6.64122,-2.10208 -11.31055,-0.46875 -4.672,1.636 -2.80306,5.94151 -4.53906,7.57617 -1.73734,1.63467 -3.73656,-0.46666 -5.83789,0 -2.10267,0.468 -5.23926,2.10063 -7.8086,6.64063 -2.56933,4.53866 1.16781,5.13776 1.86914,5.37109 0,0 11.30847,0.46865 13.98047,-1.16602 2.66934,-1.636 -1.27056,-5.00673 1.63477,-5.9414 2.904,-0.93333 7.23975,0.46654 10.84375,-0.4668 3.604,-0.93466 2.33594,-4.67187 2.33594,-4.67187 0,0 2.10176,-3.50212 5.37109,-2.80078 3.27067,0.7 7.33984,3.73632 7.33984,3.73632 0,0 6.40762,-0.70137 6.87696,-3.9707 0.46533,-3.26933 -2.8029,-7.57656 -5.24024,-8.97656 -0.914,-0.5255 -2.16033,-0.72202 -3.45312,-0.65235 z m 12.73437,1.62305 c -0.83422,-0.0548 -2.05758,0.2555 -2.64258,2.29883 -0.93466,3.26933 1.6363,6.64059 4.9043,7.80859 3.27067,1.168 4.07292,-1.868 6.40625,0 2.336,1.86934 -0.2317,2.80189 1.4043,5.83789 1.632,3.036 5.70518,-0.46558 7.33984,2.20508 1.63334,2.67067 -0.70016,4.67103 0.70117,7.70703 1.40134,3.036 7.3418,2.20414 4.20313,3.60547 -3.13733,1.40134 -3.26995,3.73669 -3.50195,6.30469 -0.23467,2.568 4.43437,3.8377 3.73437,5.70703 -0.7,1.868 -3.97002,0.23343 -6.30469,1.63477 -2.336,1.40133 0.23493,6.17275 -2.5664,7.10742 -2.80267,0.93333 -5.24096,-1.96875 -6.87696,-1.96875 -1.63466,0 -6.40566,2.90212 -6.875,5.93945 -0.46533,3.03467 2.57165,6.17276 5.70899,7.10742 3.13866,0.93334 7.2403,0.23421 8.04297,-2.20312 0.80133,-2.43734 2.09954,-3.97067 4.43554,-5.13867 2.33334,-1.16667 8.27354,0.93414 9.90821,-1.86719 1.636,-2.804 9.1e-4,-5.2402 -0.23242,-6.4082 -0.23201,-1.168 -2.10153,-1.6362 1.86914,-3.26954 3.96933,-1.636 4.53831,-4.5403 4.07031,-8.04296 -0.46667,-3.50267 -3.60365,-2.33393 -4.07031,-4.66993 -0.46934,-2.33466 2.10228,-3.13919 3.73828,-5.00586 1.632,-1.86933 1.268,-4.20452 0,-7.00586 -1.27067,-2.80266 -6.77474,-2.43733 -7.94141,-3.13867 -1.16933,-0.7 1.40058,-2.80173 -0.46875,-6.53906 -1.86667,-3.73733 -6.40635,-2.20312 -8.04102,-2.20312 -1.636,0 -3.73798,3.60439 -5.47265,1.40039 -1.736,-2.204 -7.93933,-6.77386 -10.61133,-7.00586 0,0 -0.3608,-0.16436 -0.86133,-0.19727 z m -16.00781,21.54883 c -0.23599,0.012 -0.48538,0.0451 -0.74805,0.10352 -4.204,0.93466 -2.90257,1.87041 -5.0039,4.20507 -2.10267,2.336 -5.13933,7.574 -3.97266,10.61133 1.16933,3.03467 2.10453,1.16739 3.50586,3.13672 1.40133,1.97067 -0.23561,6.77175 1.40039,10.84375 1.632,4.072 3.13737,2.10228 5.4707,3.73828 2.336,1.63333 -0.23177,2.80053 2.10157,5.00586 2.336,2.20267 4.90589,2.33584 8.97656,0.70117 4.07333,-1.636 2.10208,-6.17526 0.46875,-7.80859 -1.63467,-1.636 -4.30687,-1.86885 -6.4082,-2.10352 -2.10134,-0.232 -3.26758,-4.30459 -3.26758,-7.80859 0,-3.50267 4.66908,-1.40069 5.70508,-4.30469 1.036,-2.904 -1.26716,-1.86931 -1.03516,-6.30664 0.23333,-4.43733 -3.03711,-5.4707 -3.03711,-5.4707 0,0 -0.61646,-4.72278 -4.15625,-4.54297 z m -38.62305,4.7207 c -1.88083,0.0457 -2.81535,0.92235 -3.16601,1.79102 -1.59734,3.95866 -0.23483,7.47308 0.70117,10.84375 0.93333,3.372 -1.63503,5.1377 -2.56836,7.70703 -0.93467,2.56933 2.80007,7.3415 6.30273,7.57617 3.504,0.23333 8.7432,-2.56927 10.14454,-5.47461 1.40133,-2.90266 -5.60157,-6.53906 -5.60157,-6.53906 0,0 -1.9719,-0.9334 -1.5039,-2.80274 0.46666,-1.868 12.81311,-5.0042 4.53711,-9.9082 -4.138,-2.45266 -6.96487,-3.23902 -8.84571,-3.19336 z m 104.625,10.34766 c -0.32156,0.001 -0.586,0.0254 -0.75,0.0254 -0.65733,0 6e-5,5.4562 -1.47461,6.76953 -1.476,1.31067 -8.24749,0.16406 -10.04882,0.16406 -1.80534,0 -1.80578,-0.98533 -1.14844,1.63868 0.656,2.62266 9.39453,5.29492 9.39453,5.29492 0,0 1.14837,1.80197 0.98437,4.91797 -0.164,3.11466 -2.13333,5.95179 -3,7.59179 -0.05,0.0936 -0.11726,0.18107 -0.18359,0.26953 h -0.16992 c -1.32533,1.204 -3.98759,1.96222 -4.68359,3.07422 -0.81734,1.31067 2.46295,3.49176 4.26562,3.98242 1.804,0.492 2.17798,-1.31017 2.83398,-3.32617 0.31239,-0.95814 0.81276,-2.31579 1.3711,-3.30664 h 0.0273 c 0.55334,-0.828 1.1453,-1.1879 1.66797,-0.36523 0.076,0.12 0.14384,0.24318 0.20117,0.36719 h 0.35742 c 0.50049,1.65832 -0.36551,3.61232 -1.49414,5.48437 -1.30933,2.18 -3.76831,4.91797 -2.45898,4.91797 1.31333,0 3.11453,0.3266 4.75586,-0.16406 1.63733,-0.492 3.11588,-0.98312 4.31055,-4.42578 0.71066,-2.04401 0.75224,-4.27891 0.51757,-6.24024 h -0.2832 c -0.16308,-1.16119 -0.40389,-2.22787 -0.6582,-3.05469 -0.70534,-2.296 -2.29803,-2.18152 -3.44336,-3.49218 -1.148,-1.312 -0.16394,-5.08198 0.16406,-6.55665 0.32533,-1.47733 1.8033,-1.85376 3.2793,-2.50976 3.14533,-1.39733 5.62135,0.16418 7.91601,-1.14648 2.296,-1.31201 4.80425,-4.09937 3.65625,-5.08204 -1.14933,-0.984 -9.06445,2.13086 -9.06445,2.13086 0,0 -2.46146,2.12927 -3.32813,-0.16406 -0.87066,-2.296 1.03061,-2.7868 -0.16406,-4.9668 -0.897,-1.635 -2.38492,-1.83206 -3.34961,-1.82812 z m -177.30468,2.06445 c -13.72291,0.0829 -41.35511,10.32875 -53.54688,24.60352 h -0.16406 c -3.496,4.22533 -5.6272,8.79735 -5.64453,13.55469 -0.009,2.58 2.19361,7.13005 3.98828,5.27539 l 5.11328,-5.28321 -3.82813,8.46485 c 3.492,4.11333 8.52436,7.81623 13.56836,9.74023 1.75067,-4.364 4.34481,-10.43508 14.99414,-13.59375 3.81734,-1.13067 -10.23814,-4.02345 -15.63281,-7.80078 7.248,-5.25467 17.39598,0.3388 23.30664,5.10547 l 0.63672,-3.82813 c -3.852,-4.87866 -7.9916,-9.23014 -13.32226,-11.63281 h -1.28321 c -2.1322,-0.83106 -4.44042,-1.37424 -7,-1.50781 l 1.27735,-2.72266 c 6.44133,-1.79066 14.47955,-0.0876 20.07422,4.09375 0.19866,0.14934 0.32014,0.34445 0.38281,0.56446 h 0.26172 c 0.006,1.17988 -1.02344,2.73632 -1.02344,2.73632 6.30933,8.06934 31.79723,7.39798 40.22656,2.55664 0.82267,-1.75066 1.45091,-3.71137 1.87891,-5.7207 h -0.13477 c 0.40885,-2.06461 0.61691,-4.16992 0.59571,-6.14453 l 7.1875,-1.27539 -2.55079,3.18945 c 0.236,1.37334 0.20528,2.95554 -0.0254,4.65821 h 0.14258 c -1.22167,8.01036 -6.68438,18.56386 -10.28125,23.51562 0,0 -2.20414,-1.57145 -3.74414,-0.80078 -0.78667,0.39333 1.26143,5.20882 -0.86523,5.41016 -4.64267,0.44133 -4.83735,7.72148 -6.41602,7.52148 -1.37467,-0.17333 -1.17711,-5.70042 -2.53711,-6.23242 -0.98133,-0.38267 -4.40996,-3.48652 -5.2793,-2.61719 -0.78666,0.788 0.32558,4.17612 -0.98242,4.32813 -0.88,0.10266 -4.92969,-6.35352 -4.92969,-6.35352 -4.464,1.00267 -10.31574,-1.29479 -14.20507,-3.18945 3.36,2.724 6.29212,7.41234 7.18945,11.65234 0,0 -2.43949,0.67735 -2.54883,1.91602 -0.0382,0.42079 -0.107,0.93036 -0.17773,1.43554 h -0.0391 c -0.23067,1.59467 -0.53711,3.22071 -0.53711,3.22071 -1.076,-1.24267 -2.65991,-2.33137 -4.50391,-3.22071 h -0.73633 c -4.54852,-2.00747 -10.3756,-2.88787 -14.125,-2.07422 l -2.35937,2.07422 h -0.36524 l -2.54883,2.24024 c 8.70934,4.94666 17.9453,17.28071 21.39063,26.49804 1.89067,-4.50933 2.15512,-15.41513 17.56445,-15.48047 l -5.27344,-9.74023 c 12.48708,4.80726 30.32088,3.43011 43.22071,-3.19727 h 0.64648 c 7.696,-4.11066 13.52241,-10.13685 15.20508,-17.88085 1.32133,-6.084 -4.22003,-14.34987 -7.83203,-15.64454 -1.42133,-0.51066 -3.64022,-0.85875 -3.82422,0.64258 -0.68667,5.56 -4.67243,19.91822 -10.37109,27.93555 l -5.27539,-4.46289 c 15.872,-9.45333 10.67968,-25.33985 10.67968,-25.33985 2.90821,-0.29295 6.26836,0.0675 8.54493,-2.15429 h 0.1875 c 0.17066,-0.20267 0.33361,-0.42211 0.48828,-0.66211 3.84666,-5.95333 1.98994,-12.96046 3.36328,-18.8418 -11.67867,0 -23.92491,0.7845 -35.12891,-3.1875 0,0 3.55539,2.6389 4.63672,5.10156 1.85067,4.21734 0.3846,7.66363 -1.91406,11.6543 -1.19734,2.08 -4,4.67774 -4,4.67774 3.476,-14.97067 0.0439,-19.67547 -5.74805,-22.7168 -1.40042,-0.73542 -3.47998,-1.07606 -6.04687,-1.06055 z m -7.59766,5.75781 c 2.57526,-0.0136 5.50443,0.90464 7.30859,2.16797 2.88667,2.02 4.76219,5.46948 2.74219,11.24414 -1.04541,2.9851 -4.28454,4.6797 -7.31055,5.4336 h -2.22265 c -0.80534,0.0733 -1.5299,0.07 -2.11524,0.002 h -1.49609 c -0.0423,-0.0363 -0.0908,-0.0712 -0.11914,-0.11133 -3.25733,-4.65466 -13.1211,-9.36523 -13.1211,-9.36523 0,0 8.18378,-4.72151 12.39844,-8.21485 0.9715,-0.8055 2.39039,-1.14811 3.93555,-1.15625 z m 200.97266,3.07032 c -1.81067,-0.12934 -3.49105,4.31129 -3.98438,6.27929 -0.492,1.96667 0.16425,1.9668 -0.98242,1.9668 -1.148,0 -4.91816,1.3e-4 -5.41016,0.32813 -0.49333,0.328 -0.98527,2.34406 0.16407,3.16406 1.148,0.82 8.4073,2.5e-4 9.55664,0.65625 1.148,0.65466 2.94995,2.29663 1.64062,3.27929 -0.0583,0.0434 -0.11739,0.0637 -0.17578,0.10157 h -0.82227 c -0.32266,0.0533 -0.64608,0.0473 -0.96875,0.002 h -1.72656 c -0.0969,-0.0356 -0.19463,-0.0673 -0.29101,-0.10352 -1.31334,-0.492 -3.60634,-1.14818 -4.26368,-0.49218 -0.27066,0.272 -0.4285,0.62743 -0.45117,1.02344 h 0.23828 c 0,0 0,0.002 0,0.002 0.0799,0.43994 0.32386,0.90294 0.75586,1.33594 0.984,0.98266 3.11328,1.31085 3.11328,2.13085 0,0.81867 -0.82031,1.14844 -0.82031,1.14844 0,0 -3.60723,4.30941 -3.11523,6.44141 0.492,2.13067 1.313,1.96648 2.625,1.14648 1.31066,-0.81866 1.68915,-7.8673 4.14648,-6.55664 2.45867,1.31067 3.44221,4.09961 3.93555,4.09961 0.492,0 8.24318,0.49181 7.58984,-0.49219 -0.656,-0.984 -8.08404,-4.31104 -8.24805,-5.62304 -0.0754,-0.60679 0.34952,-2.15417 1.11719,-3.63281 0.89467,-1.55201 2.19124,-2.90813 3.75391,-2.82813 3.112,0.16133 4.43365,0.32412 7.59766,2.82813 h 0.7832 c 1.81231,1.30487 2.20308,0.56919 2.11133,-0.42774 h -0.29297 c -0.0793,-0.40432 -0.19176,-0.80518 -0.3125,-1.08594 -0.492,-1.14933 -7.86927,-6.60912 -12.83594,-5.95312 -4.96933,0.656 -1.80549,-3.60603 -2.29883,-5.08203 -0.492,-1.47467 0.16443,-3.49225 -2.1289,-3.65625 z M 197.97852,173 c -1.55584,-0.0357 -3.00477,0.15241 -3.88477,0.56641 -1.76,0.828 -3.62109,4.14062 -3.62109,4.14062 0,0 3.1045,1.94014 4.45117,4.24414 1.344,2.304 0.51527,2.09693 2.58594,2.82227 2.07066,0.724 6.96069,-1.78688 7.58203,-4.68555 0.62,-2.89867 0.0268,-5.35517 -2.58789,-6.3125 -1.30734,-0.47933 -2.96956,-0.73972 -4.52539,-0.77539 z m -2.4336,2.93555 c 1.00534,0 1.82227,0.81302 1.82227,1.81836 0,1.00533 -0.81693,1.82226 -1.82227,1.82226 -1.00666,0 -1.82031,-0.81693 -1.82031,-1.82226 0,-1.00534 0.81365,-1.81836 1.82031,-1.81836 z m 92.76563,3.21289 c -1.80984,-0.0293 -3.91229,0.32028 -6.76563,1.48828 -5.148,2.10667 -1.76597,6.76949 -1.05664,7.66016 h 1.13477 c 1.80683,0.62687 7.48829,2.69578 10.04492,4.86132 3.036,2.56934 2.43666,8.74128 10.61133,8.97461 8.172,0.23334 8.97656,-4.20312 8.97656,-4.20312 0,0 2.33418,-5.7071 -3.03516,-8.50977 -5.372,-2.80133 -11.54492,0 -11.54492,0 0,0 -1.11358,-0.18545 -2.01758,-1.55078 h -0.46093 c -0.0231,-0.0432 -0.0477,-0.0779 -0.0703,-0.12305 -0.93466,-1.868 2.56794,-7.10859 -0.80273,-7.80859 -1.686,-0.35067 -3.20384,-0.75973 -5.01367,-0.78906 z m 30.39843,17.04687 c -2.37793,-0.0112 -3.61523,1.26758 -3.61523,1.26758 0,0 -4.7722,2.56752 -1.26953,8.74219 3.50267,6.17333 11.17956,4.90407 15.85156,2.80273 8.64,-3.88933 2.33399,-7.57617 2.33399,-7.57617 0,0 -1.8686,0.70114 -7.8086,-3.26953 -2.2275,-1.489 -4.06543,-1.96008 -5.49219,-1.9668 z m -100.94726,4.04688 c -8.068,0.31066 -16.89277,2.63449 -24.88477,0.78515 0,15.64134 25.67446,2.55583 32.31446,0.78516 2.71733,-0.724 -6.52302,-1.60631 -7.42969,-1.57031 z m 129.42383,6.5 c -5.77965,-0.10114 -15.56048,2.07664 -16.19532,4.53906 -3.088,11.99333 9.88076,-0.40398 13.60743,12.41602 0.13681,0.46992 0.19423,0.91711 0.20703,1.34765 -0.12219,4.24279 -5.23613,6.89335 -0.0371,11.26953 4.09466,3.44534 12.90276,2.45722 15.99609,-2.05078 1.428,-2.08266 1.61001,-6.35019 0.88867,-9.38086 h -0.0937 c -0.16985,-0.63574 -0.37373,-1.22234 -0.625,-1.69531 -1.64533,-3.10267 -8.78867,-2.22777 -9.52734,-4.75977 -0.93067,-3.19066 5.6338,-8.63456 -1.01953,-11.22656 -0.746,-0.2905 -1.86741,-0.43564 -3.20117,-0.45898 z m 35.80078,9.13281 c -2.31561,0.0174 -4.32354,0.33883 -5.57813,0.98633 -2.39066,1.23333 -3.56802,2.59534 -4.05468,5.02734 -0.1977,0.98244 -0.34817,1.98471 -0.47071,2.99414 h -0.043 c -1.50266,13.32134 3.02539,28.14258 3.02539,28.14258 -1.47866,-1.79867 -6.06574,-4.36608 -9.8164,-2.96875 -4.516,1.684 -7.28696,7.29496 -4.76563,11.4043 1.74267,2.84666 5.07954,2.81472 7.79688,3.52539 -2.14065,3.89497 -5.52554,8.62187 -9.58985,13.125 h -0.0937 c -13.03866,14.40666 -32.98228,26.4749 -41.23828,1.74023 0.12747,-0.50485 0.26705,-1.059 0.40821,-1.63281 h 0.0273 c 0.97467,-3.95867 1.91219,-9.11365 -2.00781,-10.82031 -1.71067,-0.74667 -3.00339,-0.98024 -4.77539,-0.37891 -2.31467,0.788 -4.03125,4.81055 -4.03125,4.81055 0,0 -3.3897,-1.87044 -5.20703,-0.89844 -1.63067,0.87467 -2.25586,4.17188 -2.25586,4.17188 0.092,1.04666 0.2149,2.08661 0.3789,3.11328 h 0.0195 c 1.63711,10.1302 6.85958,19.08029 17.12305,24.32031 8.576,4.376 16.46404,0.90249 24.60938,1.92383 -16.52134,10.724 -21.75078,6.64835 -36.27344,-2.57032 0,0 -0.8356,3.44536 -0.32227,5.55469 1.284,5.272 4.06648,9.76475 7.36914,13.33008 h 0.0996 c 2.43335,2.60584 5.13747,4.71524 7.73047,6.26367 7.73733,1.86534 24.76435,0.47946 24.29102,-1.92187 -0.432,-2.18134 -4.3246,-2.65527 -7.94727,-4.44727 h -0.19531 c -1.40447,-0.71569 -2.75975,-1.63059 -3.84375,-2.9375 27.916,4.73734 37.63072,-14.26093 47.38672,-27.18359 3.06933,-4.064 9.39211,-1.14742 9.41211,2.89258 0.12869,25.54523 -23.97812,24.88545 -40.69336,27.23047 h -0.77735 c -0.55733,0.0827 -1.10719,0.16776 -1.64453,0.25976 3.64667,3.31867 12.26931,3.09484 16.80664,3.21484 6.70659,0.17611 13.9899,-0.80596 19.96875,-3.37109 h 0.26563 c 3.916,-1.724 7.24832,-4.139 9.45898,-7.375 6.86267,-10.05067 8.40245,-24.56701 7.67578,-35.29101 h -0.01 c -0.53413,-7.72257 -2.24276,-13.45813 -3.98242,-14.09376 -4.7602,-1.74558 -12.01141,5.71829 -19.17774,14.0918 h -0.0957 c -6.64533,7.77067 -13.20853,16.29675 -17.64453,18.96875 -1.184,0.71334 -3.5293,0.31445 -3.5293,0.31445 0.58333,-6.32515 6.18857,-12.99287 13.22266,-19.17382 h 0.11718 c 9.328,-8.16534 21.12805,-15.46519 27.10938,-19.97852 3.74,-5.06933 -2.85733,-10.5427 -4.5,-14.9707 5.45333,0.11333 15.8587,0.55139 19.4707,4.91406 -3.11466,-0.264 -8.15828,0.30458 -10.37695,2.89258 9.128,4.868 17.94366,17.12658 24.34766,27.14258 h 0.0684 c 1.39493,2.18377 2.68129,4.26744 3.82226,6.13281 -0.75467,-1.96533 -1.55318,-4.06023 -2.33984,-6.24023 h -0.0371 c -3.28047,-9.12041 -6.3528,-19.72628 -5.42969,-28.64258 h 1.92773 c 1.028,9.268 4.7482,19.95933 8.76954,28.75 h 0.0488 c 3.55104,7.75165 7.32776,14.01863 9.6875,16.50976 0.69467,0.73467 1.67965,0.80093 2.57032,0.32227 3.57866,-1.916 6.52148,-7.71485 6.52148,-7.71485 0.18,-2.452 0.41999,-5.8286 0.22266,-9.2246 h -0.008 c -0.41287,-6.8066 -2.60592,-13.63365 -10.59375,-13.12305 -0.74,-4.60667 -2.52793,-21.4798 -6.19726,-18.73047 l -3.85742,2.89062 c 0,0 0.7963,-4.23348 -0.31836,-6.52148 -0.63867,-1.30533 -1.24704,-1.94324 -2.34571,-2.89258 -2.42533,-2.09333 -10.76682,-0.49684 -16.16015,-0.96484 1.84133,-2.01734 4.26046,-4.19838 6.8418,-5.23438 -1.51334,-5.06666 -6.37755,-7.51039 -11.04688,-8.65039 h -1.48828 c -1.35118,-0.25778 -2.65409,-0.41787 -3.81445,-0.50781 -3.58954,-0.27709 -6.77736,-0.0875 -9.35938,0.50586 h -1.22851 c -3.69734,1.132 -5.82756,3.22736 -5.57422,6.08203 0.296,3.348 3.34748,4.82438 4.27148,7.48438 l -1.92773,0.64257 c -3.1,-3.308 -7.10824,-7.13197 -5.87891,-12.30664 0.1448,-0.61293 0.30198,-1.10773 0.48438,-1.57812 h 0.12109 c 0.248,-0.56134 0.55929,-1.09314 1.00195,-1.73047 3.00534,-4.328 8.85764,-3.61516 13.04297,-3.53516 -3.30183,-2.67025 -9.88222,-4.1028 -14.97656,-4.06445 z m -126.32031,1.30078 c -1.99069,0.0343 -3.70704,2.11719 -3.70704,2.11719 -1.87821,2.08635 -3.84127,3.92286 -5.85351,5.58789 h -0.38086 c -11.51067,9.36 -24.68469,12.97575 -34.30469,21.98242 -0.56133,0.52533 -1.05516,2.15455 -0.3125,1.94922 10.832,-3.004 24.51523,-2.62279 30.47656,-0.32812 6.70774,-0.75425 17.39366,-13.7488 18.45704,-23.28126 h 0.0391 c 0.26,-2.90266 -0.40343,-5.46389 -2.38477,-7.22656 -0.671,-0.59633 -1.36573,-0.81222 -2.02929,-0.80078 z m 86.88086,22.29492 c -2.50224,-0.0182 -4.49412,0.42443 -5.23829,1.4336 -1.52,2.06533 -1.1875,6.46679 -1.1875,6.46679 -3.44,5.56267 -11.22946,7.98933 -14.46679,11.22266 -1.01334,1.008 -1.18558,16.27905 -0.37891,19.62305 h 0.0254 c 10e-4,0.004 0.003,0.009 0.004,0.0137 0.51066,1.868 4.77734,1.35742 4.77734,1.35742 0,0 4.72575,0.10756 8.20117,-1.37109 h 0.28125 c 0.95867,-0.44134 1.80359,-1.01258 2.40625,-1.75391 9.52534,-11.74533 25.8509,-25.69188 21.60157,-31.31055 -2.55109,-3.3715 -10.52049,-5.64158 -16.02539,-5.68164 z m -85.39844,3.66407 c -5.27067,7.49333 -21.48835,21.02481 -31.29102,19.13281 0,0 -0.3458,-1.54193 0.6582,-1.94727 6.95067,-2.808 18.30011,-7.85853 14.41211,-9.39453 -1.25066,-0.496 -40.74858,-2.77557 -46.53125,11.50977 -0.29466,0.72533 22.24339,0.27372 19.13672,3.40039 -3.14829,3.16957 -26.11517,-2.67645 -34.15429,12.27539 h -0.0625 c -0.224,0.424 -0.43548,0.86236 -0.63282,1.31836 0,0 -1.08322,3.15874 -0.33789,4.9414 1.14534,2.744 6.97461,3.08399 6.97461,3.08399 1.512,1.392 0.5685,2.47643 -0.82617,3.87109 -5.07067,-4.79866 -11.04409,1.3697 -13.49609,8.34571 -1.86499,5.3109 -3.16755,12.9269 -3.61328,20.99609 h -0.008 c -0.676,12.42133 0.67744,25.89039 5.13477,33.65039 1.564,2.72267 4.35007,6.35891 8.6914,9.01758 h 0.18946 c 3.80088,2.2826 8.76256,3.81276 15.11719,3.35351 0.388,-0.0293 -1.17688,-1.72093 -2.79688,-3.46093 h -0.0996 c -1.02534,-1.1013 -2.05851,-2.20827 -2.61719,-2.91016 -3.53466,-4.44133 -6.75263,-9.50981 -8.91797,-14.75781 -3.09253,-7.489 -4.38584,-16.30805 -3.53124,-24.78516 h 0.01 c 1.32933,-12.91067 7.65332,-25.01239 20.22266,-30.40039 6.20933,-2.66133 -11.2162,17.40016 -12.13086,19.29883 -1.54772,3.21703 -2.9521,7.0635 -3.7168,10.99805 h -0.0215 c -0.81734,4.26666 -0.87383,8.63096 0.46484,12.40429 0.38,1.07067 4.90788,8.3041 6.81055,7.13477 l 0.0547,-0.59571 c 0.72713,-7.9997 1.25922,-13.65885 3.05665,-18.83984 h 0.0332 c 1.82666,-5.20267 4.94551,-9.9335 10.85351,-16.07617 l 12.70118,-13.67578 c 0.364,-0.38 3.56388,-3.86229 2.81054,-4.37696 -1.27866,-0.88 -11.65355,4.45676 -12.32422,2.10743 -0.78133,-2.732 11.29891,-6.15712 16.37891,-5.67579 2.86397,-1.60709 3.51766,-2.37573 5.25586,-4.86132 h 0.0605 c 0.001,-0.0144 -0.0244,-0.0256 -0.0312,-0.0391 0.005,-0.007 0.007,-0.0109 0.0117,-0.0176 0.012,-0.016 0.0182,-0.0335 0.0195,-0.0508 h -0.0859 c -0.76755,-0.43883 -6.71287,-0.2245 -11.14844,-0.002 h -2.16797 c -1.59466,0.0907 -2.66992,0.16016 -2.66992,0.16016 -4.748,0.34533 -9.9216,0.75921 -14.57226,1.92187 -2.49067,0.62267 -4.27853,1.49301 -6.61719,2.40235 -6.45884,2.51235 -1.53597,-1.40038 3.99023,-4.37696 h 0.1875 c 2.368,-1.26133 4.82273,-2.33705 6.52539,-2.65039 7.09334,-1.30533 18.93185,-1.71698 32.47852,-1.20898 11.77066,-3.92933 24.43011,-11.51804 22.16211,-31.2207 z m -142.65039,5.73632 c -0.5844,0.38934 4.876,3.86198 6.32226,8.19532 0.25627,0.76933 0.10157,2.07812 0.10157,2.07812 0.0511,1.00533 -14.70308,-8.5917 -14.38282,-1.45703 5.94014,4.70933 9.66102,11.76989 13.18555,18.33789 2.1276,-3.09867 2.81055,-5.70401 2.81055,-9.41601 0,-0.33467 -0.11423,-2.45154 0.93164,-2.51954 0.8588,-0.056 1.56445,1.5586 1.56445,1.5586 0.39041,2.69844 -0.84772,7.81578 -2.65625,12.46289 h -0.0391 c -2.3136,5.90533 -5.54513,11.01085 -7.52539,9.35351 0.19893,-3.05866 -0.39124,-6.31546 -1.36524,-9.35546 h -0.0391 c -2.08214,-6.4227 -5.84705,-11.84723 -7.4043,-12.3086 -0.2428,-0.0733 -0.12715,4.97468 0.35352,12.41602 h 0.008 c 0.71461,11.04237 2.22559,27.29199 4.54688,39.91211 0.47293,2.56933 6.4717,-3.26858 8.3457,-9.75391 2.86124,-3.36343 1.51229,6.99815 0.73242,12.29492 h -0.0137 c -0.238,1.61734 -0.42252,2.74041 -0.40625,2.81641 9.81187,11.212 19.93626,22.67246 27.93359,36.20312 l 4.13477,1.8711 c 11.38267,-0.36267 17.86023,-30.12396 5.24023,-40.89063 h -0.13867 c -2.94129,-2.45017 -6.89461,-3.88955 -12.04297,-3.71094 1.41867,1.25067 2.75409,2.51774 3.96875,3.81641 h 0.0937 c 5.31852,5.73233 8.28839,12.13519 5.84571,20.8125 -0.85867,3.77333 -5.71481,-10.54137 -6.24414,-11.4707 -3.80801,-6.68267 -5.65043,-7.55927 -7.1211,-9.44727 h -0.0762 c -1.31587,-1.73551 -2.35036,-4.38643 -4.27149,-12.9707 -0.772,-3.45467 -3.01596,-7.46384 -5.85156,-9.70117 -1.74733,-1.37734 -9.02116,-3.36661 -7.88476,-3.97461 3.89645,-2.0831 8.53538,-8.45373 10.9082,-15.80664 h 0.0371 c 3.82,-11.96534 1.6027,-26.47904 -19.60156,-29.34571 z m 146.90234,13.53516 c -1.62917,0.0393 -3.2605,0.27017 -4.70117,0.57617 -4.92624,5.10232 -9.83842,10.21827 -14.98633,15.12891 h -0.10937 c -7.24,6.89866 -14.95042,13.38861 -23.84375,18.86328 0,0 0.18649,0.84458 1.78515,0.89258 8.28667,0.23866 40.91336,-15.05426 41.55469,-18.54492 0.0694,-0.37983 0.11136,-0.74742 0.14258,-1.10743 h 0.0137 c 0.26,-3.31333 -0.89813,-5.919 -0.2168,-9.01367 0.54134,-2.44933 2.91963,-3.26745 4.6543,-4.43945 l 0.39453,-1.7793 c -1.432,-0.46333 -3.05833,-0.6155 -4.6875,-0.57617 z m 95.18359,0.19531 c -0.8893,0.0375 -1.88213,0.51131 -2.77929,1.77539 -1.46404,2.06158 -7.40386,8.07304 -12.38477,13.73243 h -0.0976 c -4.62534,5.264 -8.38901,10.20036 -6.90235,11.3457 4.50711,1.99417 14.05832,-4.06647 20.10742,-11.24024 h 0.0918 c 4.22667,-5.04933 6.69951,-10.63299 4.46484,-14.34765 -0.38325,-0.64125 -1.35661,-1.31383 -2.5,-1.26563 z m -82.56445,4.21289 -1.13476,0.65039 c -2.33247,3.70582 -4.15508,7.25013 -5.47852,10.64258 h -0.0469 c -6.75334,17.41334 -0.15668,30.75461 20.11132,40.97461 0.0827,-7.22267 -6.97165,-13.46561 -11.34765,-18.48828 1.34666,-8.09467 1.73835,-15.18304 0.67968,-22.48437 h -0.0176 c -0.53792,-3.65753 -1.43855,-7.3731 -2.76563,-11.29493 z m 12.20117,1.86328 c -0.42702,0.0244 -0.87467,0.10053 -1.33984,0.24219 -2.09733,0.63867 -3.57757,1.94192 -3.74024,4.53125 -0.25066,1.43867 -0.23096,3.06163 -0.043,4.76563 h 0.0156 c 0.69851,6.098 3.51761,13.24104 3.77344,17.02148 0.59867,8.91733 5.1475,18.89178 12.1875,25.53711 h 0.11719 c 4.95134,4.62908 11.11989,7.61536 18.01171,7.44336 -2.724,-2.69467 -4.95315,-5.19949 -6.78515,-7.54883 h -0.0801 c -13.695,-17.64986 -4.80371,-26.5277 -12.64648,-42.56054 h -0.0547 c -1.11327,-2.25913 -2.55435,-4.65911 -4.44141,-7.2461 0,0 -1.98548,-2.35602 -4.97461,-2.18555 z m -27.64648,16.54883 c -8.292,5.99334 -13.44004,22.2915 -12.10938,35.54883 h 0.0137 c 0.73383,7.11144 3.33388,13.33849 8.32617,16.60742 l -0.56446,1.14453 c -3.652,-0.85333 -7.43345,-3.18601 -10.18945,-5.66601 -1.024,7.83333 7.02984,13.78107 12.45117,17.92773 l -2.07422,1.50782 -4.72265,-0.75391 c 2.18533,13.07467 25.69999,12.19262 34.72265,10.00195 0.628,0.652 1.27722,1.24968 1.94922,1.79102 h 0.14258 c 5.27426,4.16989 11.87683,4.79906 19.55859,0 h 0.17969 c 2.492,-1.58 5.0974,-3.73482 7.80274,-6.52149 2.784,-2.868 15.19723,-5.56614 19.22656,-9.99414 -40.66667,-2.00133 -44.03343,9.10204 -71.49609,-25.27929 11.87866,8.16666 41.22815,35.79203 62.16015,12.83203 2.57734,-2.82667 -21.56529,3.40572 -29.02929,-2.59961 -4.77067,-3.83734 -9.31721,-7.60352 -13.67188,-11.10352 h -0.13477 c -8.16946,-6.56215 -15.6733,-12.19408 -22.72851,-15.63086 -0.78267,-6.40933 -0.58057,-13.73783 1.88476,-19.8125 z m 171.91797,8.56446 c -1.20817,0.002 -2.63683,0.49591 -3.28516,1.08007 -1.036,0.93467 -0.23489,9.67573 -2.10156,15.15039 -1.73951,5.09561 -2.48693,5.78521 -6.72656,10.64844 h -0.0918 c -0.28133,0.32134 -0.57739,0.66077 -0.88672,1.02344 -5.13867,5.94 -0.33594,8.97461 -0.33594,8.97461 l 17.95117,19.82226 7.10743,-16.08398 c 0,0 -12.24395,-6.07243 -14.11328,-8.50977 -1.868,-2.43733 0.69921,-1.63476 0.69921,-1.63476 l 14.81641,5.93945 2.60547,-9.42578 h 0.0293 l 1.10156,-3.98242 c 0,0 -9.67862,-0.93366 -10.61328,-3.73633 -0.93467,-2.80133 1.5039,-2.33594 1.5039,-2.33594 l 10.04297,3.73633 2.20508,-14.11328 c 0,0 -3.60671,-2.80182 -7.10937,-3.03516 -3.50267,-0.23466 -9.91016,0.23243 -9.91016,0.23243 0,0 -0.2333,-1.97068 -1.16797,-3.13868 -0.3495,-0.438 -0.9958,-0.6128 -1.7207,-0.61132 z m -188.56836,2.71093 c -4.66692,0.16031 -23.46429,5.67032 -25.87695,15.38282 0.0547,2.612 2.65281,5.80262 6.13281,8.89062 h 0.12304 c 7.19048,6.3424 18.01556,12.22797 18.01954,11.75195 0.0225,-3.34369 0.24736,-7.48489 0.55664,-11.75195 h 0.006 c 0.78,-10.728 2.09065,-22.23705 2.08398,-24.01172 -10e-4,-0.19883 -0.37822,-0.28462 -1.04492,-0.26172 z m 139.96679,3.02735 c -0.39006,-0.0154 -0.84374,0.0808 -1.35937,0.30859 -3.48933,1.54 -23.22278,14.44531 -9.55078,14.44531 1.57333,0 2.45487,-0.32871 3.9082,-0.85937 8.64442,-3.15979 10.77259,-13.74548 7.00195,-13.89453 z m -218.5664,1.66797 c -1.90975,0.0707 -6.03536,1.17939 -7.44336,6.90039 -1.45733,5.916 2.04624,12.68964 7.62891,12.18164 0.67066,-0.0613 -2.88394,-11.78079 0.80273,-18.93946 0.0387,-0.0747 -0.3517,-0.16614 -0.98828,-0.14257 z m 44.89648,8.07226 c -3.80725,-0.12618 -7.45685,5.01896 -10.14062,11.39844 h -0.0488 c -4.50533,10.77867 -6.24822,25.00737 -1.32422,23.35937 5.63867,1.53334 3.54245,15.1496 5.31445,18.07227 0.22267,0.36667 0.59518,0.78299 1.08985,1.23633 h 0.12695 c 4.66893,4.18489 19.08173,11.24085 18.42188,9.03515 -1.02,-3.408 -1.62541,-6.44657 -1.94141,-9.14257 h -0.01 c -1.36207,-11.84795 2.84791,-17.03341 1.75,-17.75782 -3.84,-2.532 -11.692,-10.03864 -13,-16.80664 -0.51933,-2.68478 -0.48696,-5.38804 -0.22265,-7.88672 h 0.01 c 0.64667,-5.93866 2.60572,-10.6739 1.62305,-11.11523 -0.551,-0.24767 -1.1014,-0.37445 -1.64844,-0.39258 z m 5.32618,11.30664 c -0.0338,-0.0172 -0.0828,0.0365 -0.13477,0.0957 h -0.0898 c -0.16534,0.25066 -0.34375,0.63867 -0.34375,0.63867 -0.41067,19.04666 7.7566,16.98376 18.58593,29.12109 -1.02266,3.74267 -3.20189,7.12372 -2.47656,11.15039 0,0 0.25426,1.00498 1.54492,0.93164 0.68534,-0.0387 8.83264,-4.80165 12.55664,-9.59765 1.368,-1.76 1.23047,-5.58204 1.23047,-5.58204 -0.91733,-14.93733 -28.81225,-20.02806 -30.79492,-26.66406 h -0.0293 c -0.002,-0.008 -0.004,-0.0157 -0.006,-0.0234 -0.01,-0.039 -0.0252,-0.0613 -0.043,-0.0703 z m 193.75,0.33985 c -10.86001,8.08266 -33.06145,9.1863 -46.05079,8.43164 1.31467,4.95333 13.24127,8.6659 17.83594,8.7539 2.81733,-1.62133 5.95208,-2.98796 9.08008,-3.89062 0,0 2.30343,-0.23033 3.24609,0.65234 1.388,1.296 -0.32812,4.86133 -0.32812,4.86133 -5.71467,12.548 -15.81657,14.06242 -25.61524,17.84375 -1.11466,0.42933 -0.90661,1.7083 -0.97461,2.9043 -0.11466,2.052 8.42338,1.97051 11.99805,0.97851 -1.01586,0.60851 -1.96569,1.19461 -2.87109,1.77735 h -0.17383 c -7.92667,5.12 -11.84963,9.65441 -15.76563,19.84375 10.64936,0.25251 26.32186,-8.77452 35.74415,-19.73829 h 0.0957 c 4.63733,-5.42666 7.73812,-11.32149 7.93945,-16.79882 -3.18533,2.91333 -6.93649,7.39948 -11.67383,7.13281 8.07334,-10.11333 19.08301,-18.43329 17.51368,-32.75195 z m -64.86133,18.1582 c 0,0 0.0582,1.60851 0.32617,2.58984 1.88267,6.95334 27.27859,13.9158 38.91992,4.23047 3.00267,-2.5 1.29102,-4.87305 1.29102,-4.87305 -12.67867,-2.764 -30.80778,-0.64859 -40.53711,-1.94726 z m -76.23243,3.46289 c 1.48401,-0.136 31.66485,12.39999 37.46485,11.86133 5.79733,-0.54 1.6228,1.88672 -0.5332,1.88672 -2.16,0 -14.55682,-1.34786 -15.77149,-1.61719 -1.21333,-0.26933 5.12418,4.30958 4.85352,5.65625 -0.27067,1.34933 0.27081,1.75351 -1.61719,1.21484 -1.888,-0.54 -12.60135,-6.43793 -29.91602,-8.08594 -5.664,-0.53866 13.60048,-1.21244 12.25782,-2.42578 -1.34267,-1.21333 -7.14164,-4.71541 -7.68164,-6.46875 -0.53867,-1.752 0.94335,-2.02148 0.94335,-2.02148 z m -22.73242,19.69727 c -0.651,0.0229 -1.15847,0.10461 -1.49414,0.25195 0.136,0.29066 0.27778,0.57361 0.42578,0.84961 h 0.0605 c 7.11894,13.20634 27.53394,11.79421 39.31641,6.78125 -4.38667,-1.012 -18.9313,-4.94334 -29.2793,-6.88867 h -0.62305 c -3.54025,-0.64761 -6.56569,-1.05888 -8.40625,-0.99414 z m -9.24414,3.01953 c -1.17108,-0.016 -2.42629,0.1704 -3.52929,0.6914 -4.56934,2.15867 -8.28993,7.8716 -6.16993,11.82227 1.78134,3.316 7.12291,2.7902 10.37891,-0.48047 3.19867,-3.21733 4.50238,-9.20952 3.37305,-10.85352 -0.38417,-0.56 -2.10093,-1.15302 -4.05274,-1.17968 z m 157.82617,4.19726 c -10.95066,10.34667 -19.13334,12.48675 -26.91601,15.08008 -10.04,3.34667 -16.94967,16.89234 -16.375,17.51367 2.10667,2.26934 11.39632,-5.19389 13.45898,-5.83789 1.17467,-0.368 3.41825,2.4753 2.26758,2.91797 -5.02533,4.216 -17.99758,7.29682 -17.51758,9.41016 0.39467,1.74 10.55527,3.40307 15.08594,1.45507 1.66133,-1.85866 3.83333,-3.48845 6,-4.70312 l -0.32422,2.10742 c -4.28133,7.04933 -15.53683,9.72752 -23.1875,9.24219 -10.7,-9.24267 -36.15894,-1.78361 -29.34961,22.53906 1.01334,-0.31867 6.3273,-15.72949 20.91797,-18.16016 0.60933,1.37734 -2.683,3.04072 -5.51367,5.99805 -4.08267,4.2656 -4.90563,10.68831 -3.4043,16.21485 3.89067,-0.648 6.82774,-1.38557 9.56641,-3.24024 -0.044,-1.6068 0.8443,-13.26056 4.54297,-11.83789 l -0.32813,2.43164 -0.48633,9.07813 c 7.87067,-1.93747 16.42617,-7.80576 23.1875,-12.16016 -0.532,-0.82667 -2.13174,-2.87906 2.4336,-4.53906 1.95066,-0.70934 9.08408,-10.01352 9.08008,-17.99219 0,-1.952 8.02648,-9.32992 6.64648,-11.03125 -3.02667,1.72133 -13.8604,5.51232 -10.53906,1.45898 10.23066,-3.62266 20.0659,-14.98131 20.7539,-25.94531 z m -187.02148,2.90039 c -6.01467,6.736 0.3125,10.89768 0.3125,13.29102 0,3.84666 -7.64159,-3.03606 -8.29492,-1.66406 -0.82267,1.728 0.0305,8.76989 3.09179,12.97656 5.22801,7.18533 22.2129,5.07226 22.2129,5.07226 0.676,-0.17066 2.14976,-0.29688 1.87109,-0.93554 l -2.80664,-1.22071 c -0.776,-0.28933 -14.84715,-6.2958 -7.25781,-6.86914 4.81066,-0.36266 13.67046,1.05674 16.59179,-4.44726 -8.60666,-3.26667 -19.50203,-9.18579 -25.7207,-16.20313 z m -38.65039,23.51367 c -2.60018,0.0615 -5.18375,0.74998 -7.6875,2.22852 l -1.67383,2.08008 4.125,4.25195 0.37109,-0.12305 c 2.65467,-1.008 6.26506,-2.25684 9.1504,-1.10351 0.79733,0.31867 3.16284,2.05912 1.71484,3.06445 l -8.90625,0.61328 8.16992,5.8418 c 7.90267,-0.85333 19.84982,3.34426 4.53516,3.43359 l 18.91601,12.70508 c 0,0 2.86073,-0.52703 3.91407,-1.8457 0.816,-1.02133 1.07226,-3.17969 1.07226,-3.17969 -5.13,-10.3635 -19.6602,-28.299 -33.70117,-27.9668 z m 30.57031,4.74024 c -1.28857,-0.0344 -2.72637,0.6189 -4.27344,2.25391 0,0 -2.16639,1.96409 -2.28906,3.63476 -0.2,2.74267 5.09766,4.87109 5.09766,4.87109 11.68979,15.35532 9.33946,-10.54953 1.46484,-10.75976 z m 28.53516,4.72851 c -2.38181,0.0608 -6.6201,1.65105 -7.4961,2.49805 -3.28933,3.18267 -3.06979,9.37141 -3.84179,10.19141 -0.38,0.404 -19.39954,2.01341 -9.15821,12.71875 4.572,0.54013 9.67392,-0.3053 14.39258,-0.0625 0,0 2.98599,0.644 3.83399,-0.5 1.31866,-1.77734 -0.88587,-11.89797 0.71679,-17.91797 0.32134,-1.20533 3.54038,-5.4932 3.12305,-6.39453 -0.18767,-0.404 -0.77637,-0.55348 -1.57031,-0.53321 z"
           transform="matrix(7.4999999,0,0,-7.4999999,0,4231.8)"
           id="path4238" /></g><path
         d="m 2023.91,522.699 h 186.3 c 0,-200.027 -0.02,-321.5 0,-370.09 h -186.32 c 0.01,53.153 0.02,178.563 0.02,370.09 v 0"
         style="fill:#fff533;fill-opacity:1;fill-rule:nonzero;stroke:none"
         id="path4250" /><path
         d="m 1838.32,522.699 h 185.11 c 0,-196.758 0.01,-318.347 0.03,-370.09 h -185.14 v 370.09"
         style="fill:#264a90;fill-opacity:1;fill-rule:nonzero;stroke:none"
         id="path4252" /><path
         d="M 2043.91,401.211 V 273.719 l 25.16,43.75 h 27.79 v -26.278 l -44.87,-26.671 h 129.37 l -44.51,25.91 v 27.039 h 28.92 l 24.42,-43.75 v 127.492 l -23.68,-42.609 h -29.66 v 27.777 l 44.51,24.41 h -129.37 l 44.87,-24.41 v -27.777 h -28.54 l -24.41,42.609 v 0"
         style="fill:#ed1c24;fill-opacity:1;fill-rule:nonzero;stroke:none"
         id="path4254" /><path
         d="m 2107.94,386.379 h 15.21 v -40.738 h 40.75 V 330.43 h -40.75 v -40.75 h -15.21 v 40.75 h -40.74 v 15.211 h 40.74 v 40.738"
         style="fill:#ffffff;fill-opacity:1;fill-rule:nonzero;stroke:none"
         id="path4256" /><path
         d="m 2210.21,522.699 h 185.01 c 0,-196.758 0.02,-318.347 0.02,-370.09 h -185.03 v 370.09"
         style="fill:#264a90;fill-opacity:1;fill-rule:nonzero;stroke:none"
         id="path4258" /></g></g></svg>
