<?xml version="1.0" encoding="UTF-8" standalone="no"?>
<!-- Created with Inkscape (http://www.inkscape.org/) -->

<svg
   id="svg4136"
   version="1.1"
   inkscape:version="1.4 (e7c3feb1, 2024-10-09)"
   xml:space="preserve"
   width="1920"
   height="1080"
   viewBox="0 0 1800 1012.5"
   sodipodi:docname="askksa_thumb.svg"
   xmlns:inkscape="http://www.inkscape.org/namespaces/inkscape"
   xmlns:sodipodi="http://sodipodi.sourceforge.net/DTD/sodipodi-0.dtd"
   xmlns="http://www.w3.org/2000/svg"
   xmlns:svg="http://www.w3.org/2000/svg"
   xmlns:rdf="http://www.w3.org/1999/02/22-rdf-syntax-ns#"
   xmlns:cc="http://creativecommons.org/ns#"
   xmlns:dc="http://purl.org/dc/elements/1.1/"><metadata
     id="metadata4142"><rdf:RDF><cc:Work
         rdf:about=""><dc:format>image/svg+xml</dc:format><dc:type
           rdf:resource="http://purl.org/dc/dcmitype/StillImage" /></cc:Work></rdf:RDF></metadata><defs
     id="defs4140" /><sodipodi:namedview
     pagecolor="#ffffff"
     bordercolor="#666666"
     borderopacity="1"
     objecttolerance="10"
     gridtolerance="10"
     guidetolerance="10"
     inkscape:pageopacity="0"
     inkscape:pageshadow="2"
     inkscape:window-width="2512"
     inkscape:window-height="1387"
     id="namedview4138"
     showgrid="false"
     inkscape:zoom="0.40077511"
     inkscape:cx="525.23221"
     inkscape:cy="930.69651"
     inkscape:window-x="1728"
     inkscape:window-y="25"
     inkscape:window-maximized="1"
     inkscape:current-layer="g4146"
     inkscape:showpageshadow="2"
     inkscape:pagecheckerboard="0"
     inkscape:deskcolor="#d1d1d1" /><g
     id="g4144"
     inkscape:groupmode="layer"
     inkscape:label="ink_ext_XXXXXX"
     transform="matrix(1.25,0,0,-1.25,0,528.975)"><g
       id="g4146"
       transform="scale(0.1)"><rect
         style="fill:#231f20;fill-opacity:1;stroke-width:9.79551"
         id="rect1"
         width="14400"
         height="8100"
         x="-0.00010974371"
         y="-4231.7998"
         transform="scale(0.99999997,-0.99999997)" /><path
         d="m 3231.386,181.81247 c 0,2191.90673 1776.7918,3968.72333 3968.6431,3968.72333 2191.7959,0 3968.5849,-1776.8166 3968.5849,-3968.72333 0,-2191.87907 -1776.789,-3968.74827 -3968.5849,-3968.74827 -2191.8513,0 -3968.6431,1776.8693 -3968.6431,3968.74827 v 0"
         style="fill:#a4262c;fill-opacity:1;fill-rule:nonzero;stroke:none;stroke-width:2.76948"
         id="path4236"
         inkscape:connector-curvature="0" /><g
         id="g4260"
         transform="matrix(2.6204237,0,0,2.6204237,1707.4227,-5343.7503)"><path
           style="fill:#ffffff;fill-opacity:1;fill-rule:nonzero;stroke:none;stroke-width:0.133333"
           d="m 319.83594,122.95898 c -2.15466,0.11612 -4.43844,0.97295 -5.52344,2.28711 -1.73733,2.10134 -3.7364,3.27058 -6.53906,3.50391 -2.80134,0.23333 -6.64122,-2.10208 -11.31055,-0.46875 -4.672,1.636 -2.80306,5.94151 -4.53906,7.57617 -1.73734,1.63467 -3.73656,-0.46666 -5.83789,0 -2.10267,0.468 -5.23926,2.10063 -7.8086,6.64063 -2.56933,4.53866 1.16781,5.13776 1.86914,5.37109 0,0 11.30847,0.46865 13.98047,-1.16602 2.66934,-1.636 -1.27056,-5.00673 1.63477,-5.9414 2.904,-0.93333 7.23975,0.46654 10.84375,-0.4668 3.604,-0.93466 2.33594,-4.67187 2.33594,-4.67187 0,0 2.10176,-3.50212 5.37109,-2.80078 3.27067,0.7 7.33984,3.73632 7.33984,3.73632 0,0 6.40762,-0.70137 6.87696,-3.9707 0.46533,-3.26933 -2.8029,-7.57656 -5.24024,-8.97656 -0.914,-0.5255 -2.16033,-0.72202 -3.45312,-0.65235 z m 12.73437,1.62305 c -0.83422,-0.0548 -2.05758,0.2555 -2.64258,2.29883 -0.93466,3.26933 1.6363,6.64059 4.9043,7.80859 3.27067,1.168 4.07292,-1.868 6.40625,0 2.336,1.86934 -0.2317,2.80189 1.4043,5.83789 1.632,3.036 5.70518,-0.46558 7.33984,2.20508 1.63334,2.67067 -0.70016,4.67103 0.70117,7.70703 1.40134,3.036 7.3418,2.20414 4.20313,3.60547 -3.13733,1.40134 -3.26995,3.73669 -3.50195,6.30469 -0.23467,2.568 4.43437,3.8377 3.73437,5.70703 -0.7,1.868 -3.97002,0.23343 -6.30469,1.63477 -2.336,1.40133 0.23493,6.17275 -2.5664,7.10742 -2.80267,0.93333 -5.24096,-1.96875 -6.87696,-1.96875 -1.63466,0 -6.40566,2.90212 -6.875,5.93945 -0.46533,3.03467 2.57165,6.17276 5.70899,7.10742 3.13866,0.93334 7.2403,0.23421 8.04297,-2.20312 0.80133,-2.43734 2.09954,-3.97067 4.43554,-5.13867 2.33334,-1.16667 8.27354,0.93414 9.90821,-1.86719 1.636,-2.804 9.1e-4,-5.2402 -0.23242,-6.4082 -0.23201,-1.168 -2.10153,-1.6362 1.86914,-3.26954 3.96933,-1.636 4.53831,-4.5403 4.07031,-8.04296 -0.46667,-3.50267 -3.60365,-2.33393 -4.07031,-4.66993 -0.46934,-2.33466 2.10228,-3.13919 3.73828,-5.00586 1.632,-1.86933 1.268,-4.20452 0,-7.00586 -1.27067,-2.80266 -6.77474,-2.43733 -7.94141,-3.13867 -1.16933,-0.7 1.40058,-2.80173 -0.46875,-6.53906 -1.86667,-3.73733 -6.40635,-2.20312 -8.04102,-2.20312 -1.636,0 -3.73798,3.60439 -5.47265,1.40039 -1.736,-2.204 -7.93933,-6.77386 -10.61133,-7.00586 0,0 -0.3608,-0.16436 -0.86133,-0.19727 z m -16.00781,21.54883 c -0.23599,0.012 -0.48538,0.0451 -0.74805,0.10352 -4.204,0.93466 -2.90257,1.87041 -5.0039,4.20507 -2.10267,2.336 -5.13933,7.574 -3.97266,10.61133 1.16933,3.03467 2.10453,1.16739 3.50586,3.13672 1.40133,1.97067 -0.23561,6.77175 1.40039,10.84375 1.632,4.072 3.13737,2.10228 5.4707,3.73828 2.336,1.63333 -0.23177,2.80053 2.10157,5.00586 2.336,2.20267 4.90589,2.33584 8.97656,0.70117 4.07333,-1.636 2.10208,-6.17526 0.46875,-7.80859 -1.63467,-1.636 -4.30687,-1.86885 -6.4082,-2.10352 -2.10134,-0.232 -3.26758,-4.30459 -3.26758,-7.80859 0,-3.50267 4.66908,-1.40069 5.70508,-4.30469 1.036,-2.904 -1.26716,-1.86931 -1.03516,-6.30664 0.23333,-4.43733 -3.03711,-5.4707 -3.03711,-5.4707 0,0 -0.61646,-4.72278 -4.15625,-4.54297 z m -38.62305,4.7207 c -1.88083,0.0457 -2.81535,0.92235 -3.16601,1.79102 -1.59734,3.95866 -0.23483,7.47308 0.70117,10.84375 0.93333,3.372 -1.63503,5.1377 -2.56836,7.70703 -0.93467,2.56933 2.80007,7.3415 6.30273,7.57617 3.504,0.23333 8.7432,-2.56927 10.14454,-5.47461 1.40133,-2.90266 -5.60157,-6.53906 -5.60157,-6.53906 0,0 -1.9719,-0.9334 -1.5039,-2.80274 0.46666,-1.868 12.81311,-5.0042 4.53711,-9.9082 -4.138,-2.45266 -6.96487,-3.23902 -8.84571,-3.19336 z m 104.625,10.34766 c -0.32156,0.001 -0.586,0.0254 -0.75,0.0254 -0.65733,0 6e-5,5.4562 -1.47461,6.76953 -1.476,1.31067 -8.24749,0.16406 -10.04882,0.16406 -1.80534,0 -1.80578,-0.98533 -1.14844,1.63868 0.656,2.62266 9.39453,5.29492 9.39453,5.29492 0,0 1.14837,1.80197 0.98437,4.91797 -0.164,3.11466 -2.13333,5.95179 -3,7.59179 -0.05,0.0936 -0.11726,0.18107 -0.18359,0.26953 h -0.16992 c -1.32533,1.204 -3.98759,1.96222 -4.68359,3.07422 -0.81734,1.31067 2.46295,3.49176 4.26562,3.98242 1.804,0.492 2.17798,-1.31017 2.83398,-3.32617 0.31239,-0.95814 0.81276,-2.31579 1.3711,-3.30664 h 0.0273 c 0.55334,-0.828 1.1453,-1.1879 1.66797,-0.36523 0.076,0.12 0.14384,0.24318 0.20117,0.36719 h 0.35742 c 0.50049,1.65832 -0.36551,3.61232 -1.49414,5.48437 -1.30933,2.18 -3.76831,4.91797 -2.45898,4.91797 1.31333,0 3.11453,0.3266 4.75586,-0.16406 1.63733,-0.492 3.11588,-0.98312 4.31055,-4.42578 0.71066,-2.04401 0.75224,-4.27891 0.51757,-6.24024 h -0.2832 c -0.16308,-1.16119 -0.40389,-2.22787 -0.6582,-3.05469 -0.70534,-2.296 -2.29803,-2.18152 -3.44336,-3.49218 -1.148,-1.312 -0.16394,-5.08198 0.16406,-6.55665 0.32533,-1.47733 1.8033,-1.85376 3.2793,-2.50976 3.14533,-1.39733 5.62135,0.16418 7.91601,-1.14648 2.296,-1.31201 4.80425,-4.09937 3.65625,-5.08204 -1.14933,-0.984 -9.06445,2.13086 -9.06445,2.13086 0,0 -2.46146,2.12927 -3.32813,-0.16406 -0.87066,-2.296 1.03061,-2.7868 -0.16406,-4.9668 -0.897,-1.635 -2.38492,-1.83206 -3.34961,-1.82812 z m -177.30468,2.06445 c -13.72291,0.0829 -41.35511,10.32875 -53.54688,24.60352 h -0.16406 c -3.496,4.22533 -5.6272,8.79735 -5.64453,13.55469 -0.009,2.58 2.19361,7.13005 3.98828,5.27539 l 5.11328,-5.28321 -3.82813,8.46485 c 3.492,4.11333 8.52436,7.81623 13.56836,9.74023 1.75067,-4.364 4.34481,-10.43508 14.99414,-13.59375 3.81734,-1.13067 -10.23814,-4.02345 -15.63281,-7.80078 7.248,-5.25467 17.39598,0.3388 23.30664,5.10547 l 0.63672,-3.82813 c -3.852,-4.87866 -7.9916,-9.23014 -13.32226,-11.63281 h -1.28321 c -2.1322,-0.83106 -4.44042,-1.37424 -7,-1.50781 l 1.27735,-2.72266 c 6.44133,-1.79066 14.47955,-0.0876 20.07422,4.09375 0.19866,0.14934 0.32014,0.34445 0.38281,0.56446 h 0.26172 c 0.006,1.17988 -1.02344,2.73632 -1.02344,2.73632 6.30933,8.06934 31.79723,7.39798 40.22656,2.55664 0.82267,-1.75066 1.45091,-3.71137 1.87891,-5.7207 h -0.13477 c 0.40885,-2.06461 0.61691,-4.16992 0.59571,-6.14453 l 7.1875,-1.27539 -2.55079,3.18945 c 0.236,1.37334 0.20528,2.95554 -0.0254,4.65821 h 0.14258 c -1.22167,8.01036 -6.68438,18.56386 -10.28125,23.51562 0,0 -2.20414,-1.57145 -3.74414,-0.80078 -0.78667,0.39333 1.26143,5.20882 -0.86523,5.41016 -4.64267,0.44133 -4.83735,7.72148 -6.41602,7.52148 -1.37467,-0.17333 -1.17711,-5.70042 -2.53711,-6.23242 -0.98133,-0.38267 -4.40996,-3.48652 -5.2793,-2.61719 -0.78666,0.788 0.32558,4.17612 -0.98242,4.32813 -0.88,0.10266 -4.92969,-6.35352 -4.92969,-6.35352 -4.464,1.00267 -10.31574,-1.29479 -14.20507,-3.18945 3.36,2.724 6.29212,7.41234 7.18945,11.65234 0,0 -2.43949,0.67735 -2.54883,1.91602 -0.0382,0.42079 -0.107,0.93036 -0.17773,1.43554 h -0.0391 c -0.23067,1.59467 -0.53711,3.22071 -0.53711,3.22071 -1.076,-1.24267 -2.65991,-2.33137 -4.50391,-3.22071 h -0.73633 c -4.54852,-2.00747 -10.3756,-2.88787 -14.125,-2.07422 l -2.35937,2.07422 h -0.36524 l -2.54883,2.24024 c 8.70934,4.94666 17.9453,17.28071 21.39063,26.49804 1.89067,-4.50933 2.15512,-15.41513 17.56445,-15.48047 l -5.27344,-9.74023 c 12.48708,4.80726 30.32088,3.43011 43.22071,-3.19727 h 0.64648 c 7.696,-4.11066 13.52241,-10.13685 15.20508,-17.88085 1.32133,-6.084 -4.22003,-14.34987 -7.83203,-15.64454 -1.42133,-0.51066 -3.64022,-0.85875 -3.82422,0.64258 -0.68667,5.56 -4.67243,19.91822 -10.37109,27.93555 l -5.27539,-4.46289 c 15.872,-9.45333 10.67968,-25.33985 10.67968,-25.33985 2.90821,-0.29295 6.26836,0.0675 8.54493,-2.15429 h 0.1875 c 0.17066,-0.20267 0.33361,-0.42211 0.48828,-0.66211 3.84666,-5.95333 1.98994,-12.96046 3.36328,-18.8418 -11.67867,0 -23.92491,0.7845 -35.12891,-3.1875 0,0 3.55539,2.6389 4.63672,5.10156 1.85067,4.21734 0.3846,7.66363 -1.91406,11.6543 -1.19734,2.08 -4,4.67774 -4,4.67774 3.476,-14.97067 0.0439,-19.67547 -5.74805,-22.7168 -1.40042,-0.73542 -3.47998,-1.07606 -6.04687,-1.06055 z m -7.59766,5.75781 c 2.57526,-0.0136 5.50443,0.90464 7.30859,2.16797 2.88667,2.02 4.76219,5.46948 2.74219,11.24414 -1.04541,2.9851 -4.28454,4.6797 -7.31055,5.4336 h -2.22265 c -0.80534,0.0733 -1.5299,0.07 -2.11524,0.002 h -1.49609 c -0.0423,-0.0363 -0.0908,-0.0712 -0.11914,-0.11133 -3.25733,-4.65466 -13.1211,-9.36523 -13.1211,-9.36523 0,0 8.18378,-4.72151 12.39844,-8.21485 0.9715,-0.8055 2.39039,-1.14811 3.93555,-1.15625 z m 200.97266,3.07032 c -1.81067,-0.12934 -3.49105,4.31129 -3.98438,6.27929 -0.492,1.96667 0.16425,1.9668 -0.98242,1.9668 -1.148,0 -4.91816,1.3e-4 -5.41016,0.32813 -0.49333,0.328 -0.98527,2.34406 0.16407,3.16406 1.148,0.82 8.4073,2.5e-4 9.55664,0.65625 1.148,0.65466 2.94995,2.29663 1.64062,3.27929 -0.0583,0.0434 -0.11739,0.0637 -0.17578,0.10157 h -0.82227 c -0.32266,0.0533 -0.64608,0.0473 -0.96875,0.002 h -1.72656 c -0.0969,-0.0356 -0.19463,-0.0673 -0.29101,-0.10352 -1.31334,-0.492 -3.60634,-1.14818 -4.26368,-0.49218 -0.27066,0.272 -0.4285,0.62743 -0.45117,1.02344 h 0.23828 c 0,0 0,0.002 0,0.002 0.0799,0.43994 0.32386,0.90294 0.75586,1.33594 0.984,0.98266 3.11328,1.31085 3.11328,2.13085 0,0.81867 -0.82031,1.14844 -0.82031,1.14844 0,0 -3.60723,4.30941 -3.11523,6.44141 0.492,2.13067 1.313,1.96648 2.625,1.14648 1.31066,-0.81866 1.68915,-7.8673 4.14648,-6.55664 2.45867,1.31067 3.44221,4.09961 3.93555,4.09961 0.492,0 8.24318,0.49181 7.58984,-0.49219 -0.656,-0.984 -8.08404,-4.31104 -8.24805,-5.62304 -0.0754,-0.60679 0.34952,-2.15417 1.11719,-3.63281 0.89467,-1.55201 2.19124,-2.90813 3.75391,-2.82813 3.112,0.16133 4.43365,0.32412 7.59766,2.82813 h 0.7832 c 1.81231,1.30487 2.20308,0.56919 2.11133,-0.42774 h -0.29297 c -0.0793,-0.40432 -0.19176,-0.80518 -0.3125,-1.08594 -0.492,-1.14933 -7.86927,-6.60912 -12.83594,-5.95312 -4.96933,0.656 -1.80549,-3.60603 -2.29883,-5.08203 -0.492,-1.47467 0.16443,-3.49225 -2.1289,-3.65625 z M 197.97852,173 c -1.55584,-0.0357 -3.00477,0.15241 -3.88477,0.56641 -1.76,0.828 -3.62109,4.14062 -3.62109,4.14062 0,0 3.1045,1.94014 4.45117,4.24414 1.344,2.304 0.51527,2.09693 2.58594,2.82227 2.07066,0.724 6.96069,-1.78688 7.58203,-4.68555 0.62,-2.89867 0.0268,-5.35517 -2.58789,-6.3125 -1.30734,-0.47933 -2.96956,-0.73972 -4.52539,-0.77539 z m -2.4336,2.93555 c 1.00534,0 1.82227,0.81302 1.82227,1.81836 0,1.00533 -0.81693,1.82226 -1.82227,1.82226 -1.00666,0 -1.82031,-0.81693 -1.82031,-1.82226 0,-1.00534 0.81365,-1.81836 1.82031,-1.81836 z m 92.76563,3.21289 c -1.80984,-0.0293 -3.91229,0.32028 -6.76563,1.48828 -5.148,2.10667 -1.76597,6.76949 -1.05664,7.66016 h 1.13477 c 1.80683,0.62687 7.48829,2.69578 10.04492,4.86132 3.036,2.56934 2.43666,8.74128 10.61133,8.97461 8.172,0.23334 8.97656,-4.20312 8.97656,-4.20312 0,0 2.33418,-5.7071 -3.03516,-8.50977 -5.372,-2.80133 -11.54492,0 -11.54492,0 0,0 -1.11358,-0.18545 -2.01758,-1.55078 h -0.46093 c -0.0231,-0.0432 -0.0477,-0.0779 -0.0703,-0.12305 -0.93466,-1.868 2.56794,-7.10859 -0.80273,-7.80859 -1.686,-0.35067 -3.20384,-0.75973 -5.01367,-0.78906 z m 30.39843,17.04687 c -2.37793,-0.0112 -3.61523,1.26758 -3.61523,1.26758 0,0 -4.7722,2.56752 -1.26953,8.74219 3.50267,6.17333 11.17956,4.90407 15.85156,2.80273 8.64,-3.88933 2.33399,-7.57617 2.33399,-7.57617 0,0 -1.8686,0.70114 -7.8086,-3.26953 -2.2275,-1.489 -4.06543,-1.96008 -5.49219,-1.9668 z m -100.94726,4.04688 c -8.068,0.31066 -16.89277,2.63449 -24.88477,0.78515 0,15.64134 25.67446,2.55583 32.31446,0.78516 2.71733,-0.724 -6.52302,-1.60631 -7.42969,-1.57031 z m 129.42383,6.5 c -5.77965,-0.10114 -15.56048,2.07664 -16.19532,4.53906 -3.088,11.99333 9.88076,-0.40398 13.60743,12.41602 0.13681,0.46992 0.19423,0.91711 0.20703,1.34765 -0.12219,4.24279 -5.23613,6.89335 -0.0371,11.26953 4.09466,3.44534 12.90276,2.45722 15.99609,-2.05078 1.428,-2.08266 1.61001,-6.35019 0.88867,-9.38086 h -0.0937 c -0.16985,-0.63574 -0.37373,-1.22234 -0.625,-1.69531 -1.64533,-3.10267 -8.78867,-2.22777 -9.52734,-4.75977 -0.93067,-3.19066 5.6338,-8.63456 -1.01953,-11.22656 -0.746,-0.2905 -1.86741,-0.43564 -3.20117,-0.45898 z m 35.80078,9.13281 c -2.31561,0.0174 -4.32354,0.33883 -5.57813,0.98633 -2.39066,1.23333 -3.56802,2.59534 -4.05468,5.02734 -0.1977,0.98244 -0.34817,1.98471 -0.47071,2.99414 h -0.043 c -1.50266,13.32134 3.02539,28.14258 3.02539,28.14258 -1.47866,-1.79867 -6.06574,-4.36608 -9.8164,-2.96875 -4.516,1.684 -7.28696,7.29496 -4.76563,11.4043 1.74267,2.84666 5.07954,2.81472 7.79688,3.52539 -2.14065,3.89497 -5.52554,8.62187 -9.58985,13.125 h -0.0937 c -13.03866,14.40666 -32.98228,26.4749 -41.23828,1.74023 0.12747,-0.50485 0.26705,-1.059 0.40821,-1.63281 h 0.0273 c 0.97467,-3.95867 1.91219,-9.11365 -2.00781,-10.82031 -1.71067,-0.74667 -3.00339,-0.98024 -4.77539,-0.37891 -2.31467,0.788 -4.03125,4.81055 -4.03125,4.81055 0,0 -3.3897,-1.87044 -5.20703,-0.89844 -1.63067,0.87467 -2.25586,4.17188 -2.25586,4.17188 0.092,1.04666 0.2149,2.08661 0.3789,3.11328 h 0.0195 c 1.63711,10.1302 6.85958,19.08029 17.12305,24.32031 8.576,4.376 16.46404,0.90249 24.60938,1.92383 -16.52134,10.724 -21.75078,6.64835 -36.27344,-2.57032 0,0 -0.8356,3.44536 -0.32227,5.55469 1.284,5.272 4.06648,9.76475 7.36914,13.33008 h 0.0996 c 2.43335,2.60584 5.13747,4.71524 7.73047,6.26367 7.73733,1.86534 24.76435,0.47946 24.29102,-1.92187 -0.432,-2.18134 -4.3246,-2.65527 -7.94727,-4.44727 h -0.19531 c -1.40447,-0.71569 -2.75975,-1.63059 -3.84375,-2.9375 27.916,4.73734 37.63072,-14.26093 47.38672,-27.18359 3.06933,-4.064 9.39211,-1.14742 9.41211,2.89258 0.12869,25.54523 -23.97812,24.88545 -40.69336,27.23047 h -0.77735 c -0.55733,0.0827 -1.10719,0.16776 -1.64453,0.25976 3.64667,3.31867 12.26931,3.09484 16.80664,3.21484 6.70659,0.17611 13.9899,-0.80596 19.96875,-3.37109 h 0.26563 c 3.916,-1.724 7.24832,-4.139 9.45898,-7.375 6.86267,-10.05067 8.40245,-24.56701 7.67578,-35.29101 h -0.01 c -0.53413,-7.72257 -2.24276,-13.45813 -3.98242,-14.09376 -4.7602,-1.74558 -12.01141,5.71829 -19.17774,14.0918 h -0.0957 c -6.64533,7.77067 -13.20853,16.29675 -17.64453,18.96875 -1.184,0.71334 -3.5293,0.31445 -3.5293,0.31445 0.58333,-6.32515 6.18857,-12.99287 13.22266,-19.17382 h 0.11718 c 9.328,-8.16534 21.12805,-15.46519 27.10938,-19.97852 3.74,-5.06933 -2.85733,-10.5427 -4.5,-14.9707 5.45333,0.11333 15.8587,0.55139 19.4707,4.91406 -3.11466,-0.264 -8.15828,0.30458 -10.37695,2.89258 9.128,4.868 17.94366,17.12658 24.34766,27.14258 h 0.0684 c 1.39493,2.18377 2.68129,4.26744 3.82226,6.13281 -0.75467,-1.96533 -1.55318,-4.06023 -2.33984,-6.24023 h -0.0371 c -3.28047,-9.12041 -6.3528,-19.72628 -5.42969,-28.64258 h 1.92773 c 1.028,9.268 4.7482,19.95933 8.76954,28.75 h 0.0488 c 3.55104,7.75165 7.32776,14.01863 9.6875,16.50976 0.69467,0.73467 1.67965,0.80093 2.57032,0.32227 3.57866,-1.916 6.52148,-7.71485 6.52148,-7.71485 0.18,-2.452 0.41999,-5.8286 0.22266,-9.2246 h -0.008 c -0.41287,-6.8066 -2.60592,-13.63365 -10.59375,-13.12305 -0.74,-4.60667 -2.52793,-21.4798 -6.19726,-18.73047 l -3.85742,2.89062 c 0,0 0.7963,-4.23348 -0.31836,-6.52148 -0.63867,-1.30533 -1.24704,-1.94324 -2.34571,-2.89258 -2.42533,-2.09333 -10.76682,-0.49684 -16.16015,-0.96484 1.84133,-2.01734 4.26046,-4.19838 6.8418,-5.23438 -1.51334,-5.06666 -6.37755,-7.51039 -11.04688,-8.65039 h -1.48828 c -1.35118,-0.25778 -2.65409,-0.41787 -3.81445,-0.50781 -3.58954,-0.27709 -6.77736,-0.0875 -9.35938,0.50586 h -1.22851 c -3.69734,1.132 -5.82756,3.22736 -5.57422,6.08203 0.296,3.348 3.34748,4.82438 4.27148,7.48438 l -1.92773,0.64257 c -3.1,-3.308 -7.10824,-7.13197 -5.87891,-12.30664 0.1448,-0.61293 0.30198,-1.10773 0.48438,-1.57812 h 0.12109 c 0.248,-0.56134 0.55929,-1.09314 1.00195,-1.73047 3.00534,-4.328 8.85764,-3.61516 13.04297,-3.53516 -3.30183,-2.67025 -9.88222,-4.1028 -14.97656,-4.06445 z m -126.32031,1.30078 c -1.99069,0.0343 -3.70704,2.11719 -3.70704,2.11719 -1.87821,2.08635 -3.84127,3.92286 -5.85351,5.58789 h -0.38086 c -11.51067,9.36 -24.68469,12.97575 -34.30469,21.98242 -0.56133,0.52533 -1.05516,2.15455 -0.3125,1.94922 10.832,-3.004 24.51523,-2.62279 30.47656,-0.32812 6.70774,-0.75425 17.39366,-13.7488 18.45704,-23.28126 h 0.0391 c 0.26,-2.90266 -0.40343,-5.46389 -2.38477,-7.22656 -0.671,-0.59633 -1.36573,-0.81222 -2.02929,-0.80078 z m 86.88086,22.29492 c -2.50224,-0.0182 -4.49412,0.42443 -5.23829,1.4336 -1.52,2.06533 -1.1875,6.46679 -1.1875,6.46679 -3.44,5.56267 -11.22946,7.98933 -14.46679,11.22266 -1.01334,1.008 -1.18558,16.27905 -0.37891,19.62305 h 0.0254 c 10e-4,0.004 0.003,0.009 0.004,0.0137 0.51066,1.868 4.77734,1.35742 4.77734,1.35742 0,0 4.72575,0.10756 8.20117,-1.37109 h 0.28125 c 0.95867,-0.44134 1.80359,-1.01258 2.40625,-1.75391 9.52534,-11.74533 25.8509,-25.69188 21.60157,-31.31055 -2.55109,-3.3715 -10.52049,-5.64158 -16.02539,-5.68164 z m -85.39844,3.66407 c -5.27067,7.49333 -21.48835,21.02481 -31.29102,19.13281 0,0 -0.3458,-1.54193 0.6582,-1.94727 6.95067,-2.808 18.30011,-7.85853 14.41211,-9.39453 -1.25066,-0.496 -40.74858,-2.77557 -46.53125,11.50977 -0.29466,0.72533 22.24339,0.27372 19.13672,3.40039 -3.14829,3.16957 -26.11517,-2.67645 -34.15429,12.27539 h -0.0625 c -0.224,0.424 -0.43548,0.86236 -0.63282,1.31836 0,0 -1.08322,3.15874 -0.33789,4.9414 1.14534,2.744 6.97461,3.08399 6.97461,3.08399 1.512,1.392 0.5685,2.47643 -0.82617,3.87109 -5.07067,-4.79866 -11.04409,1.3697 -13.49609,8.34571 -1.86499,5.3109 -3.16755,12.9269 -3.61328,20.99609 h -0.008 c -0.676,12.42133 0.67744,25.89039 5.13477,33.65039 1.564,2.72267 4.35007,6.35891 8.6914,9.01758 h 0.18946 c 3.80088,2.2826 8.76256,3.81276 15.11719,3.35351 0.388,-0.0293 -1.17688,-1.72093 -2.79688,-3.46093 h -0.0996 c -1.02534,-1.1013 -2.05851,-2.20827 -2.61719,-2.91016 -3.53466,-4.44133 -6.75263,-9.50981 -8.91797,-14.75781 -3.09253,-7.489 -4.38584,-16.30805 -3.53124,-24.78516 h 0.01 c 1.32933,-12.91067 7.65332,-25.01239 20.22266,-30.40039 6.20933,-2.66133 -11.2162,17.40016 -12.13086,19.29883 -1.54772,3.21703 -2.9521,7.0635 -3.7168,10.99805 h -0.0215 c -0.81734,4.26666 -0.87383,8.63096 0.46484,12.40429 0.38,1.07067 4.90788,8.3041 6.81055,7.13477 l 0.0547,-0.59571 c 0.72713,-7.9997 1.25922,-13.65885 3.05665,-18.83984 h 0.0332 c 1.82666,-5.20267 4.94551,-9.9335 10.85351,-16.07617 l 12.70118,-13.67578 c 0.364,-0.38 3.56388,-3.86229 2.81054,-4.37696 -1.27866,-0.88 -11.65355,4.45676 -12.32422,2.10743 -0.78133,-2.732 11.29891,-6.15712 16.37891,-5.67579 2.86397,-1.60709 3.51766,-2.37573 5.25586,-4.86132 h 0.0605 c 0.001,-0.0144 -0.0244,-0.0256 -0.0312,-0.0391 0.005,-0.007 0.007,-0.0109 0.0117,-0.0176 0.012,-0.016 0.0182,-0.0335 0.0195,-0.0508 h -0.0859 c -0.76755,-0.43883 -6.71287,-0.2245 -11.14844,-0.002 h -2.16797 c -1.59466,0.0907 -2.66992,0.16016 -2.66992,0.16016 -4.748,0.34533 -9.9216,0.75921 -14.57226,1.92187 -2.49067,0.62267 -4.27853,1.49301 -6.61719,2.40235 -6.45884,2.51235 -1.53597,-1.40038 3.99023,-4.37696 h 0.1875 c 2.368,-1.26133 4.82273,-2.33705 6.52539,-2.65039 7.09334,-1.30533 18.93185,-1.71698 32.47852,-1.20898 11.77066,-3.92933 24.43011,-11.51804 22.16211,-31.2207 z m -142.65039,5.73632 c -0.5844,0.38934 4.876,3.86198 6.32226,8.19532 0.25627,0.76933 0.10157,2.07812 0.10157,2.07812 0.0511,1.00533 -14.70308,-8.5917 -14.38282,-1.45703 5.94014,4.70933 9.66102,11.76989 13.18555,18.33789 2.1276,-3.09867 2.81055,-5.70401 2.81055,-9.41601 0,-0.33467 -0.11423,-2.45154 0.93164,-2.51954 0.8588,-0.056 1.56445,1.5586 1.56445,1.5586 0.39041,2.69844 -0.84772,7.81578 -2.65625,12.46289 h -0.0391 c -2.3136,5.90533 -5.54513,11.01085 -7.52539,9.35351 0.19893,-3.05866 -0.39124,-6.31546 -1.36524,-9.35546 h -0.0391 c -2.08214,-6.4227 -5.84705,-11.84723 -7.4043,-12.3086 -0.2428,-0.0733 -0.12715,4.97468 0.35352,12.41602 h 0.008 c 0.71461,11.04237 2.22559,27.29199 4.54688,39.91211 0.47293,2.56933 6.4717,-3.26858 8.3457,-9.75391 2.86124,-3.36343 1.51229,6.99815 0.73242,12.29492 h -0.0137 c -0.238,1.61734 -0.42252,2.74041 -0.40625,2.81641 9.81187,11.212 19.93626,22.67246 27.93359,36.20312 l 4.13477,1.8711 c 11.38267,-0.36267 17.86023,-30.12396 5.24023,-40.89063 h -0.13867 c -2.94129,-2.45017 -6.89461,-3.88955 -12.04297,-3.71094 1.41867,1.25067 2.75409,2.51774 3.96875,3.81641 h 0.0937 c 5.31852,5.73233 8.28839,12.13519 5.84571,20.8125 -0.85867,3.77333 -5.71481,-10.54137 -6.24414,-11.4707 -3.80801,-6.68267 -5.65043,-7.55927 -7.1211,-9.44727 h -0.0762 c -1.31587,-1.73551 -2.35036,-4.38643 -4.27149,-12.9707 -0.772,-3.45467 -3.01596,-7.46384 -5.85156,-9.70117 -1.74733,-1.37734 -9.02116,-3.36661 -7.88476,-3.97461 3.89645,-2.0831 8.53538,-8.45373 10.9082,-15.80664 h 0.0371 c 3.82,-11.96534 1.6027,-26.47904 -19.60156,-29.34571 z m 146.90234,13.53516 c -1.62917,0.0393 -3.2605,0.27017 -4.70117,0.57617 -4.92624,5.10232 -9.83842,10.21827 -14.98633,15.12891 h -0.10937 c -7.24,6.89866 -14.95042,13.38861 -23.84375,18.86328 0,0 0.18649,0.84458 1.78515,0.89258 8.28667,0.23866 40.91336,-15.05426 41.55469,-18.54492 0.0694,-0.37983 0.11136,-0.74742 0.14258,-1.10743 h 0.0137 c 0.26,-3.31333 -0.89813,-5.919 -0.2168,-9.01367 0.54134,-2.44933 2.91963,-3.26745 4.6543,-4.43945 l 0.39453,-1.7793 c -1.432,-0.46333 -3.05833,-0.6155 -4.6875,-0.57617 z m 95.18359,0.19531 c -0.8893,0.0375 -1.88213,0.51131 -2.77929,1.77539 -1.46404,2.06158 -7.40386,8.07304 -12.38477,13.73243 h -0.0976 c -4.62534,5.264 -8.38901,10.20036 -6.90235,11.3457 4.50711,1.99417 14.05832,-4.06647 20.10742,-11.24024 h 0.0918 c 4.22667,-5.04933 6.69951,-10.63299 4.46484,-14.34765 -0.38325,-0.64125 -1.35661,-1.31383 -2.5,-1.26563 z m -82.56445,4.21289 -1.13476,0.65039 c -2.33247,3.70582 -4.15508,7.25013 -5.47852,10.64258 h -0.0469 c -6.75334,17.41334 -0.15668,30.75461 20.11132,40.97461 0.0827,-7.22267 -6.97165,-13.46561 -11.34765,-18.48828 1.34666,-8.09467 1.73835,-15.18304 0.67968,-22.48437 h -0.0176 c -0.53792,-3.65753 -1.43855,-7.3731 -2.76563,-11.29493 z m 12.20117,1.86328 c -0.42702,0.0244 -0.87467,0.10053 -1.33984,0.24219 -2.09733,0.63867 -3.57757,1.94192 -3.74024,4.53125 -0.25066,1.43867 -0.23096,3.06163 -0.043,4.76563 h 0.0156 c 0.69851,6.098 3.51761,13.24104 3.77344,17.02148 0.59867,8.91733 5.1475,18.89178 12.1875,25.53711 h 0.11719 c 4.95134,4.62908 11.11989,7.61536 18.01171,7.44336 -2.724,-2.69467 -4.95315,-5.19949 -6.78515,-7.54883 h -0.0801 c -13.695,-17.64986 -4.80371,-26.5277 -12.64648,-42.56054 h -0.0547 c -1.11327,-2.25913 -2.55435,-4.65911 -4.44141,-7.2461 0,0 -1.98548,-2.35602 -4.97461,-2.18555 z m -27.64648,16.54883 c -8.292,5.99334 -13.44004,22.2915 -12.10938,35.54883 h 0.0137 c 0.73383,7.11144 3.33388,13.33849 8.32617,16.60742 l -0.56446,1.14453 c -3.652,-0.85333 -7.43345,-3.18601 -10.18945,-5.66601 -1.024,7.83333 7.02984,13.78107 12.45117,17.92773 l -2.07422,1.50782 -4.72265,-0.75391 c 2.18533,13.07467 25.69999,12.19262 34.72265,10.00195 0.628,0.652 1.27722,1.24968 1.94922,1.79102 h 0.14258 c 5.27426,4.16989 11.87683,4.79906 19.55859,0 h 0.17969 c 2.492,-1.58 5.0974,-3.73482 7.80274,-6.52149 2.784,-2.868 15.19723,-5.56614 19.22656,-9.99414 -40.66667,-2.00133 -44.03343,9.10204 -71.49609,-25.27929 11.87866,8.16666 41.22815,35.79203 62.16015,12.83203 2.57734,-2.82667 -21.56529,3.40572 -29.02929,-2.59961 -4.77067,-3.83734 -9.31721,-7.60352 -13.67188,-11.10352 h -0.13477 c -8.16946,-6.56215 -15.6733,-12.19408 -22.72851,-15.63086 -0.78267,-6.40933 -0.58057,-13.73783 1.88476,-19.8125 z m 171.91797,8.56446 c -1.20817,0.002 -2.63683,0.49591 -3.28516,1.08007 -1.036,0.93467 -0.23489,9.67573 -2.10156,15.15039 -1.73951,5.09561 -2.48693,5.78521 -6.72656,10.64844 h -0.0918 c -0.28133,0.32134 -0.57739,0.66077 -0.88672,1.02344 -5.13867,5.94 -0.33594,8.97461 -0.33594,8.97461 l 17.95117,19.82226 7.10743,-16.08398 c 0,0 -12.24395,-6.07243 -14.11328,-8.50977 -1.868,-2.43733 0.69921,-1.63476 0.69921,-1.63476 l 14.81641,5.93945 2.60547,-9.42578 h 0.0293 l 1.10156,-3.98242 c 0,0 -9.67862,-0.93366 -10.61328,-3.73633 -0.93467,-2.80133 1.5039,-2.33594 1.5039,-2.33594 l 10.04297,3.73633 2.20508,-14.11328 c 0,0 -3.60671,-2.80182 -7.10937,-3.03516 -3.50267,-0.23466 -9.91016,0.23243 -9.91016,0.23243 0,0 -0.2333,-1.97068 -1.16797,-3.13868 -0.3495,-0.438 -0.9958,-0.6128 -1.7207,-0.61132 z m -188.56836,2.71093 c -4.66692,0.16031 -23.46429,5.67032 -25.87695,15.38282 0.0547,2.612 2.65281,5.80262 6.13281,8.89062 h 0.12304 c 7.19048,6.3424 18.01556,12.22797 18.01954,11.75195 0.0225,-3.34369 0.24736,-7.48489 0.55664,-11.75195 h 0.006 c 0.78,-10.728 2.09065,-22.23705 2.08398,-24.01172 -10e-4,-0.19883 -0.37822,-0.28462 -1.04492,-0.26172 z m 139.96679,3.02735 c -0.39006,-0.0154 -0.84374,0.0808 -1.35937,0.30859 -3.48933,1.54 -23.22278,14.44531 -9.55078,14.44531 1.57333,0 2.45487,-0.32871 3.9082,-0.85937 8.64442,-3.15979 10.77259,-13.74548 7.00195,-13.89453 z m -218.5664,1.66797 c -1.90975,0.0707 -6.03536,1.17939 -7.44336,6.90039 -1.45733,5.916 2.04624,12.68964 7.62891,12.18164 0.67066,-0.0613 -2.88394,-11.78079 0.80273,-18.93946 0.0387,-0.0747 -0.3517,-0.16614 -0.98828,-0.14257 z m 44.89648,8.07226 c -3.80725,-0.12618 -7.45685,5.01896 -10.14062,11.39844 h -0.0488 c -4.50533,10.77867 -6.24822,25.00737 -1.32422,23.35937 5.63867,1.53334 3.54245,15.1496 5.31445,18.07227 0.22267,0.36667 0.59518,0.78299 1.08985,1.23633 h 0.12695 c 4.66893,4.18489 19.08173,11.24085 18.42188,9.03515 -1.02,-3.408 -1.62541,-6.44657 -1.94141,-9.14257 h -0.01 c -1.36207,-11.84795 2.84791,-17.03341 1.75,-17.75782 -3.84,-2.532 -11.692,-10.03864 -13,-16.80664 -0.51933,-2.68478 -0.48696,-5.38804 -0.22265,-7.88672 h 0.01 c 0.64667,-5.93866 2.60572,-10.6739 1.62305,-11.11523 -0.551,-0.24767 -1.1014,-0.37445 -1.64844,-0.39258 z m 5.32618,11.30664 c -0.0338,-0.0172 -0.0828,0.0365 -0.13477,0.0957 h -0.0898 c -0.16534,0.25066 -0.34375,0.63867 -0.34375,0.63867 -0.41067,19.04666 7.7566,16.98376 18.58593,29.12109 -1.02266,3.74267 -3.20189,7.12372 -2.47656,11.15039 0,0 0.25426,1.00498 1.54492,0.93164 0.68534,-0.0387 8.83264,-4.80165 12.55664,-9.59765 1.368,-1.76 1.23047,-5.58204 1.23047,-5.58204 -0.91733,-14.93733 -28.81225,-20.02806 -30.79492,-26.66406 h -0.0293 c -0.002,-0.008 -0.004,-0.0157 -0.006,-0.0234 -0.01,-0.039 -0.0252,-0.0613 -0.043,-0.0703 z m 193.75,0.33985 c -10.86001,8.08266 -33.06145,9.1863 -46.05079,8.43164 1.31467,4.95333 13.24127,8.6659 17.83594,8.7539 2.81733,-1.62133 5.95208,-2.98796 9.08008,-3.89062 0,0 2.30343,-0.23033 3.24609,0.65234 1.388,1.296 -0.32812,4.86133 -0.32812,4.86133 -5.71467,12.548 -15.81657,14.06242 -25.61524,17.84375 -1.11466,0.42933 -0.90661,1.7083 -0.97461,2.9043 -0.11466,2.052 8.42338,1.97051 11.99805,0.97851 -1.01586,0.60851 -1.96569,1.19461 -2.87109,1.77735 h -0.17383 c -7.92667,5.12 -11.84963,9.65441 -15.76563,19.84375 10.64936,0.25251 26.32186,-8.77452 35.74415,-19.73829 h 0.0957 c 4.63733,-5.42666 7.73812,-11.32149 7.93945,-16.79882 -3.18533,2.91333 -6.93649,7.39948 -11.67383,7.13281 8.07334,-10.11333 19.08301,-18.43329 17.51368,-32.75195 z m -64.86133,18.1582 c 0,0 0.0582,1.60851 0.32617,2.58984 1.88267,6.95334 27.27859,13.9158 38.91992,4.23047 3.00267,-2.5 1.29102,-4.87305 1.29102,-4.87305 -12.67867,-2.764 -30.80778,-0.64859 -40.53711,-1.94726 z m -76.23243,3.46289 c 1.48401,-0.136 31.66485,12.39999 37.46485,11.86133 5.79733,-0.54 1.6228,1.88672 -0.5332,1.88672 -2.16,0 -14.55682,-1.34786 -15.77149,-1.61719 -1.21333,-0.26933 5.12418,4.30958 4.85352,5.65625 -0.27067,1.34933 0.27081,1.75351 -1.61719,1.21484 -1.888,-0.54 -12.60135,-6.43793 -29.91602,-8.08594 -5.664,-0.53866 13.60048,-1.21244 12.25782,-2.42578 -1.34267,-1.21333 -7.14164,-4.71541 -7.68164,-6.46875 -0.53867,-1.752 0.94335,-2.02148 0.94335,-2.02148 z m -22.73242,19.69727 c -0.651,0.0229 -1.15847,0.10461 -1.49414,0.25195 0.136,0.29066 0.27778,0.57361 0.42578,0.84961 h 0.0605 c 7.11894,13.20634 27.53394,11.79421 39.31641,6.78125 -4.38667,-1.012 -18.9313,-4.94334 -29.2793,-6.88867 h -0.62305 c -3.54025,-0.64761 -6.56569,-1.05888 -8.40625,-0.99414 z m -9.24414,3.01953 c -1.17108,-0.016 -2.42629,0.1704 -3.52929,0.6914 -4.56934,2.15867 -8.28993,7.8716 -6.16993,11.82227 1.78134,3.316 7.12291,2.7902 10.37891,-0.48047 3.19867,-3.21733 4.50238,-9.20952 3.37305,-10.85352 -0.38417,-0.56 -2.10093,-1.15302 -4.05274,-1.17968 z m 157.82617,4.19726 c -10.95066,10.34667 -19.13334,12.48675 -26.91601,15.08008 -10.04,3.34667 -16.94967,16.89234 -16.375,17.51367 2.10667,2.26934 11.39632,-5.19389 13.45898,-5.83789 1.17467,-0.368 3.41825,2.4753 2.26758,2.91797 -5.02533,4.216 -17.99758,7.29682 -17.51758,9.41016 0.39467,1.74 10.55527,3.40307 15.08594,1.45507 1.66133,-1.85866 3.83333,-3.48845 6,-4.70312 l -0.32422,2.10742 c -4.28133,7.04933 -15.53683,9.72752 -23.1875,9.24219 -10.7,-9.24267 -36.15894,-1.78361 -29.34961,22.53906 1.01334,-0.31867 6.3273,-15.72949 20.91797,-18.16016 0.60933,1.37734 -2.683,3.04072 -5.51367,5.99805 -4.08267,4.2656 -4.90563,10.68831 -3.4043,16.21485 3.89067,-0.648 6.82774,-1.38557 9.56641,-3.24024 -0.044,-1.6068 0.8443,-13.26056 4.54297,-11.83789 l -0.32813,2.43164 -0.48633,9.07813 c 7.87067,-1.93747 16.42617,-7.80576 23.1875,-12.16016 -0.532,-0.82667 -2.13174,-2.87906 2.4336,-4.53906 1.95066,-0.70934 9.08408,-10.01352 9.08008,-17.99219 0,-1.952 8.02648,-9.32992 6.64648,-11.03125 -3.02667,1.72133 -13.8604,5.51232 -10.53906,1.45898 10.23066,-3.62266 20.0659,-14.98131 20.7539,-25.94531 z m -187.02148,2.90039 c -6.01467,6.736 0.3125,10.89768 0.3125,13.29102 0,3.84666 -7.64159,-3.03606 -8.29492,-1.66406 -0.82267,1.728 0.0305,8.76989 3.09179,12.97656 5.22801,7.18533 22.2129,5.07226 22.2129,5.07226 0.676,-0.17066 2.14976,-0.29688 1.87109,-0.93554 l -2.80664,-1.22071 c -0.776,-0.28933 -14.84715,-6.2958 -7.25781,-6.86914 4.81066,-0.36266 13.67046,1.05674 16.59179,-4.44726 -8.60666,-3.26667 -19.50203,-9.18579 -25.7207,-16.20313 z m -38.65039,23.51367 c -2.60018,0.0615 -5.18375,0.74998 -7.6875,2.22852 l -1.67383,2.08008 4.125,4.25195 0.37109,-0.12305 c 2.65467,-1.008 6.26506,-2.25684 9.1504,-1.10351 0.79733,0.31867 3.16284,2.05912 1.71484,3.06445 l -8.90625,0.61328 8.16992,5.8418 c 7.90267,-0.85333 19.84982,3.34426 4.53516,3.43359 l 18.91601,12.70508 c 0,0 2.86073,-0.52703 3.91407,-1.8457 0.816,-1.02133 1.07226,-3.17969 1.07226,-3.17969 -5.13,-10.3635 -19.6602,-28.299 -33.70117,-27.9668 z m 30.57031,4.74024 c -1.28857,-0.0344 -2.72637,0.6189 -4.27344,2.25391 0,0 -2.16639,1.96409 -2.28906,3.63476 -0.2,2.74267 5.09766,4.87109 5.09766,4.87109 11.68979,15.35532 9.33946,-10.54953 1.46484,-10.75976 z m 28.53516,4.72851 c -2.38181,0.0608 -6.6201,1.65105 -7.4961,2.49805 -3.28933,3.18267 -3.06979,9.37141 -3.84179,10.19141 -0.38,0.404 -19.39954,2.01341 -9.15821,12.71875 4.572,0.54013 9.67392,-0.3053 14.39258,-0.0625 0,0 2.98599,0.644 3.83399,-0.5 1.31866,-1.77734 -0.88587,-11.89797 0.71679,-17.91797 0.32134,-1.20533 3.54038,-5.4932 3.12305,-6.39453 -0.18767,-0.404 -0.77637,-0.55348 -1.57031,-0.53321 z"
           transform="matrix(7.4999999,0,0,-7.4999999,0,4231.8)"
           id="path4238" /></g></g></g></svg>
